<svg width="162" height="19" viewBox="0 0 162 19" fill="none" xmlns="http://www.w3.org/2000/svg">
<path d="M94.0621 18.7C90.8215 18.8907 87.6115 17.9815 84.9521 16.12C84.3539 15.7394 83.8584 15.2174 83.5096 14.6C83.1608 13.9826 82.9694 13.2889 82.9521 12.58C82.9521 12.18 83.0821 11.84 83.5121 11.76C83.6017 11.7331 83.696 11.726 83.7885 11.7389C83.8811 11.7518 83.9698 11.7844 84.0486 11.8347C84.1274 11.8851 84.1944 11.9518 84.2451 12.0304C84.2957 12.1089 84.3288 12.1974 84.3421 12.2899C84.8821 15.4299 87.4821 16.16 89.9521 16.77C93.8001 17.7112 97.8409 17.4884 101.562 16.13C102.562 15.78 103.562 15.34 103.562 14.01C103.562 12.68 102.492 12.26 101.482 11.95C98.0521 10.95 94.4821 10.73 90.9721 10.09C89.6821 9.86 88.3822 9.66996 87.1122 9.36996C86.3498 9.18836 85.6162 8.90235 84.9321 8.51999C82.3021 7.03999 82.3121 4.16998 84.9321 2.69998C86.9164 1.73038 89.0846 1.19514 91.2921 1.12997C95.2121 0.769975 99.0521 1.00999 102.502 3.20999C103.149 3.56111 103.71 4.05057 104.145 4.64346C104.581 5.23636 104.88 5.91807 105.022 6.63998C105.092 7.09998 105.292 7.75995 104.532 7.91995C103.772 8.07995 103.712 7.44995 103.622 6.91995C103.499 6.32649 103.235 5.77139 102.852 5.30148C102.469 4.83157 101.978 4.46068 101.422 4.22C96.3121 1.66 91.1021 1.98001 85.8821 3.85001C85.4929 3.94275 85.1454 4.1618 84.8939 4.47299C84.6424 4.78419 84.5012 5.16997 84.4922 5.56998C84.4895 6.0287 84.6407 6.47509 84.9218 6.83768C85.2028 7.20027 85.5973 7.4581 86.0421 7.56998C88.5421 8.56998 91.2322 8.77996 93.8622 9.17996C96.31 9.45764 98.7404 9.87161 101.142 10.42C101.549 10.5223 101.95 10.6492 102.342 10.8C103.842 11.41 104.992 12.35 105.022 14.1C105.052 15.85 103.892 16.71 102.492 17.34C100.853 18.0465 99.1037 18.4627 97.3221 18.57C96.3621 18.62 95.4121 18.63 94.0621 18.7Z" fill="#4C75B3"/>
<path d="M161.392 0V7.82001C161.392 10.69 161.392 13.56 161.392 16.43C161.392 17.07 161.932 18.3 160.672 18.25C159.412 18.2 159.992 17.02 159.982 16.33C159.982 13.15 159.982 9.96998 159.982 6.78998C160.091 6.22215 160.007 5.63403 159.742 5.12C159.022 6.17 158.352 7.12 157.742 8.12C155.532 11.41 153.312 14.7 151.132 18.02C150.602 18.84 150.332 18.86 149.772 18.02C147.192 14.1 144.562 10.21 141.942 6.31C141.652 5.88 141.342 5.46002 140.772 4.65002V10.72C140.772 12.9134 140.772 15.1033 140.772 17.29C140.772 17.76 140.772 18.29 140.092 18.29C139.412 18.29 139.432 17.76 139.432 17.29C139.432 11.73 139.432 6.16003 139.432 0.160034C139.992 0.910034 140.332 1.33002 140.632 1.77002C143.632 6.23002 146.632 10.67 149.632 15.18C150.392 16.33 150.722 16.18 151.402 15.18C154.402 10.64 157.402 6.18001 160.402 1.63C160.562 1.15 160.822 0.75 161.392 0Z" fill="#4C75B3"/>
<path d="M47.0022 16.2C45.083 17.5772 42.8497 18.4524 40.5057 18.7458C38.1618 19.0392 35.7817 18.7416 33.5822 17.88C29.5822 16.44 27.1822 13.32 27.2322 9.81002C27.2467 8.84043 27.4549 7.88351 27.8448 6.99563C28.2346 6.10774 28.7982 5.30685 29.5022 4.64004C33.9222 0.210038 42.3722 -0.119965 47.1022 3.95004C47.4936 4.29473 47.8611 4.66557 48.2022 5.06002C48.2639 5.12568 48.3121 5.20285 48.344 5.28713C48.3759 5.37141 48.3909 5.46116 48.3881 5.55123C48.3853 5.6413 48.3648 5.72995 48.3278 5.8121C48.2907 5.89425 48.2379 5.96833 48.1722 6.03005C48.1066 6.09177 48.0294 6.13994 47.9451 6.17184C47.8608 6.20373 47.7711 6.21869 47.681 6.2159C47.5909 6.21312 47.5023 6.19264 47.4201 6.1556C47.338 6.11856 47.2639 6.06568 47.2022 6.00002C47.0002 5.83313 46.8098 5.65274 46.6322 5.46004C44.5418 3.6843 41.919 2.65626 39.1787 2.53854C36.4385 2.42081 33.7372 3.2201 31.5022 4.81002C27.7622 7.64002 27.7322 12.15 31.4322 15.02C33.542 16.5066 36.0557 17.3128 38.6365 17.3307C41.2174 17.3486 43.742 16.5772 45.8722 15.12C46.3822 14.72 47.2222 14.35 46.9822 13.58C46.7422 12.81 45.9022 13.2401 45.3422 13.2201C43.4022 13.2201 41.4522 13.2201 39.5122 13.2201C38.9222 13.2201 38.0422 13.42 38.0822 12.49C38.1222 11.56 38.9722 11.78 39.5822 11.77C42.1022 11.77 44.5822 11.77 47.1422 11.77C48.0622 11.77 48.4822 11.99 48.4322 12.99C48.3622 14.34 48.4322 15.7 48.4322 17.06C48.4322 17.58 48.6422 18.35 47.7022 18.3C46.7622 18.25 47.1222 17.5901 47.0822 17.1001C47.0522 16.8201 47.0322 16.57 47.0022 16.2Z" fill="#4D75B3"/>
<path d="M135.982 7.91998C135.982 9.27998 135.932 10.63 135.982 11.99C136.067 13.1783 135.758 14.3615 135.104 15.3572C134.45 16.3529 133.487 17.1059 132.362 17.5C129.233 18.7511 125.833 19.1714 122.492 18.72C120.66 18.5999 118.867 18.1279 117.212 17.33C116.177 16.8697 115.304 16.1086 114.706 15.1456C114.109 14.1826 113.815 13.0622 113.862 11.93C113.862 8.92999 113.862 5.93 113.862 3C113.862 2.4 113.742 1.61004 114.712 1.66004C115.682 1.71004 115.392 2.44999 115.392 2.98999C115.392 5.91999 115.462 8.84001 115.392 11.76C115.289 12.6816 115.498 13.6113 115.985 14.4001C116.473 15.1889 117.212 15.791 118.082 16.11C122.542 17.9551 127.552 17.9551 132.012 16.11C132.832 15.8028 133.528 15.2355 133.994 14.495C134.46 13.7545 134.67 12.8815 134.592 12.01C134.592 9.01001 134.592 6.06002 134.592 3.08002C134.592 2.56002 134.342 1.76998 135.212 1.72998C136.082 1.68998 135.932 2.55999 135.942 3.10999C136.002 4.67999 135.982 6.29998 135.982 7.91998Z" fill="#4C75B3"/>
<path d="M0.892185 18.22C0.755038 18.2334 0.617199 18.2028 0.498569 18.1327C0.379938 18.0626 0.286651 17.9566 0.232181 17.83C0.052181 17.42 0.23219 17.12 0.52219 16.83C1.55552 15.5833 2.59218 14.34 3.63217 13.1C6.69217 9.45003 9.77218 5.83002 12.7922 2.15002C13.4722 1.32002 13.8622 1.15001 14.6522 2.08001C18.7522 6.90001 22.9222 11.65 27.0522 16.45C27.4222 16.87 28.2122 17.45 27.5422 18.01C26.8722 18.57 26.3322 17.79 25.9322 17.32C22.1822 13.03 18.4422 8.73001 14.7622 4.39001C13.9822 3.47001 13.6022 3.39001 12.7622 4.39001C9.22218 8.73001 5.59219 12.98 1.99219 17.26C1.71219 17.67 1.46218 18.18 0.892185 18.22Z" fill="#4D75B3"/>
<path d="M65.8216 18.45C63.4616 18.45 61.1016 18.45 58.7416 18.45C57.8016 18.45 57.3216 18.3 57.3416 17.17C57.4016 12.42 57.3416 7.67997 57.3416 2.92997C57.3416 2.40997 57.1316 1.62999 58.0316 1.63999C58.9316 1.64999 58.7116 2.42999 58.7116 2.94999C58.7116 6.94999 58.7916 10.95 58.7116 15C58.7116 16.51 58.9516 17.06 60.6316 17C64.7716 16.85 68.9216 16.94 73.0616 17C73.6416 17 74.5116 16.74 74.4916 17.71C74.4716 18.68 73.6316 18.45 73.0416 18.45C70.6516 18.46 68.2316 18.45 65.8216 18.45Z" fill="#5479B5"/>
<path d="M13.7119 13.76C12.8719 14.82 12.0218 15.86 11.1918 16.93C10.3618 18 9.61185 18.63 8.29185 18.04C7.73144 17.7042 7.29324 17.1979 7.04133 16.5951C6.78942 15.9923 6.73703 15.3247 6.89185 14.69C7.2148 13.7576 7.74866 12.9123 8.45185 12.22C9.45185 10.97 10.4518 9.72998 11.5018 8.47998C11.7118 10.46 13.1619 11.92 13.7119 13.76Z" fill="#4C75B3"/>
<path d="M16.1718 8.72998C17.6599 10.2504 19.018 11.8928 20.2318 13.64C20.5639 14.1149 20.7543 14.6743 20.7808 15.2532C20.8074 15.8321 20.669 16.4067 20.3818 16.91C20.2646 17.2623 20.0517 17.5749 19.7669 17.813C19.4821 18.0511 19.1367 18.2052 18.7693 18.2581C18.4019 18.311 18.027 18.2607 17.6866 18.1127C17.3462 17.9646 17.0536 17.7248 16.8418 17.42C15.8418 16.26 14.9018 14.99 13.9418 13.76C13.8709 13.6534 13.833 13.5281 13.833 13.4C13.833 13.2719 13.8709 13.1466 13.9418 13.04C14.988 11.7814 15.7488 10.311 16.1718 8.72998Z" fill="#D02731"/>
<path d="M52.1424 9.97001C52.1424 7.63001 52.1424 5.29001 52.1424 2.97001C52.1424 2.42001 52.0024 1.68996 52.8624 1.66996C53.7224 1.64996 53.6223 2.36997 53.6223 2.92997C53.6223 7.66331 53.6223 12.3967 53.6223 17.13C53.6223 17.72 53.6224 18.39 52.8024 18.36C51.9824 18.33 52.1223 17.7 52.1223 17.17L52.1424 9.97001Z" fill="#557AB6"/>
<path d="M110.052 10.09V17.09C110.052 17.68 110.052 18.36 109.262 18.32C108.472 18.28 108.562 17.66 108.562 17.13C108.562 12.34 108.562 7.56002 108.562 2.77002C108.562 2.26002 108.562 1.63 109.282 1.63C110.002 1.63 110.042 2.33001 110.042 2.89001C110.052 5.30001 110.052 7.70003 110.052 10.09Z" fill="#5479B5"/>
<path d="M16.172 8.72996C16.592 10.92 14.912 12.19 13.942 13.73H13.712C13.292 13.16 12.902 12.56 12.432 12.03C12.0339 11.5323 11.7452 10.9561 11.585 10.3392C11.4247 9.72232 11.3964 9.07856 11.502 8.44999C13.342 6.01999 14.612 6.08996 16.172 8.72996Z" fill="#64363E"/>
<path d="M77.9324 9.88002C77.9324 7.53335 77.9324 5.20002 77.9324 2.88002C77.9324 2.38002 77.8024 1.73004 78.5924 1.71004C79.3824 1.69004 79.2824 2.35004 79.2824 2.84004C79.2824 7.64004 79.2824 12.44 79.2824 17.24C79.2824 17.75 79.3524 18.39 78.5524 18.33C77.7524 18.27 77.9324 17.61 77.9324 17.12C77.9324 14.6933 77.9324 12.28 77.9324 9.88002Z" fill="#4C75B3"/>
</svg>
