<svg width="96" height="32" viewBox="0 0 96 32" fill="none" xmlns="http://www.w3.org/2000/svg">
<path d="M88.1078 -1.80703e-05H7.62774C7.33438 -1.80703e-05 7.04454 -1.80703e-05 6.75196 0.00158193C6.50704 0.00318193 6.26407 0.00782993 6.0168 0.0117419C5.47961 0.0180634 4.94369 0.0653229 4.41368 0.15311C3.88442 0.242808 3.37174 0.411914 2.89298 0.65471C2.4148 0.899559 1.97788 1.21772 1.59806 1.59764C1.21624 1.97649 0.897971 2.41439 0.65548 2.89451C0.41232 3.37367 0.243712 3.88713 0.15548 4.41717C0.0664088 4.94653 0.0184787 5.482 0.01212 6.01877C0.004696 6.26405 0.003912 6.51014 0 6.75545V25.2469C0.003912 25.4953 0.004696 25.7359 0.01212 25.9844C0.0184807 26.5211 0.0664107 27.0566 0.15548 27.5859C0.243469 28.1162 0.412087 28.63 0.65548 29.1093C0.89786 29.5879 1.21618 30.024 1.59806 30.4008C1.97644 30.7824 2.41364 31.1008 2.89298 31.3437C3.37173 31.5872 3.88436 31.7573 4.41368 31.8484C4.94378 31.9355 5.47965 31.9827 6.0168 31.9898C6.26407 31.9953 6.50704 31.9984 6.75196 31.9984C7.04454 32 7.3344 32 7.62774 32H88.1078C88.3953 32 88.6875 32 88.975 31.9984C89.2188 31.9984 89.4688 31.9953 89.7125 31.9898C90.2487 31.9831 90.7835 31.9358 91.3125 31.8484C91.8436 31.7567 92.358 31.5866 92.8391 31.3437C93.318 31.1006 93.7548 30.7823 94.1329 30.4008C94.5137 30.0226 94.8327 29.5867 95.0781 29.1093C95.3197 28.6297 95.4867 28.1159 95.5734 27.5859C95.6626 27.0565 95.7123 26.5212 95.7219 25.9844C95.725 25.7359 95.725 25.4953 95.725 25.2469C95.7313 24.9562 95.7313 24.6672 95.7313 24.3718V7.62889C95.7313 7.33592 95.7313 7.04529 95.725 6.75545C95.725 6.51014 95.725 6.26405 95.7219 6.01873C95.7123 5.48192 95.6626 4.94657 95.5734 4.41713C95.4865 3.88741 95.3195 3.37398 95.0781 2.89448C94.5843 1.93214 93.8013 1.1488 92.8391 0.654638C92.358 0.412436 91.8435 0.243374 91.3125 0.153038C90.7836 0.0648642 90.2487 0.0175881 89.7125 0.0116299C89.4688 0.00772593 89.2188 0.00303793 88.975 0.00147793C88.6875 -0.00012207 88.3953 -0.00012207 88.1078 -0.00012207V-1.80703e-05Z" fill="#A6A6A6"/>
<path d="M6.75594 31.3C6.5122 31.3 6.27434 31.2968 6.03251 31.2914C5.53154 31.2849 5.03173 31.2413 4.5372 31.1609C4.07607 31.0815 3.62936 30.9338 3.21181 30.7226C2.79808 30.5132 2.42073 30.2386 2.09421 29.9093C1.76296 29.5839 1.48718 29.2065 1.2778 28.7921C1.06611 28.375 0.919609 27.9279 0.843398 27.4664C0.761098 26.9704 0.71657 26.469 0.710198 25.9664C0.705126 25.7976 0.698486 25.2359 0.698486 25.2359V6.75542C0.698486 6.75542 0.705558 6.2023 0.710238 6.03979C0.716339 5.53794 0.760608 5.03727 0.842662 4.54214C0.919013 4.07935 1.06563 3.63095 1.27743 3.21246C1.48604 2.79831 1.76029 2.42064 2.08954 2.0941C2.41842 1.76445 2.79698 1.48843 3.21141 1.27612C3.62801 1.06563 4.07387 0.918937 4.53407 0.840967C5.03023 0.75982 5.53177 0.715948 6.03448 0.709719L6.75633 0.699951H88.9712L89.7017 0.710111C90.1998 0.716031 90.6968 0.759511 91.1884 0.840183C91.6532 0.919131 92.1037 1.06684 92.5251 1.27846C93.3553 1.70634 94.0309 2.38328 94.4571 3.21441C94.6655 3.63001 94.8099 4.07476 94.8852 4.53354C94.9683 5.03274 95.0148 5.53734 95.0243 6.04331C95.0266 6.26987 95.0266 6.51323 95.0266 6.75542C95.0329 7.05542 95.0329 7.34097 95.0329 7.62886V24.3718C95.0329 24.6624 95.0329 24.946 95.0266 25.232C95.0266 25.4921 95.0266 25.7304 95.0235 25.9757C95.0142 26.4727 94.9685 26.9682 94.8868 27.4585C94.8121 27.9234 94.6664 28.374 94.4548 28.7945C94.2439 29.2044 93.9697 29.5786 93.6423 29.9031C93.3155 30.2341 92.9375 30.5103 92.5228 30.7211C92.1026 30.9339 91.6527 31.0821 91.1884 31.1609C90.6939 31.2417 90.194 31.2853 89.693 31.2914C89.4587 31.2968 89.2133 31.3 88.9751 31.3L88.1079 31.3015L6.75594 31.3Z" fill="black"/>
<path d="M19.8151 16.2405C19.8237 15.5728 20.0011 14.9181 20.3307 14.3373C20.6604 13.7565 21.1315 13.2686 21.7004 12.9188C21.339 12.4027 20.8622 11.978 20.308 11.6783C19.7537 11.3787 19.1372 11.2124 18.5075 11.1927C17.1641 11.0517 15.8617 11.9966 15.1771 11.9966C14.4793 11.9966 13.4253 11.2067 12.2903 11.23C11.5562 11.2538 10.8407 11.4672 10.2136 11.8497C9.58652 12.2321 9.06918 12.7705 8.71201 13.4123C7.16481 16.0911 8.31888 20.0279 9.80097 22.1932C10.5425 23.2535 11.4091 24.4378 12.5431 24.3958C13.6527 24.3498 14.0672 23.6883 15.4066 23.6883C16.7336 23.6883 17.1224 24.3958 18.2794 24.3691C19.4701 24.3498 20.2203 23.3041 20.9358 22.2338C21.4686 21.4783 21.8786 20.6434 22.1505 19.7598C21.4588 19.4672 20.8684 18.9775 20.4531 18.3517C20.0378 17.7258 19.816 16.9916 19.8151 16.2405Z" fill="white"/>
<path d="M17.63 9.76869C18.2792 8.98933 18.599 7.98758 18.5216 6.9762C17.5297 7.08037 16.6135 7.55442 15.9555 8.30388C15.6338 8.67002 15.3874 9.09597 15.2304 9.55738C15.0734 10.0188 15.0089 10.5066 15.0405 10.993C15.5367 10.9981 16.0275 10.8906 16.476 10.6785C16.9245 10.4664 17.3191 10.1554 17.63 9.76869Z" fill="white"/>
<path d="M33.8417 21.7116H30.055L29.1457 24.3968H27.5417L31.1285 14.4624H32.7949L36.3816 24.3968H34.7503L33.8417 21.7116ZM30.4472 20.4726H33.4488L31.9691 16.1148H31.9277L30.4472 20.4726Z" fill="white"/>
<path d="M44.1276 20.7757C44.1276 23.0264 42.9229 24.4725 41.105 24.4725C40.6444 24.4966 40.1864 24.3905 39.7834 24.1664C39.3804 23.9423 39.0486 23.6092 38.8261 23.2053H38.7916V26.7928H37.3049V17.1538H38.744V18.3585H38.7714C39.0041 17.9565 39.3415 17.6251 39.7476 17.3997C40.1537 17.1742 40.6134 17.063 41.0776 17.078C42.9159 17.078 44.1276 18.5311 44.1276 20.7757ZM42.5995 20.7757C42.5995 19.3093 41.8417 18.3452 40.6854 18.3452C39.5495 18.3452 38.7854 19.3296 38.7854 20.7757C38.7854 22.235 39.5495 23.2124 40.6854 23.2124C41.8417 23.2124 42.5995 22.2553 42.5995 20.7757Z" fill="white"/>
<path d="M52.0995 20.7757C52.0995 23.0264 50.8948 24.4725 49.0769 24.4725C48.6164 24.4966 48.1584 24.3905 47.7553 24.1664C47.3523 23.9423 47.0205 23.6092 46.798 23.2053H46.7636V26.7928H45.2769V17.1538H46.7159V18.3585H46.7433C46.976 17.9565 47.3134 17.6251 47.7195 17.3997C48.1256 17.1742 48.5853 17.063 49.0495 17.078C50.8878 17.078 52.0995 18.5311 52.0995 20.7757ZM50.5714 20.7757C50.5714 19.3093 49.8136 18.3452 48.6573 18.3452C47.5214 18.3452 46.7573 19.3296 46.7573 20.7757C46.7573 22.235 47.5214 23.2124 48.6573 23.2124C49.8136 23.2124 50.5714 22.2553 50.5714 20.7757H50.5714Z" fill="white"/>
<path d="M57.3683 21.6288C57.4785 22.614 58.4355 23.2608 59.7433 23.2608C60.9965 23.2608 61.898 22.614 61.898 21.7257C61.898 20.9546 61.3543 20.4929 60.0668 20.1764L58.7793 19.8663C56.9551 19.4257 56.1082 18.5725 56.1082 17.1882C56.1082 15.4741 57.6019 14.2968 59.723 14.2968C61.8222 14.2968 63.2613 15.4741 63.3097 17.1882H61.8089C61.7191 16.1968 60.8996 15.5983 59.7019 15.5983C58.5043 15.5983 57.6847 16.2038 57.6847 17.085C57.6847 17.7874 58.2082 18.2007 59.4886 18.517L60.5832 18.7858C62.6214 19.2678 63.4683 20.0866 63.4683 21.5397C63.4683 23.3983 61.9878 24.5624 59.6332 24.5624C57.43 24.5624 55.9425 23.4256 55.8464 21.6288L57.3683 21.6288Z" fill="white"/>
<path d="M66.677 15.4398V17.1539H68.0543V18.3312H66.677V22.3242C66.677 22.9445 66.9528 23.2336 67.5582 23.2336C67.7218 23.2307 67.885 23.2192 68.0473 23.1992V24.3695C67.7751 24.4203 67.4984 24.4434 67.2215 24.4382C65.7551 24.4382 65.1832 23.8875 65.1832 22.4828V18.3312H64.1301V17.1539H65.1832V15.4398H66.677Z" fill="white"/>
<path d="M68.8521 20.7758C68.8521 18.4969 70.1942 17.0648 72.2872 17.0648C74.3872 17.0648 75.7231 18.4968 75.7231 20.7758C75.7231 23.0609 74.3942 24.4867 72.2872 24.4867C70.1809 24.4867 68.8521 23.0609 68.8521 20.7758ZM74.2083 20.7758C74.2083 19.2125 73.4919 18.2898 72.2872 18.2898C71.0825 18.2898 70.3669 19.2195 70.3669 20.7758C70.3669 22.3453 71.0825 23.2609 72.2872 23.2609C73.4919 23.2609 74.2083 22.3453 74.2083 20.7758H74.2083Z" fill="white"/>
<path d="M76.9487 17.1538H78.3667V18.3866H78.4011C78.497 18.0016 78.7226 17.6613 79.0399 17.423C79.3571 17.1847 79.7468 17.0629 80.1433 17.078C80.3146 17.0774 80.4855 17.0961 80.6527 17.1335V18.5241C80.4364 18.458 80.2107 18.4277 79.9847 18.4343C79.7687 18.4255 79.5534 18.4636 79.3535 18.5459C79.1536 18.6282 78.9739 18.7528 78.8267 18.9111C78.6796 19.0694 78.5684 19.2577 78.5008 19.4631C78.4333 19.6684 78.411 19.8859 78.4355 20.1007V24.3968H76.9487L76.9487 17.1538Z" fill="white"/>
<path d="M87.5075 22.2695C87.3075 23.5843 86.027 24.4867 84.3887 24.4867C82.2817 24.4867 80.9739 23.075 80.9739 20.8101C80.9739 18.5383 82.2887 17.0648 84.3262 17.0648C86.3301 17.0648 87.5903 18.4414 87.5903 20.6375V21.1469H82.4747V21.2367C82.4511 21.5033 82.4844 21.7718 82.5726 22.0245C82.6607 22.2771 82.8016 22.5082 82.9859 22.7022C83.1702 22.8962 83.3936 23.0488 83.6414 23.1499C83.8892 23.2509 84.1557 23.2981 84.4231 23.2882C84.7744 23.3212 85.127 23.2398 85.4284 23.0562C85.7297 22.8727 85.9638 22.5968 86.0958 22.2695L87.5075 22.2695ZM82.4817 20.1078H86.1028C86.1161 19.8681 86.0798 19.6283 85.996 19.4033C85.9123 19.1783 85.783 18.9731 85.6161 18.8005C85.4493 18.6279 85.2486 18.4916 85.0267 18.4002C84.8047 18.3089 84.5662 18.2644 84.3262 18.2695C84.0841 18.2681 83.8441 18.3146 83.6201 18.4064C83.3961 18.4982 83.1924 18.6334 83.0209 18.8043C82.8494 18.9752 82.7135 19.1784 82.6209 19.4021C82.5284 19.6259 82.4811 19.8657 82.4817 20.1078V20.1078Z" fill="white"/>
<path d="M30.2608 6.98479C30.5725 6.96242 30.8853 7.00951 31.1766 7.12265C31.4679 7.2358 31.7304 7.41218 31.9453 7.63908C32.1602 7.86598 32.322 8.13774 32.4191 8.43476C32.5162 8.73178 32.5462 9.04665 32.5069 9.35666C32.5069 10.8817 31.6827 11.7583 30.2608 11.7583H28.5366V6.98479H30.2608ZM29.278 11.0832H30.178C30.4007 11.0965 30.6236 11.06 30.8305 10.9763C31.0373 10.8926 31.2229 10.7638 31.3737 10.5994C31.5245 10.4349 31.6367 10.2389 31.7022 10.0256C31.7677 9.81234 31.7848 9.58713 31.7522 9.36639C31.7824 9.14652 31.7636 8.9227 31.6971 8.71097C31.6306 8.49924 31.5181 8.30484 31.3676 8.14169C31.2172 7.97855 31.0325 7.8507 30.8268 7.76731C30.6212 7.68392 30.3996 7.64706 30.178 7.65935H29.278V11.0832Z" fill="white"/>
<path d="M33.3445 9.95553C33.3218 9.71879 33.3489 9.47994 33.424 9.25428C33.499 9.02863 33.6204 8.82115 33.7804 8.64517C33.9404 8.46918 34.1353 8.32857 34.3528 8.23235C34.5703 8.13613 34.8055 8.08643 35.0433 8.08643C35.2811 8.08643 35.5163 8.13613 35.7338 8.23235C35.9513 8.32857 36.1462 8.46918 36.3062 8.64517C36.4661 8.82115 36.5875 9.02863 36.6626 9.25428C36.7377 9.47994 36.7648 9.71879 36.7421 9.95553C36.7652 10.1925 36.7384 10.4317 36.6636 10.6577C36.5887 10.8837 36.4674 11.0916 36.3074 11.2679C36.1474 11.4442 35.9523 11.5852 35.7346 11.6816C35.5169 11.778 35.2814 11.8278 35.0433 11.8278C34.8052 11.8278 34.5697 11.778 34.352 11.6816C34.1343 11.5852 33.9392 11.4442 33.7792 11.2679C33.6192 11.0916 33.4979 10.8837 33.423 10.6577C33.3481 10.4317 33.3214 10.1925 33.3445 9.95553ZM36.0109 9.95553C36.0109 9.17467 35.6601 8.71803 35.0445 8.71803C34.4265 8.71803 34.0789 9.17467 34.0789 9.95554C34.0789 10.7426 34.4265 11.1958 35.0445 11.1958C35.6601 11.1958 36.0109 10.7395 36.0109 9.95553H36.0109Z" fill="white"/>
<path d="M41.2585 11.7582H40.521L39.7765 9.1051H39.7202L38.9788 11.7582H38.2483L37.2554 8.15588H37.9765L38.6218 10.9047H38.6749L39.4155 8.15588H40.0976L40.8382 10.9047H40.8944L41.5366 8.15588H42.2476L41.2585 11.7582Z" fill="white"/>
<path d="M43.0828 8.15585H43.7671V8.72811H43.8203C43.9104 8.52257 44.0624 8.35028 44.2551 8.23523C44.4478 8.12019 44.6716 8.06813 44.8953 8.08631C45.0705 8.07313 45.2465 8.09956 45.4102 8.16364C45.5739 8.22771 45.7211 8.3278 45.8408 8.45647C45.9606 8.58515 46.0498 8.73912 46.102 8.90697C46.1541 9.07483 46.1679 9.25227 46.1421 9.42615V11.7581H45.4312V9.60468C45.4312 9.02577 45.1796 8.73788 44.6539 8.73788C44.5349 8.73234 44.4161 8.75259 44.3056 8.79725C44.1952 8.84192 44.0957 8.90994 44.014 8.99664C43.9323 9.08335 43.8703 9.1867 43.8323 9.2996C43.7943 9.41251 43.7811 9.5323 43.7937 9.65077V11.7582H43.0828L43.0828 8.15585Z" fill="white"/>
<path d="M47.2749 6.74963H47.9858V11.7582H47.2749V6.74963Z" fill="white"/>
<path d="M48.9741 9.95547C48.9515 9.71872 48.9785 9.47986 49.0536 9.25419C49.1287 9.02853 49.2502 8.82105 49.4101 8.64506C49.5701 8.46907 49.7651 8.32845 49.9826 8.23223C50.2001 8.13601 50.4353 8.0863 50.6731 8.0863C50.9109 8.0863 51.1461 8.13601 51.3636 8.23223C51.5811 8.32845 51.7761 8.46907 51.9361 8.64506C52.0961 8.82105 52.2175 9.02853 52.2926 9.25419C52.3677 9.47986 52.3948 9.71872 52.3721 9.95547C52.3952 10.1925 52.3684 10.4316 52.2935 10.6577C52.2186 10.8837 52.0972 11.0915 51.9372 11.2679C51.7772 11.4442 51.5821 11.5851 51.3644 11.6815C51.1467 11.7779 50.9112 11.8278 50.6731 11.8278C50.435 11.8278 50.1995 11.7779 49.9818 11.6815C49.7641 11.5851 49.569 11.4442 49.409 11.2679C49.249 11.0915 49.1276 10.8837 49.0527 10.6577C48.9778 10.4316 48.951 10.1925 48.9741 9.95547ZM51.6405 9.95547C51.6405 9.17462 51.2897 8.71798 50.6741 8.71798C50.0561 8.71798 49.7085 9.17462 49.7085 9.95548C49.7085 10.7426 50.0561 11.1957 50.6741 11.1957C51.2897 11.1957 51.6405 10.7395 51.6405 9.95547H51.6405Z" fill="white"/>
<path d="M53.1206 10.7395C53.1206 10.0911 53.6034 9.71728 54.4604 9.66415L55.4362 9.60791V9.29697C55.4362 8.9165 55.1847 8.70166 54.6987 8.70166C54.3019 8.70166 54.0269 8.84736 53.9479 9.10205H53.2597C53.3323 8.4833 53.9144 8.08643 54.7315 8.08643C55.6347 8.08643 56.144 8.53603 56.144 9.29697V11.7583H55.4597V11.2521H55.4034C55.2892 11.4336 55.1289 11.5817 54.9388 11.6811C54.7487 11.7804 54.5357 11.8276 54.3214 11.8177C54.1702 11.8334 54.0173 11.8172 53.8727 11.7703C53.7281 11.7233 53.5949 11.6466 53.4818 11.545C53.3687 11.4434 53.2781 11.3193 53.2159 11.1805C53.1537 11.0418 53.1212 10.8916 53.1206 10.7395ZM55.4362 10.4317V10.1306L54.5565 10.1868C54.0604 10.22 53.8354 10.3888 53.8354 10.7063C53.8354 11.0306 54.1167 11.2192 54.5034 11.2192C54.6168 11.2307 54.7312 11.2193 54.84 11.1856C54.9488 11.1519 55.0498 11.0967 55.1368 11.0232C55.2238 10.9497 55.2952 10.8595 55.3466 10.7579C55.3981 10.6563 55.4285 10.5454 55.4362 10.4317Z" fill="white"/>
<path d="M57.0784 9.95551C57.0784 8.81723 57.6635 8.09613 58.5737 8.09613C58.7988 8.08576 59.0223 8.13968 59.2179 8.25159C59.4135 8.36351 59.5732 8.52879 59.6784 8.72813H59.7315V6.74963H60.4424V11.7582H59.7612V11.1891H59.7049C59.5917 11.3871 59.4264 11.5503 59.227 11.6611C59.0276 11.7719 58.8016 11.826 58.5737 11.8176C57.6573 11.8176 57.0784 11.0965 57.0784 9.95551ZM57.8128 9.95551C57.8128 10.7196 58.1729 11.1793 58.7753 11.1793C59.3745 11.1793 59.7448 10.7129 59.7448 9.95863C59.7448 9.20785 59.3706 8.7348 58.7753 8.7348C58.1768 8.7348 57.8127 9.19769 57.8127 9.95551H57.8128Z" fill="white"/>
<path d="M63.3838 9.95553C63.3611 9.71879 63.3882 9.47994 63.4633 9.25428C63.5383 9.02863 63.6598 8.82115 63.8197 8.64517C63.9797 8.46918 64.1746 8.32857 64.3921 8.23235C64.6096 8.13613 64.8448 8.08643 65.0826 8.08643C65.3204 8.08643 65.5556 8.13613 65.7731 8.23235C65.9906 8.32857 66.1855 8.46918 66.3455 8.64517C66.5054 8.82115 66.6268 9.02863 66.7019 9.25428C66.777 9.47994 66.8041 9.71879 66.7814 9.95553C66.8045 10.1925 66.7777 10.4317 66.7029 10.6577C66.628 10.8837 66.5067 11.0916 66.3467 11.2679C66.1867 11.4442 65.9916 11.5852 65.7739 11.6816C65.5562 11.778 65.3207 11.8278 65.0826 11.8278C64.8445 11.8278 64.609 11.778 64.3913 11.6816C64.1736 11.5852 63.9785 11.4442 63.8185 11.2679C63.6585 11.0916 63.5372 10.8837 63.4623 10.6577C63.3874 10.4317 63.3607 10.1925 63.3838 9.95553ZM66.0502 9.95553C66.0502 9.17467 65.6994 8.71803 65.0838 8.71803C64.4658 8.71803 64.1182 9.17467 64.1182 9.95554C64.1182 10.7426 64.4658 11.1958 65.0838 11.1958C65.6994 11.1958 66.0502 10.7395 66.0502 9.95553Z" fill="white"/>
<path d="M67.7354 8.15585H68.4197V8.72811H68.4729C68.563 8.52257 68.715 8.35028 68.9077 8.23523C69.1004 8.12019 69.3242 8.06813 69.5479 8.08631C69.7231 8.07313 69.8991 8.09956 70.0628 8.16364C70.2265 8.22771 70.3737 8.3278 70.4934 8.45647C70.6131 8.58515 70.7024 8.73912 70.7546 8.90697C70.8067 9.07483 70.8205 9.25227 70.7947 9.42615V11.7581H70.0838V9.60468C70.0838 9.02577 69.8322 8.73788 69.3064 8.73788C69.1874 8.73234 69.0686 8.75259 68.9582 8.79725C68.8478 8.84192 68.7483 8.90994 68.6666 8.99664C68.5849 9.08335 68.5229 9.1867 68.4849 9.2996C68.4468 9.41251 68.4337 9.5323 68.4463 9.65077V11.7582H67.7354V8.15585Z" fill="white"/>
<path d="M74.8119 7.25903V8.17231H75.5924V8.77114H74.8119V10.6235C74.8119 11.0008 74.9674 11.1661 75.3213 11.1661C75.4119 11.1658 75.5024 11.1603 75.5924 11.1497V11.7418C75.4647 11.7647 75.3354 11.7768 75.2057 11.7782C74.415 11.7782 74.1002 11.5 74.1002 10.8055V8.77111H73.5283V8.17228H74.1002V7.25903H74.8119Z" fill="white"/>
<path d="M76.5635 6.74963H77.2682V8.73479H77.3244C77.4189 8.52734 77.5751 8.35406 77.7716 8.23859C77.9682 8.12311 78.1956 8.07104 78.4228 8.08948C78.5972 8.07999 78.7715 8.1091 78.9333 8.17474C79.0951 8.24037 79.2405 8.34091 79.359 8.46918C79.4775 8.59745 79.5662 8.75029 79.6188 8.9168C79.6715 9.08331 79.6867 9.25938 79.6634 9.43245V11.7582H78.9518V9.60783C78.9518 9.03244 78.6838 8.74103 78.1815 8.74103C78.0593 8.73101 77.9364 8.74781 77.8214 8.79025C77.7063 8.8327 77.602 8.89976 77.5156 8.98675C77.4292 9.07374 77.3628 9.17856 77.3212 9.29387C77.2795 9.40918 77.2636 9.53219 77.2744 9.65431V11.7582H76.5635L76.5635 6.74963Z" fill="white"/>
<path d="M83.809 10.7856C83.7124 11.1148 83.5031 11.3996 83.2177 11.5901C82.9324 11.7806 82.5891 11.8648 82.248 11.8278C82.0107 11.834 81.7748 11.7886 81.5568 11.6946C81.3388 11.6005 81.1439 11.4602 80.9856 11.2833C80.8273 11.1064 80.7093 10.8971 80.64 10.6701C80.5706 10.443 80.5515 10.2036 80.584 9.9684C80.5524 9.73249 80.5718 9.49254 80.641 9.2648C80.7102 9.03707 80.8275 8.82685 80.985 8.64839C81.1425 8.46993 81.3365 8.3274 81.5539 8.23043C81.7712 8.13347 82.0069 8.08433 82.2449 8.08636C83.2472 8.08636 83.8519 8.77116 83.8519 9.90236V10.1504H81.3082V10.1903C81.297 10.3225 81.3137 10.4555 81.357 10.5809C81.4003 10.7063 81.4693 10.8213 81.5596 10.9185C81.6499 11.0156 81.7596 11.0929 81.8815 11.1452C82.0034 11.1975 82.1349 11.2237 82.2676 11.2223C82.4376 11.2427 82.6099 11.2121 82.7625 11.1343C82.9151 11.0565 83.0412 10.9351 83.1246 10.7856L83.809 10.7856ZM81.3082 9.62464H83.1277C83.1367 9.50374 83.1202 9.3823 83.0795 9.26813C83.0387 9.15395 82.9745 9.04957 82.891 8.96168C82.8075 8.8738 82.7065 8.80435 82.5946 8.75781C82.4826 8.71127 82.3622 8.68867 82.241 8.69144C82.118 8.6899 81.996 8.71299 81.8821 8.75934C81.7682 8.8057 81.6647 8.87438 81.5778 8.96136C81.4909 9.04833 81.4222 9.15182 81.3759 9.26574C81.3296 9.37965 81.3066 9.50169 81.3082 9.62464H81.3082Z" fill="white"/>
</svg>
