<svg width="652" height="663" viewBox="0 0 652 663" fill="none" xmlns="http://www.w3.org/2000/svg">
<circle cx="182" cy="565" r="24" fill="#081429"/>
<circle cx="182" cy="565" r="24" fill="url(#paint0_radial_1907_1814)"/>
<circle cx="24" cy="123" r="24" fill="#081429"/>
<circle cx="24" cy="123" r="24" fill="url(#paint1_radial_1907_1814)"/>
<circle cx="628" cy="341" r="24" fill="#081429"/>
<circle cx="628" cy="341" r="24" fill="url(#paint2_radial_1907_1814)"/>
<g filter="url(#filter0_f_1907_1814)">
<path d="M560.5 610.5C560.5 610.5 470.199 597.576 451.5 540.5C438.673 501.347 468.999 455.8 451.5 418.5C425.196 362.433 326.117 388.221 308 329C294.322 284.288 353.264 260.117 343 214.5C330.694 159.805 247.475 175.04 234.5 120.5C227.363 90.5 243 46 205 5" stroke="#050C18" stroke-opacity="0.2" stroke-linecap="round"/>
</g>
<g filter="url(#filter1_f_1907_1814)">
<path d="M544.5 618.5C544.5 618.5 454.199 605.576 435.5 548.5C422.673 509.347 452.999 463.8 435.5 426.5C409.196 370.433 310.117 396.221 292 337C278.322 292.288 337.264 268.117 327 222.5C314.694 167.805 231.475 183.04 218.5 128.5C211.363 98.5 227 54 189 13" stroke="#050C18" stroke-opacity="0.2" stroke-linecap="round"/>
</g>
<g filter="url(#filter2_f_1907_1814)">
<path d="M528.5 626.5C528.5 626.5 438.199 613.576 419.5 556.5C406.673 517.347 436.999 471.8 419.5 434.5C393.196 378.433 294.117 404.221 276 345C262.322 300.288 321.264 276.117 311 230.5C298.694 175.805 215.475 191.04 202.5 136.5C195.363 106.5 211 62 173 21" stroke="#050C18" stroke-opacity="0.2" stroke-linecap="round"/>
</g>
<g filter="url(#filter3_f_1907_1814)">
<path d="M512.5 634.5C512.5 634.5 422.199 621.576 403.5 564.5C390.673 525.347 420.999 479.8 403.5 442.5C377.196 386.433 278.117 412.221 260 353C246.322 308.288 305.264 284.117 295 238.5C282.694 183.805 199.475 199.04 186.5 144.5C179.363 114.5 195 70 157 29" stroke="#050C18" stroke-opacity="0.2" stroke-linecap="round"/>
</g>
<g filter="url(#filter4_f_1907_1814)">
<path d="M496.5 642.5C496.5 642.5 406.199 629.576 387.5 572.5C374.673 533.347 404.999 487.8 387.5 450.5C361.196 394.433 262.117 420.221 244 361C230.322 316.288 289.264 292.117 279 246.5C266.694 191.805 183.475 207.04 170.5 152.5C163.363 122.5 179 78 141 37" stroke="#050C18" stroke-opacity="0.2" stroke-linecap="round"/>
</g>
<g filter="url(#filter5_f_1907_1814)">
<path d="M480.5 650.5C480.5 650.5 390.199 637.576 371.5 580.5C358.673 541.347 388.999 495.8 371.5 458.5C345.196 402.433 246.117 428.221 228 369C214.322 324.288 273.264 300.117 263 254.5C250.694 199.805 167.475 215.04 154.5 160.5C147.363 130.5 163 86 125 45" stroke="#050C18" stroke-opacity="0.2" stroke-linecap="round"/>
</g>
<g filter="url(#filter6_f_1907_1814)">
<path d="M464.5 658.5C464.5 658.5 374.199 645.576 355.5 588.5C342.673 549.347 372.999 503.8 355.5 466.5C329.196 410.433 230.117 436.221 212 377C198.322 332.288 257.264 308.117 247 262.5C234.694 207.805 151.475 223.04 138.5 168.5C131.363 138.5 147 94 109 53" stroke="#050C18" stroke-opacity="0.2" stroke-linecap="round"/>
</g>
<defs>
<filter id="filter0_f_1907_1814" x="200.5" y="0.5" width="364.5" height="614.5" filterUnits="userSpaceOnUse" color-interpolation-filters="sRGB">
<feFlood flood-opacity="0" result="BackgroundImageFix"/>
<feBlend mode="normal" in="SourceGraphic" in2="BackgroundImageFix" result="shape"/>
<feGaussianBlur stdDeviation="2" result="effect1_foregroundBlur_1907_1814"/>
</filter>
<filter id="filter1_f_1907_1814" x="184.5" y="8.5" width="364.5" height="614.5" filterUnits="userSpaceOnUse" color-interpolation-filters="sRGB">
<feFlood flood-opacity="0" result="BackgroundImageFix"/>
<feBlend mode="normal" in="SourceGraphic" in2="BackgroundImageFix" result="shape"/>
<feGaussianBlur stdDeviation="2" result="effect1_foregroundBlur_1907_1814"/>
</filter>
<filter id="filter2_f_1907_1814" x="168.5" y="16.5" width="364.5" height="614.5" filterUnits="userSpaceOnUse" color-interpolation-filters="sRGB">
<feFlood flood-opacity="0" result="BackgroundImageFix"/>
<feBlend mode="normal" in="SourceGraphic" in2="BackgroundImageFix" result="shape"/>
<feGaussianBlur stdDeviation="2" result="effect1_foregroundBlur_1907_1814"/>
</filter>
<filter id="filter3_f_1907_1814" x="152.5" y="24.5" width="364.5" height="614.5" filterUnits="userSpaceOnUse" color-interpolation-filters="sRGB">
<feFlood flood-opacity="0" result="BackgroundImageFix"/>
<feBlend mode="normal" in="SourceGraphic" in2="BackgroundImageFix" result="shape"/>
<feGaussianBlur stdDeviation="2" result="effect1_foregroundBlur_1907_1814"/>
</filter>
<filter id="filter4_f_1907_1814" x="136.5" y="32.5" width="364.5" height="614.5" filterUnits="userSpaceOnUse" color-interpolation-filters="sRGB">
<feFlood flood-opacity="0" result="BackgroundImageFix"/>
<feBlend mode="normal" in="SourceGraphic" in2="BackgroundImageFix" result="shape"/>
<feGaussianBlur stdDeviation="2" result="effect1_foregroundBlur_1907_1814"/>
</filter>
<filter id="filter5_f_1907_1814" x="120.5" y="40.5" width="364.5" height="614.5" filterUnits="userSpaceOnUse" color-interpolation-filters="sRGB">
<feFlood flood-opacity="0" result="BackgroundImageFix"/>
<feBlend mode="normal" in="SourceGraphic" in2="BackgroundImageFix" result="shape"/>
<feGaussianBlur stdDeviation="2" result="effect1_foregroundBlur_1907_1814"/>
</filter>
<filter id="filter6_f_1907_1814" x="104.5" y="48.5" width="364.5" height="614.5" filterUnits="userSpaceOnUse" color-interpolation-filters="sRGB">
<feFlood flood-opacity="0" result="BackgroundImageFix"/>
<feBlend mode="normal" in="SourceGraphic" in2="BackgroundImageFix" result="shape"/>
<feGaussianBlur stdDeviation="2" result="effect1_foregroundBlur_1907_1814"/>
</filter>
<radialGradient id="paint0_radial_1907_1814" cx="0" cy="0" r="1" gradientUnits="userSpaceOnUse" gradientTransform="translate(177.895 558.053) rotate(64.179) scale(32.6258)">
<stop stop-color="white" stop-opacity="0.4"/>
<stop offset="1" stop-color="#081429" stop-opacity="0"/>
</radialGradient>
<radialGradient id="paint1_radial_1907_1814" cx="0" cy="0" r="1" gradientUnits="userSpaceOnUse" gradientTransform="translate(19.8947 116.053) rotate(64.179) scale(32.6258)">
<stop stop-color="white" stop-opacity="0.4"/>
<stop offset="1" stop-color="#081429" stop-opacity="0"/>
</radialGradient>
<radialGradient id="paint2_radial_1907_1814" cx="0" cy="0" r="1" gradientUnits="userSpaceOnUse" gradientTransform="translate(623.895 334.053) rotate(64.179) scale(32.6258)">
<stop stop-color="white" stop-opacity="0.4"/>
<stop offset="1" stop-color="#081429" stop-opacity="0"/>
</radialGradient>
</defs>
</svg>
