<svg width="20" height="20" viewBox="0 0 20 20" fill="none" xmlns="http://www.w3.org/2000/svg">
<path fill-rule="evenodd" clip-rule="evenodd" d="M5.5 1.75C3.42921 1.75 1.75 3.42921 1.75 5.5V14.504C1.75 16.5728 3.42721 18.25 5.496 18.25H14.504C16.5729 18.25 18.25 16.5727 18.25 14.505V5.496C18.25 3.42721 16.5728 1.75 14.504 1.75H5.5ZM5.5 0.25H14.504C17.4012 0.25 19.75 2.59879 19.75 5.496V14.505C19.75 17.4013 17.4011 19.75 14.504 19.75H5.496C2.59879 19.75 0.25 17.4012 0.25 14.504V5.5C0.25 2.60079 2.60079 0.25 5.5 0.25Z" fill="#473B4A"/>
<path fill-rule="evenodd" clip-rule="evenodd" d="M8.34998 10.9C8.34998 10.4858 8.68576 10.15 9.09998 10.15H14.5C14.9142 10.15 15.25 10.4858 15.25 10.9C15.25 11.3142 14.9142 11.65 14.5 11.65H9.09998C8.68576 11.65 8.34998 11.3142 8.34998 10.9Z" fill="#473B4A"/>
<path fill-rule="evenodd" clip-rule="evenodd" d="M10.15 9.05502C10.15 7.17481 11.6748 5.65002 13.555 5.65002H14.5C14.9142 5.65002 15.25 5.98581 15.25 6.40002C15.25 6.81424 14.9142 7.15002 14.5 7.15002H13.555C12.5032 7.15002 11.65 8.00324 11.65 9.05502V19C11.65 19.4142 11.3142 19.75 10.9 19.75C10.4858 19.75 10.15 19.4142 10.15 19V9.05502Z" fill="#473B4A"/>
</svg>
