<svg width="32" height="32" viewBox="0 0 32 32" fill="none" xmlns="http://www.w3.org/2000/svg">
<path fill-rule="evenodd" clip-rule="evenodd" d="M20.9497 7.05026C18.2161 4.31658 13.7839 4.31658 11.0503 7.05026L10.3431 6.34315L11.0503 7.05026C8.31658 9.78392 8.31658 14.2161 11.0503 16.9498C13.7839 19.6834 18.2161 19.6834 20.9498 16.9497C23.6832 14.2163 23.6834 9.78477 20.9505 7.05103C20.9503 7.05077 20.95 7.05051 20.9497 7.05026ZM22.364 5.63604C18.8493 2.12132 13.1508 2.12132 9.63604 5.63604L22.364 5.63604ZM22.364 5.63604C25.8787 9.15077 25.8787 14.8493 22.364 18.364C18.8492 21.8787 13.1508 21.8787 9.63604 18.364C6.12132 14.8492 6.12132 9.15076 9.63604 5.63604" fill="#7E0095"/>
<path fill-rule="evenodd" clip-rule="evenodd" d="M10.6666 16.9507C11.2189 16.9507 11.6666 17.3984 11.6666 17.9507V26.382L15.5527 24.4389C15.8343 24.2981 16.1656 24.2981 16.4472 24.4389L20.3333 26.382V17.9507C20.3333 17.3984 20.781 16.9507 21.3333 16.9507C21.8856 16.9507 22.3333 17.3984 22.3333 17.9507V28C22.3333 28.3466 22.1538 28.6684 21.859 28.8506C21.5642 29.0328 21.1961 29.0494 20.8861 28.8944L16 26.4514L11.1138 28.8944C10.8039 29.0494 10.4357 29.0328 10.1409 28.8506C9.84608 28.6684 9.66663 28.3466 9.66663 28V17.9507C9.66663 17.3984 10.1143 16.9507 10.6666 16.9507Z" fill="#7E0095"/>
</svg>
