<svg width="26" height="24" viewBox="0 0 26 24" fill="none" xmlns="http://www.w3.org/2000/svg">
<path fill-rule="evenodd" clip-rule="evenodd" d="M2.87868 3.21202C4.05025 2.04045 5.94975 2.04045 7.12132 3.21202C8.29288 4.38359 8.29288 6.28309 7.12132 7.45466C5.94975 8.62623 4.05025 8.62623 2.87868 7.45466C1.70711 6.28309 1.70711 4.38359 2.87868 3.21202ZM1.46446 1.79781C3.41708 -0.154811 6.58291 -0.154811 8.53553 1.79781C9.25613 2.51841 9.71079 3.40423 9.89953 4.33334H23.6667C24.219 4.33334 24.6667 4.78105 24.6667 5.33334C24.6667 5.88562 24.219 6.33334 23.6667 6.33334H9.89953C9.7108 7.26244 9.25613 8.14827 8.53553 8.86887C6.58291 10.8215 3.41708 10.8215 1.46446 8.86887C-0.488154 6.91626 -0.488154 3.75042 1.46446 1.79781ZM23.1213 16.5454C21.9497 15.3738 20.0502 15.3738 18.8786 16.5454C18.2949 17.1291 18.002 17.8936 18 18.6586C18 18.6613 18 18.664 18 18.6667C18 18.6694 18 18.672 18 18.6747C18.002 19.4398 18.2949 20.2043 18.8786 20.788C20.0502 21.9596 21.9497 21.9596 23.1213 20.788C24.2928 19.6164 24.2928 17.7169 23.1213 16.5454ZM16.1004 19.6667C16.2891 20.5958 16.7438 21.4816 17.4644 22.2022C19.417 24.1549 22.5829 24.1549 24.5355 22.2022C26.4881 20.2496 26.4881 17.0838 24.5355 15.1312C22.5829 13.1785 19.417 13.1785 17.4644 15.1312C16.7438 15.8518 16.2892 16.7376 16.1004 17.6667H2.33333C1.78105 17.6667 1.33333 18.1144 1.33333 18.6667C1.33333 19.219 1.78105 19.6667 2.33333 19.6667H16.1004Z" fill="#A49EA5"/>
</svg>
