<svg width="461" height="663" viewBox="0 0 461 663" fill="none" xmlns="http://www.w3.org/2000/svg">
<g filter="url(#filter0_f_416_1482)">
<path d="M456.5 610.5C456.5 610.5 366.199 597.576 347.5 540.5C334.673 501.347 364.999 455.8 347.5 418.5C321.196 362.433 222.117 388.221 204 329C190.322 284.288 249.264 260.117 239 214.5C226.694 159.805 143.475 175.04 130.5 120.5C123.363 90.5 139 46 101 5" stroke="#050C18" stroke-opacity="0.2" stroke-linecap="round"/>
</g>
<g filter="url(#filter1_f_416_1482)">
<path d="M440.5 618.5C440.5 618.5 350.199 605.576 331.5 548.5C318.673 509.347 348.999 463.8 331.5 426.5C305.196 370.433 206.117 396.221 188 337C174.322 292.288 233.264 268.117 223 222.5C210.694 167.805 127.475 183.04 114.5 128.5C107.363 98.5 123 54 85 13" stroke="#050C18" stroke-opacity="0.2" stroke-linecap="round"/>
</g>
<g filter="url(#filter2_f_416_1482)">
<path d="M424.5 626.5C424.5 626.5 334.199 613.576 315.5 556.5C302.673 517.347 332.999 471.8 315.5 434.5C289.196 378.433 190.117 404.221 172 345C158.322 300.288 217.264 276.117 207 230.5C194.694 175.805 111.475 191.04 98.5 136.5C91.363 106.5 107 62 69 21" stroke="#050C18" stroke-opacity="0.2" stroke-linecap="round"/>
</g>
<g filter="url(#filter3_f_416_1482)">
<path d="M408.5 634.5C408.5 634.5 318.199 621.576 299.5 564.5C286.673 525.347 316.999 479.8 299.5 442.5C273.196 386.433 174.117 412.221 156 353C142.322 308.288 201.264 284.117 191 238.5C178.694 183.805 95.475 199.04 82.5 144.5C75.363 114.5 91 70 53 29" stroke="#050C18" stroke-opacity="0.2" stroke-linecap="round"/>
</g>
<g filter="url(#filter4_f_416_1482)">
<path d="M392.5 642.5C392.5 642.5 302.199 629.576 283.5 572.5C270.673 533.347 300.999 487.8 283.5 450.5C257.196 394.433 158.117 420.221 140 361C126.322 316.288 185.264 292.117 175 246.5C162.694 191.805 79.475 207.04 66.5 152.5C59.363 122.5 75 78 37 37" stroke="#050C18" stroke-opacity="0.2" stroke-linecap="round"/>
</g>
<g filter="url(#filter5_f_416_1482)">
<path d="M376.5 650.5C376.5 650.5 286.199 637.576 267.5 580.5C254.673 541.347 284.999 495.8 267.5 458.5C241.196 402.433 142.117 428.221 124 369C110.322 324.288 169.264 300.117 159 254.5C146.694 199.805 63.475 215.04 50.5 160.5C43.363 130.5 59 86 21 45" stroke="#050C18" stroke-opacity="0.2" stroke-linecap="round"/>
</g>
<g filter="url(#filter6_f_416_1482)">
<path d="M360.5 658.5C360.5 658.5 270.199 645.576 251.5 588.5C238.673 549.347 268.999 503.8 251.5 466.5C225.196 410.433 126.117 436.221 108 377C94.3217 332.288 153.264 308.117 143 262.5C130.694 207.805 47.475 223.04 34.5 168.5C27.363 138.5 43 94 5 53" stroke="#050C18" stroke-opacity="0.2" stroke-linecap="round"/>
</g>
<defs>
<filter id="filter0_f_416_1482" x="96.5" y="0.5" width="364.5" height="614.5" filterUnits="userSpaceOnUse" color-interpolation-filters="sRGB">
<feFlood flood-opacity="0" result="BackgroundImageFix"/>
<feBlend mode="normal" in="SourceGraphic" in2="BackgroundImageFix" result="shape"/>
<feGaussianBlur stdDeviation="2" result="effect1_foregroundBlur_416_1482"/>
</filter>
<filter id="filter1_f_416_1482" x="80.5" y="8.5" width="364.5" height="614.5" filterUnits="userSpaceOnUse" color-interpolation-filters="sRGB">
<feFlood flood-opacity="0" result="BackgroundImageFix"/>
<feBlend mode="normal" in="SourceGraphic" in2="BackgroundImageFix" result="shape"/>
<feGaussianBlur stdDeviation="2" result="effect1_foregroundBlur_416_1482"/>
</filter>
<filter id="filter2_f_416_1482" x="64.5" y="16.5" width="364.5" height="614.5" filterUnits="userSpaceOnUse" color-interpolation-filters="sRGB">
<feFlood flood-opacity="0" result="BackgroundImageFix"/>
<feBlend mode="normal" in="SourceGraphic" in2="BackgroundImageFix" result="shape"/>
<feGaussianBlur stdDeviation="2" result="effect1_foregroundBlur_416_1482"/>
</filter>
<filter id="filter3_f_416_1482" x="48.5" y="24.5" width="364.5" height="614.5" filterUnits="userSpaceOnUse" color-interpolation-filters="sRGB">
<feFlood flood-opacity="0" result="BackgroundImageFix"/>
<feBlend mode="normal" in="SourceGraphic" in2="BackgroundImageFix" result="shape"/>
<feGaussianBlur stdDeviation="2" result="effect1_foregroundBlur_416_1482"/>
</filter>
<filter id="filter4_f_416_1482" x="32.5" y="32.5" width="364.5" height="614.5" filterUnits="userSpaceOnUse" color-interpolation-filters="sRGB">
<feFlood flood-opacity="0" result="BackgroundImageFix"/>
<feBlend mode="normal" in="SourceGraphic" in2="BackgroundImageFix" result="shape"/>
<feGaussianBlur stdDeviation="2" result="effect1_foregroundBlur_416_1482"/>
</filter>
<filter id="filter5_f_416_1482" x="16.5" y="40.5" width="364.5" height="614.5" filterUnits="userSpaceOnUse" color-interpolation-filters="sRGB">
<feFlood flood-opacity="0" result="BackgroundImageFix"/>
<feBlend mode="normal" in="SourceGraphic" in2="BackgroundImageFix" result="shape"/>
<feGaussianBlur stdDeviation="2" result="effect1_foregroundBlur_416_1482"/>
</filter>
<filter id="filter6_f_416_1482" x="0.5" y="48.5" width="364.5" height="614.5" filterUnits="userSpaceOnUse" color-interpolation-filters="sRGB">
<feFlood flood-opacity="0" result="BackgroundImageFix"/>
<feBlend mode="normal" in="SourceGraphic" in2="BackgroundImageFix" result="shape"/>
<feGaussianBlur stdDeviation="2" result="effect1_foregroundBlur_416_1482"/>
</filter>
</defs>
</svg>
