<svg width="180" height="180" viewBox="0 0 180 180" fill="none" xmlns="http://www.w3.org/2000/svg">
<g filter="url(#filter0_d_1325_614)">
<circle cx="82" cy="82" r="40" fill="#EFCE1E"/>
</g>
<path d="M86.7002 88.9801H77.3002C76.8802 88.9801 76.4102 88.6501 76.2702 88.2501L72.1302 76.6701C71.5402 75.0101 72.2302 74.5001 73.6502 75.5201L77.5502 78.3101C78.2002 78.7601 78.9402 78.5301 79.2202 77.8001L80.9802 73.1101C81.5402 71.6101 82.4702 71.6101 83.0302 73.1101L84.7902 77.8001C85.0702 78.5301 85.8102 78.7601 86.4502 78.3101L90.1102 75.7001C91.6702 74.5801 92.4202 75.1501 91.7802 76.9601L87.7402 88.2701C87.5902 88.6501 87.1202 88.9801 86.7002 88.9801Z" stroke="#081429" stroke-width="1.5" stroke-linecap="round" stroke-linejoin="round"/>
<path d="M76.5 92H87.5" stroke="#081429" stroke-width="1.5" stroke-linecap="round" stroke-linejoin="round"/>
<path d="M79.5 84H84.5" stroke="#081429" stroke-width="1.5" stroke-linecap="round" stroke-linejoin="round"/>
<defs>
<filter id="filter0_d_1325_614" x="0" y="0" width="180" height="180" filterUnits="userSpaceOnUse" color-interpolation-filters="sRGB">
<feFlood flood-opacity="0" result="BackgroundImageFix"/>
<feColorMatrix in="SourceAlpha" type="matrix" values="0 0 0 0 0 0 0 0 0 0 0 0 0 0 0 0 0 0 127 0" result="hardAlpha"/>
<feOffset dx="8" dy="8"/>
<feGaussianBlur stdDeviation="25"/>
<feComposite in2="hardAlpha" operator="out"/>
<feColorMatrix type="matrix" values="0 0 0 0 0.0313726 0 0 0 0 0.0784314 0 0 0 0 0.160784 0 0 0 0.12 0"/>
<feBlend mode="normal" in2="BackgroundImageFix" result="effect1_dropShadow_1325_614"/>
<feBlend mode="normal" in="SourceGraphic" in2="effect1_dropShadow_1325_614" result="shape"/>
</filter>
</defs>
</svg>
