<svg width="14" height="14" viewBox="0 0 14 14" fill="none" xmlns="http://www.w3.org/2000/svg">
<path fill-rule="evenodd" clip-rule="evenodd" d="M6.30671 1.83371C6.56108 1.59162 6.7945 1.5 7 1.5C7.2055 1.5 7.43892 1.59162 7.69329 1.83371C7.95025 2.07824 8.2044 2.45572 8.42871 2.96043C8.55992 3.25564 8.67756 3.58683 8.77833 3.94789C8.21176 3.87302 7.61479 3.83333 7 3.83333C6.38521 3.83333 5.78824 3.87302 5.22167 3.94789C5.32244 3.58683 5.44008 3.25564 5.57129 2.96043C5.7956 2.45572 6.04975 2.07824 6.30671 1.83371ZM4.14125 4.14125C4.27503 3.55775 4.44922 3.02287 4.65748 2.55429C4.76592 2.31028 4.88534 2.08037 5.01561 1.86887C3.57427 2.42667 2.42667 3.57427 1.86887 5.01561C2.08037 4.88534 2.31028 4.76592 2.55429 4.65748C3.02287 4.44922 3.55775 4.27503 4.14125 4.14125ZM1.5 7C1.5 7.00012 1.5 7.00024 1.5 7.00035C1.50011 7.20577 1.59176 7.43906 1.83371 7.69329C2.07824 7.95025 2.45572 8.2044 2.96043 8.42871C3.25564 8.55992 3.58683 8.67756 3.94789 8.77833C3.87302 8.21176 3.83333 7.61479 3.83333 7C3.83333 6.38521 3.87302 5.78824 3.94789 5.22167C3.58683 5.32244 3.25564 5.44008 2.96043 5.57129C2.45572 5.7956 2.07824 6.04975 1.83371 6.30671C1.59162 6.56108 1.5 6.7945 1.5 7ZM4.99269 9.00731C4.89027 8.3869 4.83333 7.71072 4.83333 7C4.83333 6.28928 4.89027 5.6131 4.99269 4.99269C5.6131 4.89027 6.28928 4.83333 7 4.83333C7.71072 4.83333 8.3869 4.89027 9.00731 4.99269C9.10973 5.6131 9.16667 6.28928 9.16667 7C9.16667 7.71072 9.10973 8.3869 9.00731 9.00731C8.3869 9.10973 7.71072 9.16667 7 9.16667C6.28928 9.16667 5.6131 9.10973 4.99269 9.00731ZM4.14125 9.85875C3.55775 9.72497 3.02287 9.55078 2.55429 9.34252C2.31029 9.23408 2.08036 9.11466 1.86887 8.98439C2.42667 10.4257 3.57427 11.5733 5.01561 12.1311C4.88534 11.9196 4.76592 11.6897 4.65748 11.4457C4.44922 10.9771 4.27503 10.4422 4.14125 9.85875ZM5.22167 10.0521C5.78824 10.127 6.38521 10.1667 7 10.1667C7.61479 10.1667 8.21176 10.127 8.77833 10.0521C8.67756 10.4132 8.55992 10.7444 8.42871 11.0396C8.2044 11.5443 7.95025 11.9218 7.69329 12.1663C7.43892 12.4084 7.2055 12.5 7 12.5C6.7945 12.5 6.56108 12.4084 6.30671 12.1663C6.04975 11.9218 5.7956 11.5443 5.57129 11.0396C5.44008 10.7444 5.32244 10.4132 5.22167 10.0521ZM9.85875 9.85875C9.72497 10.4422 9.55078 10.9771 9.34252 11.4457C9.23408 11.6897 9.11466 11.9196 8.98439 12.1311C10.4257 11.5733 11.5733 10.4257 12.1311 8.98439C11.9196 9.11466 11.6897 9.23408 11.4457 9.34252C10.9771 9.55078 10.4422 9.72497 9.85875 9.85875ZM13.5 7C13.5 3.41015 10.5899 0.5 7 0.5C3.41015 0.5 0.5 3.41015 0.5 7C0.5 10.5899 3.41015 13.5 7 13.5C10.5899 13.5 13.5 10.5899 13.5 7ZM12.1311 5.01561C11.9196 4.88534 11.6897 4.76592 11.4457 4.65748C10.9771 4.44922 10.4422 4.27503 9.85875 4.14125C9.72497 3.55775 9.55078 3.02287 9.34252 2.55429C9.23408 2.31029 9.11466 2.08036 8.98439 1.86887C10.4257 2.42667 11.5733 3.57427 12.1311 5.01561ZM10.0521 5.22167C10.4132 5.32244 10.7444 5.44008 11.0396 5.57129C11.5443 5.7956 11.9218 6.04975 12.1663 6.3067C12.4084 6.56108 12.5 6.7945 12.5 7C12.5 7.2055 12.4084 7.43892 12.1663 7.69329C11.9218 7.95025 11.5443 8.2044 11.0396 8.42871C10.7444 8.55992 10.4132 8.67756 10.0521 8.77833C10.127 8.21176 10.1667 7.61479 10.1667 7C10.1667 6.38521 10.127 5.78824 10.0521 5.22167Z" fill="#473B4A"/>
</svg>
