<svg width="80" height="50" viewBox="0 0 80 50" fill="none" xmlns="http://www.w3.org/2000/svg">
<path d="M37.9506 7.17268C37.5806 7.27508 37.2172 7.39977 36.8622 7.54603C36.294 7.87638 35.8553 8.39042 35.6183 9.00349C35.3814 9.61656 35.3604 10.2921 35.5587 10.9187C35.7522 11.5499 36.1682 12.0895 36.7294 12.4374C37.1624 12.6915 37.6633 12.8059 38.1638 12.7652C38.6642 12.7244 39.14 12.5304 39.5262 12.2096C40.874 11.2478 41.1018 9.85564 40.6272 8.28003C40.4815 7.73208 40.2149 7.22372 39.847 6.7923C39.4791 6.36087 39.0192 6.01734 38.5011 5.78691C37.2545 5.24022 35.8885 5.02236 34.5336 5.15413C31.4647 5.40724 29.2879 7.11574 27.5731 9.51395C26.5764 10.8797 25.8406 12.4178 25.4027 14.0509C25.099 15.2089 24.7383 16.3479 24.4219 17.5059C24.0549 18.8157 23.7132 20.1382 23.3525 21.4544C23.0699 22.4963 22.7788 23.551 22.4793 24.6182C22.0575 26.0441 21.6715 27.4699 21.3213 28.8958C20.9923 30.1613 20.6886 31.4269 20.2962 32.6924C19.9039 33.958 19.5622 35.3564 19.1826 36.6789C18.8598 37.7926 18.5498 38.9189 18.2967 40.0452C18.1195 40.7729 17.9044 41.4879 17.7082 42.2093C17.512 42.9307 17.2779 43.7976 17.0754 44.5949C16.9299 45.1201 16.7907 45.1834 16.2592 44.9556C15.3353 44.5337 14.4283 44.0907 13.5382 43.6267C12.2569 42.9204 11.0187 42.1386 9.83018 41.2854C7.95864 39.9848 6.25792 38.4542 4.768 36.7295C3.46397 35.2503 2.38123 33.59 1.55352 31.8002C1.1899 30.9793 0.885391 30.1334 0.642327 29.2691C0.164218 27.6086 -0.0493238 25.8832 0.00955378 24.1563C0.0535465 23.3329 0.161429 22.5141 0.332255 21.7075C0.58834 20.3662 1.01358 19.0628 1.5978 17.8286C2.35284 16.2345 3.31218 14.7456 4.45161 13.3992C5.74161 11.858 7.1997 10.4657 8.79876 9.24816C10.8575 7.67217 13.0734 6.31296 15.4112 5.1921C16.6135 4.61628 17.8411 4.11638 19.0687 3.61017C20.6316 2.97739 22.2325 2.53444 23.8651 2.05353C24.6181 1.82573 25.3964 1.66754 26.162 1.49669C26.9277 1.32584 27.5225 1.24362 28.1933 1.06011C28.44 0.996836 28.7121 0.996808 28.9716 0.952514C30.7256 0.629905 32.4957 0.401806 34.2742 0.269147C36.3921 0.0698085 38.519 -0.018928 40.6462 0.00335471C42.1459 0.0539765 43.6456 0.193208 45.1516 0.262813C46.3517 0.341533 47.547 0.480904 48.7331 0.680426C49.8467 0.844947 50.9541 1.02215 52.0551 1.25627C53.1561 1.4904 54.2508 1.73083 55.3329 2.02824C57.0983 2.51547 58.8448 3.07231 60.5469 3.7304C61.8694 4.24294 63.1603 4.84409 64.4385 5.48319C66.4867 6.5036 68.4337 7.71547 70.2536 9.10263C72.3287 10.6335 74.1593 12.4704 75.6828 14.5508C76.5579 15.746 77.2985 17.0341 77.8912 18.3917C78.6955 20.1884 79.1549 22.1203 79.2454 24.0867C79.3045 25.3583 79.2153 26.6324 78.9796 27.8833C78.6264 29.6079 78.0209 31.271 77.1825 32.8189C75.9335 35.0935 74.3171 37.1461 72.3988 38.8936C71.0447 40.1081 69.5976 41.2146 68.0706 42.203C66.6592 43.1373 65.1784 43.9624 63.6412 44.6708C61.9529 45.4691 60.2205 46.1705 58.4524 46.7716C57.2438 47.1766 56.0289 47.5372 54.8077 47.8916C54.061 48.1067 53.2827 48.2649 52.5107 48.4231C51.3907 48.6446 50.2707 48.8851 49.1444 49.0559C48.018 49.2268 46.8664 49.328 45.74 49.4862C44.2973 49.695 42.8483 49.6381 41.4055 49.7266C40.089 49.8216 38.7673 49.8216 37.4507 49.7266C37.2821 49.717 37.1131 49.717 36.9445 49.7266C35.5271 49.8089 34.135 49.5052 32.7239 49.4546C32.1462 49.4029 31.5717 49.3205 31.0028 49.2078C30.2055 49.0939 29.4018 48.98 28.6109 48.8281C27.6237 48.6383 26.6366 48.4295 25.6558 48.1954C24.675 47.9612 23.7132 47.6259 22.7198 47.4423C22.6248 47.4423 22.5363 47.3917 22.4477 47.3664C21.663 47.1196 21.7516 46.8539 21.9161 46.297C22.1186 45.6643 22.2831 44.9619 22.4603 44.2911C22.859 42.8484 23.2007 41.3994 23.6373 39.963C23.8208 39.3302 23.96 38.7354 24.1182 38.1216C24.4726 36.7674 24.8269 35.407 25.2002 34.0529C25.5736 32.6987 25.8899 31.4522 26.238 30.155C26.586 28.8578 26.9087 27.7125 27.2378 26.4786C27.4656 25.618 27.6997 24.7511 27.9275 23.8842C28.1236 23.1502 28.2755 22.3972 28.5096 21.6695C28.6995 21.0747 28.7438 21.0367 29.3765 21.0367C30.1106 21.0367 30.8446 21.0367 31.5786 21.0367C31.9646 21.0367 32.0152 21.1 31.9646 21.467C31.9239 21.7646 31.8604 22.0587 31.7747 22.3466C31.4394 23.4159 31.142 24.5043 30.8699 25.5864C30.5029 26.9974 30.1802 28.4212 29.7625 29.8133C29.5284 30.5916 29.3829 31.3825 29.1297 32.1482C28.9779 32.6418 29.0728 32.781 29.5917 32.781H33.5528C34.0337 32.781 34.059 32.743 34.1856 32.2748C34.3122 31.8065 34.3754 31.4711 34.4893 31.0788C34.888 29.693 35.236 28.2883 35.603 26.8962L36.2864 24.3018C36.6408 22.9414 37.0014 21.5872 37.3368 20.2268C37.3811 20.037 37.495 19.8914 37.5456 19.7142C37.5963 19.5371 37.5456 19.3725 37.3115 19.3789H29.8764C29.2436 19.3789 29.193 19.3093 29.3765 18.6955C29.7309 17.5122 30.0093 16.3099 30.332 15.114C30.6168 14.0129 30.9648 12.9246 31.2432 11.8235C31.4647 11.0136 31.6355 10.1847 31.876 9.38105C32.0521 8.65846 32.4052 7.99098 32.9033 7.4387C33.4015 6.88643 34.0291 6.46667 34.7298 6.21719C35.1903 6.09684 35.674 6.09684 36.1345 6.21719C36.4906 6.22476 36.84 6.31503 37.1552 6.48086C37.4704 6.64668 37.7427 6.88353 37.9506 7.17268Z" fill="#3681C3"/>
<path d="M13.3231 12.6904H17.6702C18.4416 12.6715 19.2097 12.796 19.9356 13.0574C20.695 13.3179 21.3693 13.78 21.8865 14.3941C22.4037 15.0082 22.7442 15.7513 22.8716 16.544C23.026 17.5488 22.983 18.574 22.7451 19.5624C22.5543 20.59 22.2399 21.5907 21.8086 22.5427C21.4922 23.2756 21.0275 23.935 20.4438 24.4795C19.8601 25.024 19.17 25.4418 18.4169 25.7066C17.2812 26.093 16.097 26.3188 14.8987 26.3773C14.0191 26.4279 13.1333 26.4469 12.2474 26.5039C11.3615 26.5608 11.564 26.5039 11.3678 27.2062C11.0641 28.282 10.792 29.3703 10.5072 30.4587C10.3427 31.0915 10.1466 31.7242 9.98203 32.357C9.97504 32.4073 9.9582 32.4557 9.93246 32.4995C9.90672 32.5433 9.87259 32.5816 9.83203 32.6122C9.79146 32.6427 9.74528 32.665 9.6961 32.6777C9.64692 32.6904 9.59572 32.6932 9.54543 32.6861H5.19827C4.77431 32.6861 4.74268 32.6481 4.85025 32.2242C5.09071 31.2434 5.35648 30.2689 5.60959 29.2944C5.79309 28.5731 5.97025 27.8453 6.16641 27.124C6.49545 25.8584 6.85614 24.6435 7.1662 23.397C7.42564 22.3592 7.6914 21.3215 7.97615 20.2964C8.22926 19.3788 8.48869 18.4613 8.7418 17.5375C8.99491 16.6136 9.22904 15.7341 9.45684 14.8292C9.51379 14.6077 9.45683 14.5002 9.21638 14.5002H7.86226C7.45095 14.5002 7.36869 14.3863 7.46361 13.9813C7.52056 13.7472 7.60282 13.5131 7.6661 13.2789C7.81164 12.7664 7.83062 12.7347 8.35582 12.7347C9.7669 12.7347 11.178 12.7347 12.5891 12.7347H13.3231V12.6904Z" fill="#FEFFFF"/>
<path d="M61.7998 27.7758C61.82 27.8183 61.8305 27.8648 61.8305 27.9118C61.8305 27.9589 61.82 28.0053 61.7998 28.0478C61.2676 29.8312 60.0657 31.3392 58.4461 32.2558C57.7379 32.6462 56.9633 32.9015 56.1618 33.0088C55.1137 33.166 54.0489 33.1766 52.9979 33.0404C52.2559 32.9558 51.5441 32.6981 50.9199 32.2882C50.2956 31.8782 49.7763 31.3275 49.4038 30.6802C48.6782 29.4536 48.4388 27.9996 48.733 26.6051C48.9962 25.1489 49.4987 23.7463 50.22 22.4542C50.6822 21.6117 51.3074 20.8695 52.0591 20.2709C52.8109 19.6724 53.6742 19.2293 54.5988 18.9676C54.8059 18.9083 55.0176 18.8659 55.2316 18.841C56.1528 18.6618 57.09 18.577 58.0284 18.5879C59.123 18.6474 60.1629 19.0849 60.9707 19.8258C61.7785 20.5667 62.3041 21.565 62.4579 22.6503C62.6546 23.6486 62.6222 24.6784 62.3629 25.6623C62.3575 25.717 62.3575 25.7721 62.3629 25.8268C62.2744 26.4596 62.268 26.4596 61.6479 26.4596H54.4027C53.8142 26.4596 53.7699 26.4596 53.637 27.0544C53.5041 27.6492 53.2763 28.3199 53.1055 28.9527C52.957 29.4631 52.957 30.0053 53.1055 30.5157C53.4029 31.4459 54.0293 31.6926 55.0861 31.2497C55.4648 31.0715 55.7629 30.7576 55.9213 30.3701C56.1646 29.9028 56.3434 29.4048 56.4528 28.8894C56.528 28.564 56.621 28.2429 56.7313 27.9276C56.7882 27.7441 56.9211 27.7251 57.0856 27.7251H61.3821C61.5234 27.7072 61.6669 27.7246 61.7998 27.7758Z" fill="#FCFCFC"/>
<path d="M70.9119 20.9735C71.0701 20.9735 71.1207 20.8469 71.1903 20.7646C71.8541 19.9698 72.7133 19.3614 73.6835 18.9992C74.2129 18.8175 74.7876 18.8165 75.3178 18.9962C75.8479 19.176 76.3034 19.5264 76.6132 19.9927C77.045 20.6206 77.2115 21.3937 77.0764 22.1438C76.9414 22.8938 76.5156 23.5603 75.8918 23.9981C75.5999 24.1948 75.2685 24.3252 74.9209 24.3802C74.5732 24.4351 74.2177 24.4133 73.8794 24.3162C73.5411 24.2191 73.2282 24.0491 72.9625 23.8182C72.6969 23.5872 72.4851 23.3009 72.342 22.9793C72.1264 22.5595 72.026 22.0901 72.0509 21.6189C72.0641 21.5243 72.0439 21.4282 71.9939 21.3468C71.8294 21.2899 71.7598 21.4164 71.6776 21.5176C71.2572 22.0706 70.9006 22.6692 70.6145 23.3021C69.799 25.0482 69.1956 26.8858 68.8174 28.7756C68.5896 29.6994 68.2796 30.5979 68.0138 31.5154C67.9505 31.7306 67.9379 31.9584 67.8746 32.1482C67.7544 32.6038 67.7101 32.6481 67.2418 32.6481H63.1161C62.7175 32.6481 62.6352 32.5532 62.7555 32.1672C63.0086 31.3636 63.1921 30.541 63.3882 29.7247C63.654 28.7313 63.9514 27.7441 64.1982 26.7507C64.369 26.061 64.5146 25.3649 64.7234 24.6815C64.9322 23.9981 65.0145 23.416 65.2296 22.7832C65.4131 22.2896 65.5017 21.7771 65.6725 21.2835C65.7611 21.0304 65.6726 20.9292 65.4258 20.9355H64.3501C64.1033 20.9355 64.0084 20.8216 64.0526 20.5875C64.0969 20.3534 64.1222 20.0243 64.1855 19.7522C64.2741 19.3662 64.445 19.2523 64.8626 19.2523H70.7347H70.9625C71.2093 19.2523 71.2979 19.3283 71.222 19.594C71.1334 20.0496 71.0321 20.5115 70.9119 20.9735Z" fill="white"/>
<path d="M42.9874 20.9735H40.0514H39.2667C39.0769 20.9735 38.9503 20.8849 39.0073 20.7014C39.0703 20.2954 39.1742 19.8968 39.3173 19.5117C39.3996 19.3536 39.4755 19.2776 39.6464 19.284C39.9691 19.284 40.2792 19.284 40.6082 19.284H49.5936C49.7516 19.2493 49.9169 19.2765 50.0555 19.3599C50.0257 19.5573 49.9474 19.7443 49.8277 19.9041C48.5242 21.9796 47.2143 24.0571 45.8982 26.1369C45.0123 27.529 44.1138 28.9084 43.2279 30.3068C43.1203 30.4714 42.9115 30.6485 43.0317 30.851C43.1519 31.0535 43.4051 30.9966 43.6075 30.9839C44.4175 30.9333 45.2274 30.9143 46.0374 30.9206H46.4297C46.9929 30.9206 47.0182 30.9713 46.9106 31.5091C46.9106 31.642 46.8537 31.7686 46.8347 31.9014C46.7208 32.6418 46.6702 32.6924 45.9551 32.6924H37.5962C37.1786 32.6924 36.7673 32.6924 36.3307 32.6924C35.894 32.6924 35.9194 32.5658 36.0965 32.2748C36.5395 31.5597 36.9887 30.8447 37.438 30.1297L40.3614 25.4535C41.2051 24.0825 42.0488 22.7072 42.8925 21.3278C42.9404 21.2839 42.9747 21.2272 42.9916 21.1644C43.0084 21.1017 43.0069 21.0354 42.9874 20.9735Z" fill="white"/>
<path d="M13.0762 24.7195C12.0954 24.7195 12.0891 24.8018 12.3106 23.8399C12.6333 22.4225 13.0382 21.0177 13.4179 19.613C13.7976 18.2082 14.1139 16.8288 14.5569 15.462C14.5913 15.3353 14.6167 15.2063 14.6328 15.076C14.7404 14.5002 14.7657 14.4749 15.3732 14.4749C15.8784 14.4446 16.3841 14.5267 16.8539 14.7153C17.0492 14.807 17.2213 14.9418 17.3572 15.1095C17.4931 15.2771 17.5892 15.4734 17.6385 15.6835C17.738 16.0975 17.7701 16.5248 17.7334 16.949C17.6685 17.8676 17.5203 18.7783 17.2905 19.67C17.0384 20.9011 16.5874 22.083 15.9553 23.1692C15.7058 23.6233 15.3398 24.0029 14.8949 24.2687C14.45 24.5345 13.9424 24.677 13.4242 24.6815C13.2724 24.7005 13.1585 24.7131 13.0762 24.7195Z" fill="#3681C3"/>
<path d="M56.0415 24.6435C55.6302 24.6435 55.2126 24.6752 54.776 24.6435C54.3394 24.6119 54.2888 24.498 54.3774 24.1373C54.5685 23.143 54.9326 22.1899 55.4531 21.3215C55.7191 20.9099 56.1124 20.5965 56.5731 20.4293C56.7182 20.3526 56.8797 20.3119 57.0439 20.3106C57.2081 20.3093 57.3702 20.3475 57.5166 20.4219C57.6629 20.4963 57.7893 20.6048 57.8849 20.7382C57.9806 20.8716 58.0429 21.0261 58.0664 21.1886C58.1751 21.8968 58.1165 22.6205 57.8956 23.3021C57.807 23.6121 57.6994 23.9348 57.6361 24.2196C57.6307 24.2857 57.6119 24.35 57.581 24.4087C57.5501 24.4674 57.5077 24.5192 57.4563 24.5611C57.4049 24.6031 57.3456 24.6343 57.2819 24.6528C57.2183 24.6713 57.1515 24.6767 57.0856 24.6689H56.0415V24.6435Z" fill="#3882C3"/>
</svg>
