<svg width="16" height="16" viewBox="0 0 16 16" fill="none" xmlns="http://www.w3.org/2000/svg">
<path fill-rule="evenodd" clip-rule="evenodd" d="M13.9334 7.64275C14.4736 7.37679 14.9165 6.89743 15.1334 6.33334C15.3334 5.80001 15.2667 5.20001 15.0001 4.73334L13.8667 2.46667C13.5334 1.86667 12.8667 1.46667 12.2001 1.46667H3.86675C3.13342 1.46667 2.53342 1.86667 2.20008 2.46667L1.06675 4.73334C0.800082 5.26667 0.733415 5.80001 1.00008 6.40001C1.17334 6.9631 1.59988 7.41361 2.13342 7.66014V10.6667V13.4667H2.00008C1.66675 13.4667 1.46675 13.6667 1.46675 14C1.46675 14.3333 1.73342 14.5333 2.00008 14.5333H2.66574L2.66675 14.5333L2.66762 14.5333L9.33342 14.5333H13.4001L14.0001 14.5333C14.2667 14.5333 14.5334 14.3333 14.5334 14C14.5334 13.6667 14.2667 13.4667 14.0001 13.4667H13.9334V7.64275ZM3.20008 10.1333V7.86126C3.75459 7.81653 4.2964 7.49875 4.66675 7.06667C5.06675 7.53334 5.66675 7.86667 6.33342 7.86667C7.00008 7.86667 7.60008 7.53334 8.00008 7.06667C8.21563 7.31814 8.48925 7.5309 8.80008 7.67364V10.1333H3.20008ZM3.20008 11.2V13.4667H8.80008V11.2H3.20008ZM9.86675 10.6667V13.4667H12.8667V7.86223C12.2538 7.82131 11.7066 7.50201 11.3334 7.06667C10.9739 7.48617 10.4527 7.79792 9.86675 7.85666V10.6667ZM13.3636 6.73443C13.6938 6.61538 13.986 6.34389 14.1334 6.00001C14.2001 5.73334 14.2001 5.40001 14.0667 5.20001L12.9334 2.93334C12.8001 2.66667 12.5334 2.46667 12.2001 2.46667H3.86675C3.53342 2.53334 3.26675 2.66667 3.13342 2.93334L1.93342 5.20001C1.80008 5.46667 1.80008 5.80001 1.86675 6.06668C1.96559 6.41264 2.24764 6.68532 2.60423 6.80323C2.62451 6.80111 2.64535 6.80001 2.66675 6.80001C2.77937 6.80001 2.87677 6.82284 2.95638 6.86593C2.97089 6.86642 2.98546 6.86667 3.00008 6.86667C3.53342 6.86667 3.93341 6.53334 4.06675 6.00001C4.13341 5.73334 4.40008 5.53334 4.66675 5.53334C4.93341 5.53334 5.13342 5.73334 5.20008 6.00001C5.33342 6.53334 5.80008 6.86667 6.33342 6.86667C6.86675 6.86667 7.33342 6.53334 7.46675 6.00001C7.53341 5.73334 7.80008 5.53334 8.06675 5.53334C8.33342 5.53334 8.53341 5.73334 8.66675 5.93334C8.76601 6.33039 9.05002 6.6166 9.40875 6.73694C9.47483 6.74344 9.53472 6.75867 9.58776 6.782C9.65687 6.7939 9.72786 6.80001 9.80008 6.80001C10.3334 6.80001 10.6667 6.46667 10.8001 6.00001C10.8667 5.73334 11.0667 5.53334 11.3334 5.53334C11.6001 5.53334 11.8001 5.73334 11.9334 5.93334C12.0667 6.40001 12.5334 6.80001 13.0001 6.80001C13.053 6.80001 13.1059 6.79572 13.1584 6.78744C13.2187 6.75783 13.2874 6.739 13.3636 6.73443Z" fill="#A49EA5"/>
</svg>
