<svg width="128" height="49" viewBox="0 0 128 49" fill="none" xmlns="http://www.w3.org/2000/svg">
<path d="M5.73293 11.8057C1.66293 10.7057 -0.427047 8.17568 0.0729527 4.93568C0.260582 3.58814 0.922349 2.35155 1.93953 1.448C2.95671 0.544454 4.26268 0.0330571 5.62294 0.00562157C8.95294 -0.104378 10.8029 1.39563 11.6229 4.88563C11.8585 5.38884 12.0298 5.91969 12.1329 6.46564C11.6229 9.92564 10.253 11.2956 6.45296 12.1456C6.18561 12.1028 5.9359 11.9849 5.73293 11.8057Z" fill="#F05F2E"/>
<path d="M122.183 36.4857C125.493 37.3957 127.183 39.3957 127.183 42.2957C127.161 43.6215 126.692 44.9012 125.852 45.9268C125.011 46.9525 123.849 47.6639 122.553 47.9456C119.723 48.6556 117.403 47.3356 115.673 44.0256C115.131 43.1257 114.929 42.0616 115.103 41.0256C115.693 38.0256 117.363 36.2656 120.483 36.0256C121.071 36.0861 121.645 36.2415 122.183 36.4857Z" fill="#F05F2E"/>
<path d="M115.693 40.7457V44.0256C100.36 44.0256 85.0434 44.0056 69.7434 43.9656C49.3234 43.9656 28.8934 43.9656 8.47336 44.0156C6.29336 44.0156 5.6634 43.4856 5.6934 41.2756C5.8134 31.4556 5.7434 21.6257 5.6934 11.8057H6.23337C7.33337 12.9757 7.05339 14.4457 7.06339 15.8057C7.06339 23.6157 7.06339 31.4156 7.06339 39.2256C7.06339 42.3656 7.2634 42.5756 10.3234 42.5756C43.8701 42.5756 77.42 42.599 110.973 42.6456C113.003 42.6456 114.273 41.6957 115.693 40.7457Z" fill="#F7A98F"/>
<path d="M11.6533 6.59564V4.90564C12.6033 5.85564 13.8133 5.48566 14.9133 5.48566C49.1533 5.48566 83.3934 5.48566 117.633 5.48566C118.773 5.48566 119.923 5.48566 121.063 5.55566C121.116 5.72167 121.105 5.90153 121.03 6.0592C120.956 6.21687 120.825 6.34065 120.663 6.40564C119.325 6.85031 117.906 7.00041 116.503 6.84564C82.3334 6.84564 48.1633 6.84564 13.9933 6.84564C13.2045 6.93803 12.4049 6.85261 11.6533 6.59564Z" fill="#F8A184"/>
<path d="M121.063 6.05566V5.55566C122.063 6.26566 121.583 7.32564 121.583 8.21564C121.583 16.6356 121.583 25.0556 121.583 33.4756C121.583 34.4756 121.333 35.5956 122.153 36.4756H120.473C120.189 35.6471 120.097 34.765 120.203 33.8956C120.203 25.8956 120.203 17.9957 120.203 10.0457C120.263 8.68565 120.033 7.23566 121.063 6.05566Z" fill="#F7A997"/>
<path d="M121.063 6.05564C121.063 15.289 121.063 24.5223 121.063 33.7556C121.063 34.6956 121.243 35.6856 120.493 36.4856C119.346 36.6019 118.264 37.0758 117.401 37.8402C116.538 38.6046 115.937 39.621 115.683 40.7456C115.473 43.3956 113.773 43.4856 111.583 43.4756C77.496 43.4156 43.4027 43.4156 9.30273 43.4756C6.98273 43.4756 6.13274 43.0256 6.18274 40.4756C6.34274 30.9056 6.25275 21.3356 6.26275 11.7656C8.90275 10.9056 11.2627 9.76558 11.6427 6.56558C11.9432 6.30781 12.298 6.12096 12.6805 6.01883C13.0631 5.9167 13.4637 5.90194 13.8527 5.97562L121.063 6.05564Z" fill="white"/>
<path d="M53.9834 24.4257C53.9834 21.2657 54.0434 18.1156 53.9834 14.9556C53.9834 13.4656 54.1934 12.7057 55.9834 12.8057C58.7934 12.9657 61.6234 12.8057 64.4234 12.9357C66.6734 13.0657 68.8634 13.6557 69.7834 16.0557C70.7034 18.4557 70.6734 20.8857 68.7834 22.9357C68.2234 23.5457 67.7034 23.8257 68.7234 24.6757C71.2334 26.7757 71.0734 29.6757 70.2734 32.4257C69.5234 35.0357 67.3934 36.1157 64.8434 36.2457C61.7734 36.4057 58.6934 36.3357 55.6134 36.4357C54.2834 36.4857 53.9934 35.8657 54.0134 34.6857C54.0134 31.2657 53.9834 27.8457 53.9834 24.4257Z" fill="#F05F2E"/>
<path d="M12.683 24.6256C12.683 21.3756 12.763 18.1356 12.683 14.8956C12.623 13.2956 13.063 12.7956 14.683 12.7956C19.313 12.7956 19.313 12.7256 19.313 17.2956C19.3581 18.0817 19.3581 18.8696 19.313 19.6556C19.093 21.4956 19.583 22.2756 21.703 22.2756C23.823 22.2756 23.873 21.1856 23.793 19.6656C23.8515 18.4424 23.8348 17.2168 23.743 15.9956C23.263 13.1956 24.533 12.8256 27.043 12.7356C29.863 12.6256 30.313 13.5956 30.243 16.0956C30.063 22.0956 30.093 28.0256 30.243 33.9856C30.243 35.9356 29.773 36.7456 27.763 36.4456C26.8853 36.3555 26.0007 36.3555 25.123 36.4456C24.123 36.5056 23.753 36.0156 23.773 35.0356C23.773 33.3656 23.713 31.6956 23.773 30.0356C23.833 28.3756 23.773 27.5056 21.643 27.5056C19.513 27.5056 19.053 28.2356 19.273 30.0856C19.403 31.0856 19.153 32.2156 19.273 33.2356C19.753 36.0156 18.513 36.4856 15.953 36.5456C13.123 36.6256 12.343 35.7456 12.573 33.0556C12.803 30.3656 12.683 27.4256 12.683 24.6256Z" fill="#F05F2E"/>
<path d="M50.7135 22.2957C50.7135 24.7557 50.7935 27.2056 50.7135 29.6656C50.5235 33.9556 48.0335 36.4056 43.7135 36.6656C42.4845 36.7357 41.2525 36.7357 40.0235 36.6656C36.1035 36.4056 33.7035 34.2956 33.5435 30.4056C33.3235 25.0656 33.4935 19.7056 33.4335 14.3556C33.4335 13.1856 33.9135 12.9357 35.0035 12.8657C40.1435 12.5257 40.1435 12.4856 40.1435 17.5656C40.1435 21.1656 40.1435 24.7656 40.1435 28.3556C40.1435 29.8456 40.4135 30.9757 42.2735 30.9357C44.1335 30.8957 44.2735 29.7157 44.2735 28.4257C44.2735 23.9557 44.3735 19.4856 44.2735 15.0156C44.2735 13.2456 44.8035 12.8356 46.4935 12.8556C50.7935 12.9156 50.7935 12.8556 50.7935 17.0856L50.7135 22.2957Z" fill="#F05E2E"/>
<path d="M99.7129 13.1056C99.8861 13.036 100.063 12.9759 100.243 12.9257C106.573 12.4757 106.573 12.4756 107.953 18.5156C108.073 19.0156 108.263 19.5157 108.503 20.2357C109.29 18.6617 109.746 16.943 109.843 15.1857C110.093 13.2957 110.843 12.6056 112.723 12.8156C114.205 12.8917 115.691 12.8917 117.173 12.8156C115.923 16.5156 114.903 20.0256 113.563 23.4156C112.153 26.9656 111.153 30.5256 111.563 34.4156C111.743 36.0156 111.193 36.5057 109.563 36.4857C105.183 36.4857 105.013 36.5357 105.233 32.3057C105.413 28.6457 103.793 25.5256 102.773 22.2156C101.823 19.1456 100.733 16.1256 99.7129 13.1056Z" fill="#F05E2E"/>
<path d="M72.923 24.4357C72.923 21.1857 73.003 17.9357 72.923 14.6857C72.863 13.1557 73.413 12.7656 74.863 12.8156C78.033 12.9156 81.2131 12.8856 84.3831 12.8156C85.6831 12.8156 86.463 13.0156 85.963 14.5356C85.9574 14.6222 85.9574 14.7091 85.963 14.7956C85.583 18.6056 85.5831 18.6156 81.6831 18.6456C80.4331 18.6456 79.323 18.4156 79.353 20.4156C79.383 22.4156 80.353 22.2756 81.653 22.2756C84.393 22.2756 85.373 23.7256 84.533 26.2756C84.123 27.5656 83.053 27.1356 82.343 27.0256C79.813 26.6556 79.093 27.7556 79.403 30.0256C79.4732 30.991 79.4732 31.9603 79.403 32.9256C79.403 36.3256 79.403 36.1856 75.853 36.3756C73.603 36.4956 72.713 35.9756 72.853 33.5456C73.053 30.5956 72.923 27.5057 72.923 24.4357Z" fill="#F05E2E"/>
<path d="M87.5435 24.5557C87.5435 21.3057 87.6435 18.0556 87.5435 14.8156C87.4735 13.1256 88.0834 12.8156 89.6434 12.8156C94.0634 12.8156 94.0635 12.8157 94.0635 17.2357C94.0635 21.1757 94.1535 25.1256 94.0635 29.0656C94.0035 30.8256 94.5734 31.4956 96.2834 31.2256C96.5421 31.1555 96.8148 31.1555 97.0735 31.2256C98.0135 31.6856 100.073 30.0556 99.8735 32.5756C99.7135 34.3156 100.443 36.8656 96.9835 36.4756C94.6141 36.2806 92.2328 36.2806 89.8635 36.4756C88.1935 36.5556 87.4935 36.1357 87.5735 34.3057C87.6535 31.0457 87.5435 27.7957 87.5435 24.5557Z" fill="#F05E2E"/>
<path d="M60.5127 29.3657C61.1527 28.4757 59.6426 26.5856 61.8926 26.6256C63.7126 26.6256 63.8027 28.1657 63.8427 29.4857C63.8827 30.8057 63.5627 32.3056 61.8427 32.2056C59.6827 32.0956 61.1627 30.2657 60.5127 29.3657Z" fill="#FEF3EE"/>
<path d="M60.5928 20.3557C60.9528 19.5457 59.9828 18.1556 61.6828 18.1256C63.3828 18.0956 63.4028 19.2657 63.4028 20.4857C63.4028 21.7057 63.4028 22.9256 61.7628 22.8756C59.6628 22.8156 61.1628 21.1057 60.5928 20.3557Z" fill="#FFF9F7"/>
</svg>
