<svg width="20" height="20" viewBox="0 0 20 20" fill="none" xmlns="http://www.w3.org/2000/svg">
<path fill-rule="evenodd" clip-rule="evenodd" d="M5.496 1.75C3.42632 1.75 1.75 3.4271 1.75 5.496V14.504C1.75 16.5737 3.4271 18.25 5.496 18.25H14.504C16.5738 18.25 18.25 16.5728 18.25 14.505V5.496C18.25 3.42621 16.5728 1.75 14.505 1.75H5.496ZM5.496 0.25H14.505C17.4012 0.25 19.75 2.59779 19.75 5.496V14.505C19.75 17.4012 17.4022 19.75 14.504 19.75H5.496C2.59889 19.75 0.25 17.4023 0.25 14.504V5.496C0.25 2.59889 2.59768 0.25 5.496 0.25Z" fill="#473B4A"/>
<path fill-rule="evenodd" clip-rule="evenodd" d="M12.0153 7.98477C10.9023 6.87178 9.09777 6.87178 7.98477 7.98477C6.87178 9.09777 6.87178 10.9023 7.98477 12.0153C9.09777 13.1283 10.9023 13.1283 12.0153 12.0153C13.1283 10.9023 13.1283 9.09777 12.0153 7.98477ZM13.0759 6.92411C11.3772 5.22533 8.6229 5.22533 6.92411 6.92411C5.22533 8.6229 5.22533 11.3772 6.92411 13.0759C8.6229 14.7747 11.3772 14.7747 13.0759 13.0759C14.7747 11.3772 14.7747 8.6229 13.0759 6.92411Z" fill="#473B4A"/>
<circle cx="15" cy="5" r="1" fill="#473B4A"/>
</svg>
