<svg width="180" height="180" viewBox="0 0 180 180" fill="none" xmlns="http://www.w3.org/2000/svg">
<g filter="url(#filter0_d_1325_1137)">
<circle cx="82" cy="82" r="40" fill="#EFCE1E"/>
</g>
<path d="M89.0598 88.67L86.9198 84.4L84.7798 88.67" stroke="#081429" stroke-width="1.5" stroke-linecap="round" stroke-linejoin="round"/>
<path d="M85.1699 87.9099H88.6899" stroke="#081429" stroke-width="1.5" stroke-linecap="round" stroke-linejoin="round"/>
<path d="M86.9198 92.0001C84.1198 92.0001 81.8398 89.73 81.8398 86.92C81.8398 84.12 84.1098 81.8401 86.9198 81.8401C89.7198 81.8401 91.9998 84.11 91.9998 86.92C91.9998 89.73 89.7298 92.0001 86.9198 92.0001Z" stroke="#081429" stroke-width="1.5" stroke-linecap="round" stroke-linejoin="round"/>
<path d="M75.02 72H78.94C81.01 72 82.01 73 81.96 75.02V78.94C82.01 81.01 81.01 82.01 78.94 81.96H75.02C73 82 72 81 72 78.93V75.01C72 73 73 72 75.02 72Z" stroke="#081429" stroke-width="1.5" stroke-linecap="round" stroke-linejoin="round"/>
<path d="M79.0097 75.8499H74.9497" stroke="#081429" stroke-width="1.5" stroke-linecap="round" stroke-linejoin="round"/>
<path d="M76.9697 75.1699V75.8499" stroke="#081429" stroke-width="1.5" stroke-linecap="round" stroke-linejoin="round"/>
<path d="M77.9899 75.84C77.9899 77.59 76.6199 79.0099 74.9399 79.0099" stroke="#081429" stroke-width="1.5" stroke-linecap="round" stroke-linejoin="round"/>
<path d="M79.0101 79.01C78.2801 79.01 77.6202 78.62 77.1602 78" stroke="#081429" stroke-width="1.5" stroke-linecap="round" stroke-linejoin="round"/>
<path d="M72 85C72 88.87 75.13 92 79 92L77.95 90.25" stroke="#081429" stroke-width="1.5" stroke-linecap="round" stroke-linejoin="round"/>
<path d="M92 79C92 75.13 88.87 72 85 72L86.05 73.75" stroke="#081429" stroke-width="1.5" stroke-linecap="round" stroke-linejoin="round"/>
<defs>
<filter id="filter0_d_1325_1137" x="0" y="0" width="180" height="180" filterUnits="userSpaceOnUse" color-interpolation-filters="sRGB">
<feFlood flood-opacity="0" result="BackgroundImageFix"/>
<feColorMatrix in="SourceAlpha" type="matrix" values="0 0 0 0 0 0 0 0 0 0 0 0 0 0 0 0 0 0 127 0" result="hardAlpha"/>
<feOffset dx="8" dy="8"/>
<feGaussianBlur stdDeviation="25"/>
<feComposite in2="hardAlpha" operator="out"/>
<feColorMatrix type="matrix" values="0 0 0 0 0.0313726 0 0 0 0 0.0784314 0 0 0 0 0.160784 0 0 0 0.12 0"/>
<feBlend mode="normal" in2="BackgroundImageFix" result="effect1_dropShadow_1325_1137"/>
<feBlend mode="normal" in="SourceGraphic" in2="effect1_dropShadow_1325_1137" result="shape"/>
</filter>
</defs>
</svg>
