<svg width="16" height="16" viewBox="0 0 16 16" fill="none" xmlns="http://www.w3.org/2000/svg">
<path d="M7.99992 14.6667C11.6818 14.6667 14.6666 11.6819 14.6666 8.00004C14.6666 4.31814 11.6818 1.33337 7.99992 1.33337C4.31802 1.33337 1.33325 4.31814 1.33325 8.00004C1.33325 11.6819 4.31802 14.6667 7.99992 14.6667Z" fill="#F0F0F0"/>
<path d="M7.99978 1.33337C5.35671 1.33337 3.07296 2.87152 1.99463 5.1015H14.0049C12.9266 2.87152 10.6428 1.33337 7.99978 1.33337Z" fill="#D80027"/>
<path d="M7.99978 14.6667C10.6428 14.6667 12.9266 13.1285 14.0049 10.8986H1.99463C3.07296 13.1285 5.35671 14.6667 7.99978 14.6667Z" fill="#D80027"/>
<path d="M9.73902 9.15948L7.99988 5.97107L6.26074 9.15948H7.56509V10.029H8.43468V9.15948H9.73902Z" fill="#6DA544"/>
</svg>
