<svg width="20" height="20" viewBox="0 0 20 20" fill="none" xmlns="http://www.w3.org/2000/svg">
<path fill-rule="evenodd" clip-rule="evenodd" d="M5.5 1.75C3.42921 1.75 1.75 3.42921 1.75 5.5V14.504C1.75 16.5728 3.42721 18.25 5.496 18.25H14.504C16.5729 18.25 18.25 16.5727 18.25 14.505V5.496C18.25 3.42721 16.5728 1.75 14.504 1.75H5.5ZM5.5 0.25H14.504C17.4012 0.25 19.75 2.59879 19.75 5.496V14.505C19.75 17.4013 17.4011 19.75 14.504 19.75H5.496C2.59879 19.75 0.25 17.4012 0.25 14.504V5.5C0.25 2.60079 2.60079 0.25 5.5 0.25Z" fill="#473B4A"/>
<path fill-rule="evenodd" clip-rule="evenodd" d="M6.12 8.34998C6.53421 8.34998 6.87 8.68576 6.87 9.09998V14.5C6.87 14.9142 6.53421 15.25 6.12 15.25C5.70578 15.25 5.37 14.9142 5.37 14.5V9.09998C5.37 8.68576 5.70578 8.34998 6.12 8.34998Z" fill="#473B4A"/>
<path fill-rule="evenodd" clip-rule="evenodd" d="M11.969 9.84998C11.1402 9.84998 10.469 10.5212 10.469 11.35V14.5C10.469 14.9142 10.1332 15.25 9.71899 15.25C9.30478 15.25 8.96899 14.9142 8.96899 14.5V11.35C8.96899 9.69276 10.3118 8.34998 11.969 8.34998C13.6262 8.34998 14.969 9.69276 14.969 11.35V14.5C14.969 14.9142 14.6332 15.25 14.219 15.25C13.8048 15.25 13.469 14.9142 13.469 14.5V11.35C13.469 10.5212 12.7978 9.84998 11.969 9.84998Z" fill="#473B4A"/>
<path d="M6.11805 5.08801C5.58202 5.08801 5.14132 5.52334 5.14406 6.06604C5.14569 6.60286 5.58185 7.03801 6.11905 7.03801C6.65726 7.03801 7.09405 6.60123 7.09405 6.06301C7.09405 5.51947 6.65292 5.08801 6.11805 5.08801Z" fill="#473B4A"/>
</svg>
