<svg width="16" height="16" viewBox="0 0 16 16" fill="none" xmlns="http://www.w3.org/2000/svg">
<path fill-rule="evenodd" clip-rule="evenodd" d="M3.83325 6.66667C3.83325 4.36548 5.69873 2.5 7.99992 2.5C10.3011 2.5 12.1666 4.36548 12.1666 6.66667C12.1666 8.22559 11.1085 9.93866 9.94961 11.3252C9.382 12.0043 8.81299 12.5785 8.38539 12.9832C8.23763 13.1231 8.10714 13.2423 7.99992 13.3382C7.89269 13.2423 7.76221 13.1231 7.61444 12.9832C7.18684 12.5785 6.61783 12.0043 6.05023 11.3252C4.89134 9.93866 3.83325 8.22559 3.83325 6.66667ZM7.99992 14C7.68255 14.3864 7.68245 14.3863 7.68233 14.3862L7.99992 14ZM7.68102 14.3851L7.68233 14.3862C7.86678 14.5377 8.13283 14.5379 8.31729 14.3864L8.00055 14.0008C8.31729 14.3864 8.31772 14.386 8.31784 14.3859L8.31882 14.3851L8.32204 14.3824L8.33344 14.373L8.37536 14.3377C8.41151 14.3071 8.46372 14.2625 8.52969 14.2047C8.6616 14.0893 8.84876 13.9215 9.07278 13.7095C9.52018 13.2861 10.1178 12.6832 10.7169 11.9665C11.8913 10.5613 13.1666 8.60774 13.1666 6.66667C13.1666 3.81319 10.8534 1.5 7.99992 1.5C5.14644 1.5 2.83325 3.81319 2.83325 6.66667C2.83325 8.60774 4.1085 10.5613 5.28294 11.9665C5.882 12.6832 6.47966 13.2861 6.92706 13.7095C7.15108 13.9215 7.33824 14.0893 7.47015 14.2047C7.53612 14.2625 7.58833 14.3071 7.62448 14.3377L7.6664 14.373L7.6778 14.3824L7.68102 14.3851ZM6.49992 6.66667C6.49992 5.83814 7.17139 5.16667 7.99992 5.16667C8.82844 5.16667 9.49992 5.83814 9.49992 6.66667C9.49992 7.49519 8.82844 8.16667 7.99992 8.16667C7.17139 8.16667 6.49992 7.49519 6.49992 6.66667ZM7.99992 4.16667C6.61911 4.16667 5.49992 5.28586 5.49992 6.66667C5.49992 8.04748 6.61911 9.16667 7.99992 9.16667C9.38073 9.16667 10.4999 8.04748 10.4999 6.66667C10.4999 5.28586 9.38073 4.16667 7.99992 4.16667Z" fill="#A49EA5"/>
</svg>
