<svg width="99" height="72" viewBox="0 0 99 72" fill="none" xmlns="http://www.w3.org/2000/svg">
<g clip-path="url(#clip0_1_17409)">
<path d="M86.5165 41.628C86.5355 42.0594 86.4653 42.4901 86.3102 42.893C86.1551 43.2959 85.9185 43.6624 85.6151 43.9693C85.3118 44.2763 84.9484 44.5172 84.5476 44.6768C84.1469 44.8364 83.7175 44.9114 83.2865 44.8969C81.5841 44.8969 80.5425 43.8185 80.5425 42.0449C80.5469 41.6264 80.6342 41.2128 80.7994 40.8283C80.9646 40.4438 81.2043 40.0959 81.5047 39.8048C81.8052 39.5137 82.1603 39.2851 82.5495 39.1324C82.9388 38.9797 83.3545 38.9058 83.7725 38.915C84.1346 38.8972 84.4965 38.9549 84.8352 39.0845C85.1739 39.214 85.4821 39.4127 85.7401 39.6677C85.998 39.9228 86.2003 40.2288 86.3339 40.5662C86.4676 40.9037 86.5297 41.2653 86.5165 41.628Z" fill="#FF7400"/>
<path d="M24.7569 48.8615C25.7298 47.6441 26.2517 47.0879 27.0148 46.6013C27.8803 46.0204 28.8913 45.6945 29.9326 45.6606C33.1977 45.6606 34.9 47.9558 34.6912 52.129C34.5173 56.0585 32.9893 59.3274 30.5912 61.101C28.9036 62.377 26.7832 62.9389 24.686 62.6659C24.2692 62.5966 23.7831 62.5269 23.1912 62.4226L22.0449 70.0036H16.7329L18.1918 60.3014C17.3758 59.5533 16.6631 58.6996 16.0726 57.7628L17.4624 53.868C17.8488 54.5901 18.3148 55.2666 18.8516 55.8849L20.5881 44.3047L25.5205 43.6441L24.7569 48.8615ZM23.8173 58.2161C24.3843 58.42 24.9875 58.5029 25.5884 58.4594C26.9781 58.355 27.9506 57.5901 28.5758 56.0944C29.0968 54.8535 29.3227 53.5083 29.2357 52.1649C29.1315 50.9476 28.5062 50.287 27.57 50.3563C26.4934 50.4606 25.7985 51.052 24.6176 52.8602L23.8173 58.2161Z" fill="#610073"/>
<path d="M40.2834 62.2152H34.9692L39.4066 31.9386H44.7212L40.2834 62.2152Z" fill="#610073"/>
<path d="M58.3459 55.4338L58.2071 56.6857C57.9637 58.5983 58.3809 59.1897 59.8727 59.0849L58.9003 62.3538C57.9767 62.5553 57.0311 62.6372 56.0866 62.5975C54.0721 62.4931 52.9604 61.3802 52.9604 59.5373C51.3644 61.9022 50.0098 62.736 47.8214 62.736C44.5218 62.736 42.5764 59.9195 42.9236 55.6766C43.2017 52.1991 44.6606 49.3484 47.0919 47.6086C48.8577 46.3465 50.9666 45.6549 53.136 45.6263C55.3555 45.6416 57.559 46.0054 59.666 46.7043L58.3459 55.4338ZM53.865 50.0437C53.6961 49.9881 53.5212 49.953 53.3439 49.9394C52.2958 49.7772 51.2256 50.0264 50.3565 50.635C49.3149 51.5043 48.5163 53.2779 48.342 55.0862C48.1678 56.8944 48.7934 57.9377 50.0439 58.0078C51.0164 58.0771 51.8154 57.4165 53.0309 55.6429L53.865 50.0437Z" fill="#610073"/>
<path d="M66.5432 45.6965C66.8782 46.028 67.1431 46.4236 67.3221 46.8597C67.5012 47.2958 67.5909 47.7635 67.5857 48.235V49.2783C68.1703 48.3781 68.8976 47.5793 69.739 46.9134C70.7468 46.1394 71.9775 45.7124 73.2475 45.696C75.9565 45.696 77.5892 47.3307 77.4154 49.8342C77.3808 50.3212 77.3112 50.9459 77.207 51.6775L75.6092 62.2144H70.2947L71.684 53.1377C71.7536 52.5818 71.8232 52.1294 71.8232 51.8511C71.8578 50.9818 71.3017 50.3905 70.5031 50.4948C69.3222 50.6338 68.4886 51.3987 67.2381 53.555L65.9526 62.2139H60.6384L62.0623 52.6156C62.1665 52.0597 62.2361 51.3983 62.3057 50.5987C62.3996 49.8958 62.4345 49.1862 62.4099 48.4775C62.3799 47.8999 62.2384 47.3336 61.9931 46.8099L66.5432 45.6965Z" fill="#610073"/>
<path d="M83.1468 62.2152H77.8326L80.229 46.1142H85.5436L83.1468 62.2152Z" fill="#610073"/>
<path d="M98.1523 50.0086H94.0211L93.2566 55.1203C93.1848 55.5688 93.15 56.0224 93.1525 56.4766C93.1525 57.694 93.8123 58.3546 95.0628 58.4243C95.8 58.4582 96.5356 58.3275 97.2161 58.0416L98.1886 61.2407C96.6938 62.284 95.0282 62.7014 92.4922 62.7014C89.4706 62.7014 87.421 60.7542 87.5949 58.007C87.6295 57.3459 87.7337 56.5463 87.8729 55.6069L88.7061 50.0082H84.9628L85.5445 46.1138C90.2146 46.0402 90.9256 45.522 92.8048 41.2795H95.3024L94.6079 46.1133H98.7412L98.1523 50.0086Z" fill="#610073"/>
<path d="M52.4897 25.2196C52.5179 25.2444 52.5444 25.2705 52.5713 25.297C52.5444 25.2705 52.5179 25.2444 52.4897 25.2196Z" fill="#FF7400"/>
<path d="M51.4503 28.9485C51.4157 28.955 51.3811 28.9597 51.3461 28.9644C51.3811 28.9597 51.4157 28.955 51.4503 28.9485Z" fill="#FF7400"/>
<path d="M51.6497 28.9032C51.6203 28.9113 51.59 28.919 51.5601 28.9259C51.59 28.9182 51.6203 28.9109 51.6497 28.9032Z" fill="#FF7400"/>
<path d="M51.8431 28.8383C51.8175 28.8481 51.7923 28.8571 51.7662 28.8661C51.7919 28.8571 51.8175 28.8494 51.8431 28.8383Z" fill="#FF7400"/>
<path d="M52.1554 24.9763C52.1883 24.996 52.2199 25.0169 52.2515 25.0379C52.2199 25.0169 52.1883 24.996 52.1554 24.9763Z" fill="#FF7400"/>
<path d="M52.3279 25.0896C52.3591 25.1123 52.3894 25.1366 52.4189 25.1606C52.3894 25.1366 52.3595 25.1123 52.3279 25.0896Z" fill="#FF7400"/>
<path d="M51.9717 24.8806C52.0041 24.8955 52.0357 24.9122 52.0673 24.9289C52.0357 24.9122 52.0041 24.8955 51.9717 24.8806Z" fill="#FF7400"/>
<path d="M51.7787 24.8019C51.8094 24.813 51.8389 24.825 51.8688 24.8374C51.8385 24.8254 51.809 24.813 51.7787 24.8019Z" fill="#FF7400"/>
<path d="M51.5745 24.7429C51.6026 24.7497 51.6304 24.7582 51.6599 24.7664C51.6304 24.757 51.6026 24.7484 51.5745 24.7429Z" fill="#FF7400"/>
<path d="M53.1957 27.1416C53.1957 27.1351 53.1957 27.1283 53.1957 27.1219C53.1918 27.1501 53.1863 27.1779 53.1812 27.2074C53.1867 27.1843 53.1923 27.1634 53.1957 27.1416Z" fill="#FF7400"/>
<path d="M53.0194 27.7333C53.0061 27.7624 52.9908 27.7915 52.9767 27.8189C52.9908 27.7915 53.0061 27.7624 53.0194 27.7333Z" fill="#FF7400"/>
<path d="M52.9241 27.9164C52.907 27.9455 52.8887 27.9737 52.8707 28.0019C52.8891 27.9737 52.9092 27.9455 52.9241 27.9164Z" fill="#FF7400"/>
<path d="M53.1569 27.3365C53.1504 27.3639 53.1419 27.39 53.1346 27.4169C53.1419 27.39 53.1504 27.3618 53.1569 27.3365Z" fill="#FF7400"/>
<path d="M52.0303 28.7552C52.0076 28.7664 51.985 28.7771 51.9619 28.7873C51.985 28.7771 52.0076 28.7664 52.0303 28.7552Z" fill="#FF7400"/>
<path d="M52.8117 28.0891C52.7921 28.116 52.7716 28.1421 52.7511 28.1682C52.7716 28.1421 52.7925 28.116 52.8117 28.0891Z" fill="#FF7400"/>
<path d="M53.0971 27.5401C53.0873 27.5683 53.0757 27.5961 53.0651 27.6256C53.0757 27.5961 53.0873 27.5687 53.0971 27.5401Z" fill="#FF7400"/>
<path d="M52.6823 28.2512C52.6618 28.2747 52.6396 28.2973 52.6183 28.3204C52.6401 28.2973 52.6618 28.2747 52.6823 28.2512Z" fill="#FF7400"/>
<path d="M52.38 28.5351C52.3591 28.5513 52.3373 28.5667 52.3156 28.5826C52.3373 28.5667 52.3587 28.5513 52.38 28.5351Z" fill="#FF7400"/>
<path d="M52.2096 28.6539C52.1883 28.6672 52.1669 28.6796 52.1451 28.6924C52.1669 28.6796 52.1883 28.6672 52.2096 28.6539Z" fill="#FF7400"/>
<path d="M52.5381 28.4004C52.5167 28.4201 52.4954 28.4393 52.4731 28.4585C52.4954 28.4393 52.5171 28.4201 52.5381 28.4004Z" fill="#FF7400"/>
<path d="M51.2427 28.9755C51.2047 28.9785 51.1667 28.9802 51.1287 28.981C51.1671 28.9802 51.2055 28.9785 51.2427 28.9755Z" fill="#FF7400"/>
<path d="M52.7733 25.5236C52.7934 25.5497 52.8118 25.5771 52.8306 25.604C52.8118 25.5771 52.7934 25.5497 52.7733 25.5236Z" fill="#FF7400"/>
<path d="M53.0762 26.0662C53.0881 26.097 53.098 26.1291 53.1082 26.1607C53.098 26.1291 53.0881 26.097 53.0762 26.0662Z" fill="#FF7400"/>
<path d="M53.2158 26.8987C53.2158 26.9351 53.2111 26.9702 53.2081 27.0061C53.2111 26.9702 53.2133 26.9355 53.2158 26.8987Z" fill="#FF7400"/>
<path d="M52.9933 25.8763C53.007 25.9041 53.0193 25.9328 53.0322 25.9619C53.0198 25.9328 53.007 25.9046 52.9933 25.8763Z" fill="#FF7400"/>
<path d="M53.2115 26.6785C53.2145 26.7213 53.2145 26.7641 53.2154 26.8068C53.2145 26.7653 53.2145 26.7217 53.2115 26.6785Z" fill="#FF7400"/>
<path d="M52.8921 25.6951C52.9083 25.7216 52.9237 25.7489 52.9386 25.7763C52.9237 25.7489 52.9083 25.7216 52.8921 25.6951Z" fill="#FF7400"/>
<path d="M52.6379 25.3646C52.6619 25.3902 52.6845 25.4171 52.7071 25.4445C52.6853 25.4171 52.6627 25.3902 52.6379 25.3646Z" fill="#FF7400"/>
<path d="M53.1406 26.2633C53.1504 26.2992 53.1577 26.3351 53.1658 26.3719C53.1577 26.3347 53.1504 26.2988 53.1406 26.2633Z" fill="#FF7400"/>
<path d="M53.1859 26.4673C53.1927 26.5079 53.1975 26.549 53.2022 26.5904C53.1975 26.5481 53.1927 26.5079 53.1859 26.4673Z" fill="#FF7400"/>
<path d="M2.38989 0.0140991C2.4232 0.0179474 2.45652 0.0217981 2.48983 0.0273566C2.45652 0.0217981 2.42363 0.0179474 2.38989 0.0140991Z" fill="#D4145A"/>
<path d="M2.78967 0.0987549C2.82299 0.109444 2.8563 0.120135 2.88961 0.132107C2.8563 0.120135 2.82341 0.109444 2.78967 0.0987549Z" fill="#D4145A"/>
<path d="M2.59155 0.0470581C2.62529 0.054327 2.65904 0.0615897 2.69235 0.0701413C2.65904 0.0615897 2.62529 0.054327 2.59155 0.0470581Z" fill="#D4145A"/>
<path d="M1.97693 0.00727448C2.01024 0.00470899 2.04356 0.00213724 2.07687 0.000854492C2.04356 0.00213724 2.00853 0.00470899 1.97693 0.00727448Z" fill="#D4145A"/>
<path d="M2.18445 0.000854492C2.21776 0.000854492 2.25108 0.000852613 2.28439 0.00427326C2.25108 0.00213536 2.21776 0.00128207 2.18445 0.000854492Z" fill="#D4145A"/>
<path d="M1.3573 0.151765C1.39147 0.138083 1.42563 0.124399 1.45979 0.112854C1.42563 0.124826 1.39147 0.138083 1.3573 0.151765Z" fill="#D4145A"/>
<path d="M1.5614 0.0821118C1.59514 0.0722774 1.62929 0.062445 1.66345 0.0547485C1.62929 0.062445 1.59514 0.072705 1.5614 0.0821118Z" fill="#D4145A"/>
<path d="M1.76892 0.0337628C1.80223 0.0277766 1.83596 0.0217929 1.8697 0.0175171C1.83553 0.0217929 1.80181 0.0277766 1.76892 0.0337628Z" fill="#D4145A"/>
<path d="M3.81592 0.796997C3.83813 0.823507 3.8586 0.850449 3.88038 0.878669C3.85988 0.850449 3.83813 0.823507 3.81592 0.796997Z" fill="#D4145A"/>
<path d="M4.11958 1.26305C4.07431 1.18694 4.02818 1.10698 3.98291 1.03215C3.9701 1.01078 3.95513 0.991532 3.94019 0.971008C3.96666 1.0112 3.99358 1.05097 4.0175 1.09373C4.0269 1.10528 4.06107 1.16257 4.11958 1.26305Z" fill="#D4145A"/>
<path d="M3.67285 0.636658C3.69677 0.66103 3.72111 0.685407 3.74417 0.711062C3.72111 0.685834 3.69677 0.66103 3.67285 0.636658Z" fill="#D4145A"/>
<path d="M1.15906 0.242415C1.19237 0.224884 1.22611 0.207348 1.26028 0.191956C1.22611 0.207348 1.19237 0.224884 1.15906 0.242415Z" fill="#D4145A"/>
<path d="M3.34705 0.366882C3.37609 0.386551 3.40556 0.406219 3.43247 0.427598C3.40556 0.406219 3.37609 0.386551 3.34705 0.366882Z" fill="#D4145A"/>
<path d="M3.16895 0.259094C3.20012 0.276197 3.23132 0.292877 3.26164 0.311263C3.23132 0.292877 3.20012 0.276197 3.16895 0.259094Z" fill="#D4145A"/>
<path d="M2.9823 0.169312C3.01518 0.182994 3.04765 0.197107 3.07969 0.212072C3.04765 0.197107 3.01518 0.182994 2.9823 0.169312Z" fill="#D4145A"/>
<path d="M3.51746 0.492554C3.54436 0.514788 3.57084 0.53532 3.59646 0.56012C3.56913 0.536603 3.54265 0.514788 3.51746 0.492554Z" fill="#D4145A"/>
<path d="M0.635986 0.623842C0.660757 0.599042 0.685085 0.574664 0.711137 0.551147C0.685085 0.574664 0.658622 0.59947 0.635986 0.623842Z" fill="#D4145A"/>
<path d="M0.000488281 2.11568C0.000488281 2.08105 0.000486404 2.04684 0.00390304 2.01263C0.00176764 2.04727 0.00091536 2.08105 0.000488281 2.11568Z" fill="#D4145A"/>
<path d="M0.0832377 2.74294C0.0725607 2.7066 0.0623137 2.66983 0.0541992 2.63306C0.0623137 2.6694 0.0729878 2.70617 0.0832377 2.74294Z" fill="#D4145A"/>
<path d="M0.0346068 2.53426C0.0282006 2.49834 0.0217877 2.46243 0.0170898 2.42651C0.0222148 2.46243 0.0277735 2.49834 0.0346068 2.53426Z" fill="#D4145A"/>
<path d="M0.0469971 1.70735C0.0542574 1.674 0.0615246 1.6398 0.0700662 1.60645C0.0615246 1.63809 0.0542574 1.67186 0.0469971 1.70735Z" fill="#D4145A"/>
<path d="M0.0140381 1.90743C0.0178818 1.87322 0.0221451 1.83902 0.0276971 1.80566C0.0238534 1.84073 0.0178818 1.87451 0.0140381 1.90743Z" fill="#D4145A"/>
<path d="M1.03133 0.31173C1.01041 0.324557 0.99163 0.339085 0.970703 0.354478C1.00145 0.334381 1.0322 0.314285 1.06423 0.295471C1.05313 0.298037 1.04201 0.304889 1.03133 0.31173Z" fill="#D4145A"/>
<path d="M0.00688769 2.32479C0.00432522 2.28973 0.00134244 2.25467 0.000488281 2.2196C0.00176952 2.25509 0.00432522 2.28973 0.00688769 2.32479Z" fill="#D4145A"/>
<path d="M0.0991211 1.50508C0.109371 1.47173 0.120046 1.43838 0.132004 1.40546C0.120046 1.44052 0.110225 1.47344 0.0991211 1.50508Z" fill="#D4145A"/>
<path d="M0.492432 0.782898C0.51464 0.755533 0.535144 0.728597 0.561196 0.702087C0.53728 0.726887 0.515494 0.753823 0.492432 0.782898Z" fill="#D4145A"/>
<path d="M0.796021 0.480157C0.823354 0.45835 0.8507 0.437395 0.878887 0.415161C0.850273 0.436113 0.823354 0.45835 0.796021 0.480157Z" fill="#D4145A"/>
<path d="M0.366455 0.949217C0.386101 0.919714 0.406176 0.890219 0.42753 0.863708C0.406176 0.890219 0.386101 0.919714 0.366455 0.949217Z" fill="#D4145A"/>
<path d="M0.258789 1.12752C0.275872 1.09588 0.292975 1.06509 0.31134 1.0343C0.292975 1.06509 0.275872 1.09588 0.258789 1.12752Z" fill="#D4145A"/>
<path d="M0.169556 1.31398C0.183222 1.28105 0.197318 1.24899 0.212266 1.21692C0.197318 1.24899 0.183222 1.28105 0.169556 1.31398Z" fill="#D4145A"/>
<path d="M53.2021 26.5905C53.2051 26.6195 53.2094 26.649 53.2115 26.6785C53.2094 26.6486 53.2051 26.6195 53.2021 26.5905Z" fill="#29ABE2"/>
<path d="M53.1346 27.4169C53.1231 27.4597 53.1111 27.4999 53.097 27.5401C53.1111 27.4999 53.1227 27.4584 53.1346 27.4169Z" fill="#29ABE2"/>
<path d="M51.3455 28.9644C51.3114 28.9686 51.2772 28.9725 51.243 28.9755C51.2776 28.9725 51.3114 28.9686 51.3455 28.9644Z" fill="#29ABE2"/>
<path d="M52.9762 27.8197C52.9591 27.8522 52.9424 27.8847 52.9241 27.9159C52.9424 27.8847 52.9595 27.8518 52.9762 27.8197Z" fill="#29ABE2"/>
<path d="M53.1828 27.2057C53.1747 27.2485 53.1675 27.2938 53.1572 27.3366C53.1675 27.2938 53.1752 27.2498 53.1828 27.2057Z" fill="#29ABE2"/>
<path d="M52.3155 28.5825C52.2809 28.6073 52.2459 28.6313 52.2096 28.6539C52.2459 28.6325 52.2805 28.6073 52.3155 28.5825Z" fill="#29ABE2"/>
<path d="M53.0655 27.6239C53.051 27.6611 53.0364 27.6974 53.0198 27.7334C53.036 27.6974 53.0497 27.6611 53.0655 27.6239Z" fill="#29ABE2"/>
<path d="M52.8707 28.0015C52.8519 28.031 52.8323 28.0605 52.8118 28.087C52.8323 28.0622 52.8523 28.031 52.8707 28.0015Z" fill="#29ABE2"/>
<path d="M53.2175 26.8795C53.2175 26.8555 53.2175 26.8324 53.2175 26.8085C53.2175 26.8384 53.2175 26.8683 53.2175 26.8987C53.2162 26.894 53.217 26.8859 53.2175 26.8795Z" fill="#29ABE2"/>
<path d="M52.6182 28.3204C52.5922 28.3478 52.5653 28.3747 52.538 28.4004C52.5653 28.3764 52.5922 28.3478 52.6182 28.3204Z" fill="#29ABE2"/>
<path d="M52.4731 28.4581C52.4428 28.4846 52.4116 28.5103 52.38 28.5351C52.412 28.5103 52.4428 28.4846 52.4731 28.4581Z" fill="#29ABE2"/>
<path d="M52.7507 28.1682C52.7285 28.1964 52.708 28.2242 52.6824 28.2512C52.7063 28.2242 52.7285 28.1943 52.7507 28.1682Z" fill="#29ABE2"/>
<path d="M51.4456 24.7163C51.4883 24.724 51.531 24.7317 51.5737 24.742C51.5322 24.7317 51.4887 24.724 51.4456 24.7163Z" fill="#29ABE2"/>
<path d="M51.9607 28.7886C51.9218 28.8066 51.8821 28.8241 51.8419 28.8395C51.8838 28.8228 51.9231 28.8053 51.9607 28.7886Z" fill="#29ABE2"/>
<path d="M52.708 25.4445C52.7302 25.4706 52.7507 25.4967 52.7734 25.5236C52.7524 25.4967 52.7302 25.4706 52.708 25.4445Z" fill="#29ABE2"/>
<path d="M53.1974 27.1219C53.2025 27.0839 53.2051 27.0445 53.2085 27.006C53.2051 27.045 53.2029 27.0834 53.1974 27.1219Z" fill="#29ABE2"/>
<path d="M52.2515 25.0379C52.2771 25.055 52.3031 25.0717 52.3283 25.0896C52.3031 25.0717 52.2771 25.055 52.2515 25.0379Z" fill="#29ABE2"/>
<path d="M52.0674 24.9288C52.0969 24.9447 52.1267 24.9596 52.1554 24.9763C52.1267 24.9596 52.0969 24.9447 52.0674 24.9288Z" fill="#29ABE2"/>
<path d="M53.1085 26.1607C53.1196 26.1945 53.1312 26.2287 53.141 26.2633C53.1316 26.2283 53.1196 26.1945 53.1085 26.1607Z" fill="#29ABE2"/>
<path d="M51.8688 24.8369C51.9034 24.851 51.938 24.8643 51.9721 24.8797C51.938 24.8643 51.9055 24.851 51.8688 24.8369Z" fill="#29ABE2"/>
<path d="M51.7663 28.866C51.7278 28.8793 51.6889 28.8917 51.6497 28.9028C51.6894 28.8917 51.7278 28.8784 51.7663 28.866Z" fill="#29ABE2"/>
<path d="M52.8306 25.6031C52.8515 25.6331 52.8733 25.663 52.8921 25.6942C52.8724 25.6639 52.8515 25.6339 52.8306 25.6031Z" fill="#29ABE2"/>
<path d="M51.6582 24.7651C51.6988 24.7766 51.7389 24.7882 51.7782 24.8014C51.7389 24.7877 51.6988 24.7766 51.6582 24.7651Z" fill="#29ABE2"/>
<path d="M52.1451 28.6924C52.1071 28.7147 52.0691 28.7352 52.0303 28.7553C52.0691 28.7356 52.1071 28.7147 52.1451 28.6924Z" fill="#29ABE2"/>
<path d="M53.1658 26.3715C53.1726 26.4032 53.1803 26.4352 53.1858 26.4673C53.1803 26.4348 53.1726 26.4032 53.1658 26.3715Z" fill="#29ABE2"/>
<path d="M52.4193 25.161C52.4432 25.1807 52.4671 25.1991 52.4898 25.2196C52.4671 25.1991 52.4432 25.179 52.4193 25.161Z" fill="#29ABE2"/>
<path d="M51.0219 28.9836H51.0697C51.0898 28.9836 51.1095 28.9814 51.1295 28.9806C51.0821 28.9806 51.0351 28.9836 50.9873 28.9806L51.0219 28.9836Z" fill="#29ABE2"/>
<path d="M53.0317 25.9615C53.0471 25.9961 53.0625 26.0308 53.0744 26.0662C53.0625 26.0308 53.0471 25.9961 53.0317 25.9615Z" fill="#29ABE2"/>
<path d="M51.56 28.9255C51.5237 28.934 51.487 28.9421 51.4498 28.9486C51.487 28.9421 51.5233 28.9349 51.56 28.9255Z" fill="#29ABE2"/>
<path d="M52.5713 25.2966C52.5939 25.3188 52.617 25.3393 52.6388 25.3646C52.617 25.341 52.5939 25.3188 52.5713 25.2966Z" fill="#29ABE2"/>
<path d="M52.9386 25.7755C52.9574 25.8088 52.9762 25.8417 52.9933 25.8755C52.9762 25.8422 52.9574 25.8097 52.9386 25.7755Z" fill="#29ABE2"/>
<path d="M0.000371078 2.21957C0.000371078 2.18493 0.000371078 2.1503 0.000371078 2.11566C-5.60009e-05 2.1503 -0.00048308 2.18408 0.000371078 2.21957Z" fill="#29ABE2"/>
<path d="M0.131958 1.40762C0.143489 1.37597 0.156734 1.34518 0.169546 1.31396C0.156734 1.34475 0.143489 1.37597 0.131958 1.40762Z" fill="#29ABE2"/>
<path d="M0.0170294 2.42654C0.0127586 2.39276 0.00976462 2.35855 0.00720215 2.32477C0.0101917 2.35897 0.0127586 2.39276 0.0170294 2.42654Z" fill="#29ABE2"/>
<path d="M0.311401 1.03431C0.328912 1.00524 0.347679 0.977012 0.366898 0.948792C0.348106 0.977439 0.328912 1.00567 0.311401 1.03431Z" fill="#29ABE2"/>
<path d="M0.0700684 1.60512C0.0786099 1.5722 0.0888569 1.5397 0.0991068 1.5072C0.0888569 1.5397 0.0786099 1.5722 0.0700684 1.60512Z" fill="#29ABE2"/>
<path d="M0.0273438 1.80738C0.0328958 1.77318 0.0397248 1.73983 0.0469851 1.70563C0.0397248 1.73941 0.0328958 1.77318 0.0273438 1.80738Z" fill="#29ABE2"/>
<path d="M0.00378418 2.01266C0.00591958 1.97802 0.0101947 1.94339 0.0136114 1.90918C0.00976767 1.94339 0.00591958 1.97802 0.00378418 2.01266Z" fill="#29ABE2"/>
<path d="M0.212646 1.21686C0.227167 1.18693 0.24297 1.15701 0.258772 1.1275C0.24297 1.15701 0.225459 1.1865 0.212646 1.21686Z" fill="#29ABE2"/>
<path d="M0.0541873 2.63264C0.0469269 2.60014 0.0409521 2.5668 0.0345459 2.5343C0.040525 2.56723 0.0464998 2.60014 0.0541873 2.63264Z" fill="#29ABE2"/>
<path d="M0.71106 0.550708C0.738393 0.526336 0.767413 0.502826 0.796455 0.479736C0.767413 0.502826 0.738393 0.526336 0.71106 0.550708Z" fill="#29ABE2"/>
<path d="M2.69226 0.0701294C2.72515 0.078681 2.75716 0.0889501 2.78962 0.0987844C2.75716 0.0889501 2.72557 0.078681 2.69226 0.0701294Z" fill="#29ABE2"/>
<path d="M0.42749 0.861586C0.44799 0.83422 0.470215 0.807272 0.492423 0.780762C0.470215 0.807272 0.44799 0.83422 0.42749 0.861586Z" fill="#29ABE2"/>
<path d="M2.88916 0.132141C2.92034 0.143686 2.95151 0.156516 2.98183 0.169343C2.95151 0.156516 2.92034 0.143686 2.88916 0.132141Z" fill="#29ABE2"/>
<path d="M3.07971 0.212524C3.10961 0.227062 3.1395 0.242886 3.16896 0.259135C3.1395 0.242886 3.10961 0.227062 3.07971 0.212524Z" fill="#29ABE2"/>
<path d="M3.59473 0.560547C3.62121 0.584919 3.64728 0.610565 3.6729 0.636647C3.64728 0.610565 3.62163 0.584919 3.59473 0.560547Z" fill="#29ABE2"/>
<path d="M3.43372 0.427124C3.46148 0.448076 3.48879 0.469889 3.5157 0.49255C3.48879 0.470316 3.4619 0.445938 3.43372 0.427124Z" fill="#29ABE2"/>
<path d="M3.88049 0.878662C3.90227 0.908593 3.92319 0.940238 3.94326 0.971452C3.92276 0.940238 3.90227 0.90902 3.88049 0.878662Z" fill="#29ABE2"/>
<path d="M3.74426 0.71106C3.76903 0.738425 3.79251 0.767492 3.816 0.796568C3.79251 0.767492 3.76903 0.738425 3.74426 0.71106Z" fill="#29ABE2"/>
<path d="M3.26111 0.311279C3.29015 0.32881 3.31877 0.347626 3.34653 0.366867C3.31877 0.347626 3.29015 0.32881 3.26111 0.311279Z" fill="#29ABE2"/>
<path d="M1.25989 0.192415C1.29192 0.177877 1.3248 0.165049 1.35683 0.151794C1.32437 0.164622 1.29192 0.17745 1.25989 0.192415Z" fill="#29ABE2"/>
<path d="M1.45972 0.112887C1.49303 0.101343 1.52719 0.0914991 1.56135 0.0820923C1.52719 0.0914991 1.49303 0.102198 1.45972 0.112887Z" fill="#29ABE2"/>
<path d="M1.09506 0.274502C1.08439 0.280061 1.07501 0.287335 1.06433 0.293749C1.09551 0.275363 1.12712 0.259107 1.15872 0.242859C1.13779 0.253121 1.11599 0.262102 1.09506 0.274502Z" fill="#29ABE2"/>
<path d="M0.878906 0.414781C0.908802 0.393402 0.93999 0.372025 0.97074 0.352356C0.93999 0.37288 0.908802 0.392975 0.878906 0.414781Z" fill="#29ABE2"/>
<path d="M2.48987 0.0274048C2.52403 0.0329633 2.55776 0.0402279 2.5915 0.0470692C2.55776 0.0402279 2.52574 0.0329633 2.48987 0.0274048Z" fill="#29ABE2"/>
<path d="M0.561157 0.699944C0.585074 0.673862 0.610292 0.64864 0.635917 0.623413C0.609865 0.649068 0.585074 0.673434 0.561157 0.699944Z" fill="#29ABE2"/>
<path d="M2.28491 0.00427246C2.32036 0.00641037 2.35537 0.010263 2.39082 0.0141112C2.35452 0.0124009 2.31951 0.00641037 2.28491 0.00427246Z" fill="#29ABE2"/>
<path d="M2.07642 0.000432693C2.11272 0.000432693 2.14817 0.000432693 2.18405 0.000432693C2.14817 5.11194e-06 2.11272 -0.000422469 2.07642 0.000432693Z" fill="#29ABE2"/>
<path d="M1.66345 0.0547087C1.69847 0.0465847 1.73351 0.0401662 1.76853 0.0337524C1.73522 0.0401662 1.69847 0.0465847 1.66345 0.0547087Z" fill="#29ABE2"/>
<path d="M1.86926 0.0175229C1.90514 0.0128195 1.94102 0.00982901 1.97689 0.00683594C1.94102 0.0106842 1.90514 0.0128195 1.86926 0.0175229Z" fill="#29ABE2"/>
<path d="M28.4837 38.6204C31.1698 36.034 31.2704 31.7753 28.7085 29.1084C26.1466 26.4415 21.8923 26.3762 19.2062 28.9625C16.5201 31.5489 16.4195 35.8075 18.9814 38.4745C21.5433 41.1414 25.7976 41.2067 28.4837 38.6204Z" fill="#FF1755"/>
<path d="M15.9332 28.5478C16.6909 25.4789 14.7995 22.371 11.7088 21.6062C8.61801 20.8413 5.49827 22.7092 4.74062 25.7781C3.98297 28.847 5.87432 31.9549 8.96507 32.7198C12.0558 33.4846 15.1756 31.6167 15.9332 28.5478Z" fill="#610073"/>
<path d="M32.1531 26.9628C31.2272 27.298 30.2761 27.6854 29.3118 28.1284C29.5324 28.3414 29.7403 28.5671 29.9345 28.8044C30.6664 29.701 31.1879 30.7508 31.4604 31.8762C32.1153 31.5874 32.7844 31.3166 33.4677 31.0638C37.6962 29.5565 42.1495 28.7781 46.638 28.7617C42.1942 28.4262 37.7919 27.672 33.4895 26.5092C33.0462 26.6515 32.6011 26.8003 32.1531 26.9628Z" fill="#FF7400"/>
<path d="M17.7553 38.7791C17.4726 38.431 17.2205 38.0591 17.002 37.6674C15.7743 39.1932 14.6727 40.8165 13.7079 42.5213C13.7416 48.213 13.3473 53.8992 12.5283 59.5317C13.7193 51.8418 16.2248 45.5596 20.0449 40.6852C19.1659 40.2038 18.3884 39.5565 17.7553 38.7791Z" fill="#FF7400"/>
<path d="M10.4715 20.4812C10.8076 20.4891 11.1427 20.5219 11.4739 20.5795C10.9571 18.2334 10.3721 16.0685 9.74467 14.0674C4.02907 9.12845 1.12235 4.6179 0.434326 3.47626C3.71344 8.94246 5.85438 15.0812 7.21549 21.2311C8.22013 20.7098 9.34035 20.4518 10.4715 20.4812Z" fill="#D4145A"/>
<path d="M0.153795 2.94734C0.138847 2.91014 0.124751 2.87381 0.111084 2.83618C0.124751 2.87338 0.138847 2.91014 0.153795 2.94734Z" fill="#D4145A"/>
<path d="M0.24429 3.14357C0.225498 3.10765 0.207147 3.07217 0.190918 3.03583C0.207147 3.07303 0.225498 3.10851 0.24429 3.14357Z" fill="#D4145A"/>
<path d="M13.6627 39.3105C13.6046 37.1726 13.488 35.125 13.327 33.1589C12.3546 33.6366 11.281 33.8714 10.1982 33.8431C9.8086 33.8338 9.42051 33.7909 9.03827 33.7148C9.69714 42.1278 9.43938 50.5875 8.26953 58.9447V58.9511C9.29965 52.2444 11.2428 46.8569 13.7101 42.5204C13.7075 41.4811 13.6917 40.4111 13.6627 39.3105Z" fill="#D4145A"/>
<path d="M8.26703 58.9528C8.26105 58.9895 8.25847 59.0263 8.2542 59.0631C8.24993 59.0999 8.24438 59.1435 8.24182 59.1832C8.24182 59.2153 8.24182 59.2474 8.24182 59.2794C8.24182 59.3192 8.24182 59.3594 8.24182 59.3992C8.24182 59.4308 8.24694 59.4624 8.24993 59.4945C8.25334 59.5334 8.25591 59.5728 8.26189 59.6108C8.26659 59.6425 8.27343 59.6737 8.27941 59.7049C8.28539 59.7361 8.29308 59.7801 8.30162 59.8169C8.31016 59.8537 8.31955 59.8789 8.32852 59.9097C8.33749 59.9405 8.34901 59.9815 8.36097 60.0166C8.37293 60.0516 8.38446 60.0764 8.39684 60.1068C8.40923 60.1372 8.42376 60.1756 8.43956 60.209C8.45537 60.2423 8.4686 60.2663 8.48226 60.2945C8.49593 60.3227 8.51558 60.3604 8.53437 60.392C8.55316 60.4236 8.56853 60.4459 8.58562 60.4728C8.6027 60.4998 8.62533 60.5352 8.64711 60.5652C8.66889 60.5951 8.68597 60.6152 8.70605 60.6396C8.72612 60.6639 8.75174 60.6986 8.77609 60.7251C8.80043 60.7516 8.81881 60.7704 8.84102 60.7935C8.86323 60.8166 8.8927 60.8478 8.92003 60.8735C8.94736 60.8991 8.96829 60.9162 8.99221 60.9359C9.01612 60.9556 9.04813 60.9851 9.0776 61.0077C9.10707 61.0304 9.131 61.0462 9.15833 61.065C9.18566 61.0838 9.21728 61.1078 9.24803 61.1266C9.27878 61.1454 9.3078 61.1608 9.3377 61.1775C9.36759 61.1942 9.39919 61.213 9.43123 61.2288C9.46326 61.2446 9.497 61.2583 9.52989 61.2715C9.56277 61.2848 9.5931 61.3002 9.62555 61.3143C9.65801 61.3284 9.69645 61.3382 9.73232 61.3498C9.7682 61.3613 9.79725 61.3716 9.83099 61.3806C9.86473 61.3895 9.90528 61.3972 9.94287 61.4054C9.98045 61.4135 10.0086 61.4203 10.0424 61.4259C10.1569 61.4449 10.2727 61.4546 10.3887 61.455H10.3917H10.4156C10.472 61.455 10.5284 61.4524 10.5843 61.4473C10.6151 61.4443 10.645 61.4392 10.6753 61.4349C10.7056 61.4306 10.7406 61.4276 10.7727 61.4216C10.8047 61.4156 10.841 61.4062 10.8752 61.3985C10.9025 61.3921 10.9299 61.387 10.9568 61.3797C10.9909 61.3703 11.0238 61.3583 11.0576 61.3472C11.0836 61.3387 11.1101 61.3314 11.1353 61.322C11.1605 61.3126 11.1981 61.2959 11.2288 61.2822C11.2596 61.2685 11.2818 61.2609 11.3074 61.2489C11.333 61.2369 11.3655 61.219 11.3928 61.2031C11.4201 61.1873 11.4453 61.1766 11.4705 61.1604C11.4957 61.1441 11.5244 61.1262 11.5504 61.1091C11.5765 61.092 11.6021 61.077 11.6268 61.0595C11.6516 61.0419 11.6751 61.0223 11.6995 61.0039C11.7238 60.9855 11.7503 60.9658 11.7742 60.9457C11.7981 60.9256 11.8169 60.9064 11.8387 60.8867C11.8605 60.867 11.8878 60.844 11.9113 60.8192C11.9348 60.7944 11.9501 60.7764 11.9694 60.7559C11.9886 60.7353 12.0151 60.7071 12.0368 60.6815C12.0586 60.6558 12.0723 60.6357 12.0898 60.6131C12.1073 60.5904 12.1325 60.5605 12.1509 60.5323C12.1692 60.504 12.1825 60.4831 12.1983 60.4587C12.2141 60.4343 12.235 60.4023 12.2517 60.3732C12.2683 60.3441 12.279 60.3206 12.2944 60.2941C12.3098 60.2676 12.326 60.2347 12.3401 60.2039C12.3542 60.1731 12.3631 60.1483 12.3747 60.1183C12.3862 60.0884 12.4011 60.0559 12.4127 60.0234C12.4242 59.9909 12.431 59.9653 12.44 59.9379C12.449 59.9105 12.4609 59.8721 12.4695 59.8379C12.478 59.8036 12.4823 59.7788 12.4887 59.7493C12.4972 59.7092 12.5066 59.6694 12.513 59.6283C12.5177 59.5954 12.5241 59.5633 12.5293 59.5304C13.3483 53.8979 13.7426 48.2117 13.7088 42.52C11.2408 46.8586 9.29714 52.2462 8.26703 58.9528Z" fill="#9B0B46"/>
<path d="M53.2153 26.8085C53.2153 26.7657 53.2153 26.723 53.2115 26.6802C53.2115 26.6507 53.2051 26.6212 53.2021 26.5921C53.1974 26.5494 53.1931 26.5096 53.1859 26.469C53.1803 26.4369 53.1726 26.4048 53.1658 26.3732C53.159 26.3416 53.1504 26.3005 53.1406 26.2646C53.1308 26.2287 53.1192 26.1962 53.1081 26.162C53.097 26.1278 53.0876 26.0987 53.0761 26.0675C53.0646 26.0363 53.047 25.9974 53.0334 25.9627C53.0197 25.9281 53.0086 25.9054 52.9945 25.8772C52.9804 25.849 52.9591 25.8105 52.9399 25.7772C52.9206 25.7438 52.9096 25.7224 52.8933 25.6959C52.8771 25.6694 52.8527 25.6352 52.8318 25.6048C52.8109 25.5745 52.7947 25.5505 52.7746 25.5245C52.7545 25.4984 52.7319 25.4714 52.7092 25.4454C52.6866 25.4193 52.664 25.3915 52.6401 25.3654C52.6161 25.3393 52.5952 25.3196 52.5726 25.2974C52.5499 25.2752 52.5192 25.2448 52.491 25.22C52.4628 25.1952 52.4444 25.1811 52.4205 25.1614C52.3966 25.1418 52.3608 25.1131 52.3296 25.0905C52.2984 25.0678 52.2788 25.0554 52.2527 25.0387C52.2267 25.022 52.1895 24.996 52.1566 24.9772C52.1237 24.9583 52.0981 24.9455 52.0686 24.9297C52.0392 24.9139 52.0054 24.8959 51.9734 24.8814C51.9413 24.8668 51.905 24.8523 51.87 24.8386C51.835 24.8249 51.8102 24.8142 51.7799 24.8031C51.7406 24.7894 51.7001 24.7783 51.6599 24.7668C51.6322 24.7587 51.6044 24.7501 51.5745 24.7433C51.5318 24.733 51.4891 24.7253 51.4464 24.7176C51.3376 24.6973 51.2273 24.6855 51.1167 24.6821C49.5937 24.6488 48.1194 24.5663 46.6827 24.4482C42.2068 24.4656 37.7593 25.1607 33.4911 26.51C37.7935 27.6729 42.1958 28.427 46.6396 28.7625C48.049 28.8724 49.4929 28.9498 50.9787 28.9832H50.9885C51.0364 28.9832 51.0834 28.9832 51.1308 28.9832C51.1688 28.9832 51.2072 28.9806 51.2448 28.9776C51.2824 28.9746 51.3131 28.9708 51.3473 28.9665C51.3814 28.9622 51.4169 28.9571 51.4515 28.9507C51.4861 28.9443 51.5249 28.9361 51.5617 28.9276C51.5984 28.919 51.6219 28.913 51.6514 28.9049C51.6907 28.8938 51.7295 28.8814 51.768 28.8682C51.7936 28.8592 51.8192 28.8502 51.8448 28.8404C51.885 28.825 51.9247 28.8074 51.9636 28.7895C51.9866 28.7792 52.0093 28.7685 52.0319 28.7574C52.0708 28.7377 52.1088 28.7146 52.1468 28.6946C52.1686 28.6817 52.1895 28.6693 52.2113 28.6561C52.2476 28.6334 52.2822 28.6095 52.3172 28.5847C52.339 28.5693 52.3599 28.5539 52.3817 28.5372C52.4137 28.5124 52.4444 28.4867 52.4748 28.4602C52.497 28.4414 52.5175 28.4222 52.5397 28.4021C52.5619 28.382 52.5939 28.3495 52.62 28.3221C52.646 28.2948 52.6627 28.2764 52.684 28.2529C52.7054 28.2293 52.7302 28.1981 52.7524 28.1699C52.7746 28.1417 52.7951 28.1177 52.813 28.0908C52.8309 28.0639 52.8527 28.0327 52.872 28.0053C52.8912 27.9779 52.9087 27.9488 52.9253 27.9198C52.942 27.8907 52.9608 27.8556 52.9774 27.8236C52.9941 27.7915 53.0074 27.7663 53.0202 27.7381C53.033 27.7098 53.0513 27.6658 53.0659 27.6286C53.077 27.6008 53.088 27.573 53.0979 27.5431C53.112 27.5029 53.1239 27.4614 53.1355 27.4199C53.1427 27.3934 53.1513 27.3669 53.1577 27.3395C53.1679 27.2968 53.1756 27.254 53.1833 27.2087C53.188 27.1805 53.194 27.1531 53.1978 27.1232C53.2034 27.0843 53.2055 27.0462 53.2089 27.0073C53.2123 26.9684 53.2153 26.9363 53.2166 26.9C53.2179 26.8637 53.2158 26.8384 53.2153 26.8085Z" fill="#008815"/>
<path d="M27.4022 19.8962C27.2828 21.3801 26.6079 22.7642 25.5128 23.7714C28.1094 24.8565 30.7741 25.7706 33.4898 26.5079C37.758 25.1586 42.2055 24.4634 46.6814 24.4461C40.0577 23.9431 33.553 22.408 27.4022 19.8962Z" fill="#29ABE2"/>
<path d="M0.11143 2.83613C0.100753 2.80534 0.0917935 2.77371 0.083252 2.74249C0.0922206 2.77456 0.10118 2.80492 0.11143 2.83613Z" fill="#29ABE2"/>
<path d="M0.190967 3.03668C0.1773 3.00718 0.16534 2.97683 0.153809 2.94733C0.165767 2.97726 0.177727 3.00718 0.190967 3.03668Z" fill="#29ABE2"/>
<path d="M11.9757 15.8996C13.0861 16.7667 14.3246 17.6612 15.6874 18.5562C15.9201 17.0855 16.7054 15.7595 17.8826 14.8495C16.7551 14.1025 15.7203 13.3572 14.7833 12.6329C8.07004 7.44331 4.72858 2.25804 4.12256 1.26434C6.49449 5.29581 8.38204 9.5939 9.74591 14.0691C10.446 14.674 11.1893 15.2842 11.9757 15.8996Z" fill="#29ABE2"/>
<path d="M0.244263 3.14441C0.254513 3.16408 0.263057 3.18461 0.274161 3.20428C0.289536 3.23164 0.343785 3.32699 0.433899 3.47664C0.391191 3.40738 0.352753 3.33682 0.310472 3.26798C0.286556 3.22779 0.265617 3.18588 0.244263 3.14441Z" fill="#29ABE2"/>
<path d="M9.74511 14.0679C8.38123 9.59265 6.49369 5.29455 4.12176 1.26308C4.06112 1.16345 4.02737 1.10487 4.02096 1.09205C3.99704 1.04929 3.9697 1.00953 3.94365 0.969337C3.92315 0.938123 3.90095 0.906478 3.88088 0.876547C3.8608 0.846616 3.83817 0.821385 3.81639 0.794875C3.79461 0.768365 3.76982 0.736732 3.74463 0.709366C3.71943 0.682001 3.69722 0.659334 3.67331 0.634962C3.64939 0.61059 3.62205 0.583221 3.59558 0.558849C3.5691 0.534477 3.54347 0.513102 3.51657 0.491296C3.48966 0.469489 3.46235 0.448544 3.43459 0.425882C3.40683 0.40322 3.37693 0.383125 3.34917 0.365166C3.32141 0.347208 3.29279 0.32711 3.26374 0.309579C3.2347 0.292048 3.20225 0.274086 3.17108 0.25741C3.1399 0.240734 3.11212 0.225765 3.0818 0.2108C3.05148 0.195834 3.0169 0.181722 2.98444 0.168039C2.95198 0.154356 2.92295 0.142395 2.89177 0.13085C2.86059 0.119305 2.82514 0.108187 2.79183 0.0974975C2.75852 0.086808 2.7269 0.0773941 2.69444 0.0688424C2.66199 0.0602908 2.62784 0.0530281 2.59367 0.0457592C2.5595 0.0384903 2.52618 0.0312257 2.49201 0.0260947C2.45784 0.0209638 2.42538 0.017113 2.39207 0.0128372C2.35876 0.0085614 2.32161 0.00513636 2.28616 0.00299846C2.25071 0.00086055 2.21953 7.266e-06 2.18622 -0.000420315C2.15291 -0.000847897 2.11446 -0.000420315 2.07859 -0.000420315C2.04271 -0.000420315 2.01199 0.00342113 1.97868 0.00598662C1.94536 0.00855211 1.90692 0.0119832 1.87104 0.0166866C1.83517 0.02139 1.80356 0.0269461 1.77024 0.0329323C1.73693 0.0389184 1.70022 0.0457515 1.66519 0.0538755C1.63017 0.0619996 1.59686 0.0714174 1.56312 0.0812518C1.52938 0.0910862 1.49522 0.100489 1.46148 0.112034C1.42774 0.123578 1.39313 0.137263 1.35896 0.150945C1.3248 0.164628 1.29405 0.176601 1.26202 0.191566C1.22999 0.206531 1.19454 0.224482 1.1608 0.242012C1.12706 0.259543 1.09759 0.274516 1.06641 0.292902C1.03524 0.311289 1.00406 0.331813 0.972885 0.351909C0.941709 0.372005 0.910547 0.394665 0.881078 0.414334C0.85161 0.434003 0.825545 0.457096 0.798212 0.47933C0.770878 0.501564 0.740978 0.52593 0.71279 0.550302C0.684603 0.574674 0.661983 0.598197 0.63764 0.622997C0.613296 0.647796 0.586395 0.673445 0.562906 0.699528C0.539417 0.72561 0.51635 0.752973 0.494142 0.780338C0.471934 0.807704 0.451417 0.833784 0.429209 0.861149C0.407001 0.888515 0.386525 0.919306 0.368161 0.946671C0.349796 0.974036 0.330135 1.00312 0.312625 1.03219C0.295115 1.06127 0.277184 1.09376 0.260101 1.1254C0.243017 1.15704 0.228496 1.18441 0.213975 1.21477C0.199455 1.24513 0.184931 1.2789 0.171265 1.31183C0.157598 1.34475 0.145207 1.37382 0.133676 1.40546C0.122145 1.43711 0.111043 1.47174 0.100793 1.50509C0.090543 1.53844 0.080296 1.57009 0.0717545 1.60301C0.0632129 1.63593 0.0555316 1.67014 0.0486983 1.70392C0.0418651 1.73769 0.034596 1.77148 0.0290439 1.80568C0.0234919 1.83989 0.0196557 1.87324 0.0153849 1.90745C0.0111141 1.94166 0.00769309 1.97629 0.0055577 2.01093C0.0034223 2.04556 0.00257002 2.07934 0.00214294 2.11397C0.00171586 2.14861 0.00214294 2.18323 0.00214294 2.21787C0.00214294 2.2525 0.00597987 2.28799 0.00854235 2.32305C0.0111048 2.35811 0.0140988 2.39104 0.0183696 2.42482C0.0226403 2.4586 0.0290532 2.49666 0.0358865 2.53258C0.0427197 2.56849 0.0478404 2.59842 0.0555278 2.63091C0.0632153 2.66341 0.0743164 2.70446 0.0845663 2.74081C0.0948162 2.77715 0.102508 2.80323 0.112758 2.83445C0.123008 2.86566 0.139666 2.90841 0.155468 2.94561C0.167426 2.97554 0.179374 3.00548 0.192613 3.03498C0.208842 3.07132 0.227634 3.10681 0.245998 3.14272C0.264363 3.17864 0.288709 3.2261 0.312625 3.26629C0.355333 3.33514 0.394211 3.40569 0.436065 3.47496C1.12281 4.61916 4.02908 9.1293 9.74511 14.0679Z" fill="#03005C"/>
<path d="M23.6054 24.0419C26.1532 22.8758 27.2821 19.8796 26.127 17.3499C24.9718 14.8202 21.9699 13.7148 19.4221 14.881C16.8743 16.0471 15.7454 19.0432 16.9006 21.573C18.0558 24.1027 21.0577 25.2081 23.6054 24.0419Z" fill="#FF7A17"/>
<path d="M25.9584 67.1889H25.1589L24.7852 69.6804C24.7319 70.0506 24.6596 70.4178 24.5686 70.7806C24.5125 71.0967 24.3437 71.3818 24.0935 71.5827C23.8434 71.7836 23.5288 71.8868 23.2084 71.8731C23.1862 71.8731 23.1486 71.8658 23.1038 71.8658V71.454C23.1508 71.4596 23.1982 71.462 23.2456 71.4613C23.3545 71.4549 23.4611 71.4264 23.5587 71.3775C23.6564 71.3287 23.7431 71.2604 23.8136 71.177C24.0487 70.7906 24.1801 70.3499 24.1949 69.8976L24.5985 67.1889H23.9332L23.993 66.7699H24.6652L24.6951 66.5527C24.8146 65.7745 24.7698 65.9968 24.8146 65.857C24.8777 65.5714 25.0339 65.315 25.2586 65.1281C25.4833 64.9412 25.7638 64.8345 26.0557 64.8248C26.1927 64.811 26.3309 64.8159 26.4666 64.8393L26.3995 65.2669C26.347 65.2592 26.2872 65.2515 26.2714 65.2515C26.0483 65.2315 25.8261 65.2986 25.6513 65.4388C25.4343 65.6098 25.3523 65.8352 25.2626 66.465L25.2199 66.772H26.0194L25.9584 67.1889Z" fill="black"/>
<path d="M27.1773 70.0622H26.6221L27.1158 66.7698H27.6684L27.1773 70.0622ZM27.9174 65.4833C27.9218 65.5388 27.9153 65.5946 27.8982 65.6477C27.881 65.7007 27.8537 65.7498 27.8176 65.7922C27.7815 65.8346 27.7374 65.8695 27.6878 65.8948C27.6383 65.9202 27.5842 65.9355 27.5288 65.9399C27.3195 65.9399 27.2072 65.8202 27.2072 65.5957C27.2027 65.5391 27.2101 65.4822 27.2288 65.4286C27.2475 65.375 27.2771 65.3259 27.3158 65.2844C27.3545 65.2429 27.4014 65.2099 27.4535 65.1876C27.5056 65.1652 27.5618 65.1539 27.6184 65.1544C27.6599 65.1555 27.7008 65.1649 27.7385 65.1822C27.7762 65.1995 27.8101 65.2242 27.838 65.255C27.866 65.2857 27.8874 65.3217 27.901 65.361C27.9147 65.4002 27.9202 65.4418 27.9174 65.4833Z" fill="black"/>
<path d="M29.4497 66.6938C29.5933 66.8952 29.6525 67.1449 29.6146 67.3894C29.6069 67.4416 29.5992 67.5177 29.5919 67.5989C29.9584 66.9781 30.2868 66.7087 30.7356 66.6861C30.8439 66.6788 30.9522 66.6982 31.0513 66.7425C31.1503 66.7869 31.2369 66.8548 31.3037 66.9405C31.4004 67.0941 31.4374 67.2779 31.4079 67.457C31.4006 67.5613 31.3857 67.6665 31.3707 67.7713L31.029 70.0605H30.4739L30.81 67.8311C30.8253 67.7114 30.8399 67.5844 30.8399 67.5169C30.8399 67.2701 30.6981 67.1431 30.4811 67.1876C30.1224 67.2624 29.8405 67.5767 29.5415 68.2279L29.2648 70.061H28.7096L29.0158 68.0261C29.0633 67.7369 29.0807 67.4436 29.0679 67.1508C29.061 67.0384 29.0306 66.9287 28.9786 66.8289L29.4497 66.6938Z" fill="black"/>
<path d="M35.0633 68.5734C35.0479 68.6559 35.0334 68.7978 35.0111 68.9774C34.9514 69.5162 35.041 69.7407 35.325 69.7407H35.3699L35.2648 70.1075C35.1943 70.1276 35.1212 70.1377 35.0479 70.1375C34.6597 70.1375 34.4576 69.898 34.4576 69.4418C34.4576 69.3819 34.4649 69.2622 34.4726 69.1575C34.1288 69.8536 33.785 70.1452 33.3144 70.1452C32.836 70.1452 32.5298 69.771 32.5298 69.2019C32.5276 68.6913 32.6426 68.1871 32.8659 67.728C32.9951 67.4112 33.217 67.1408 33.5024 66.9526C33.7879 66.7643 34.1236 66.6669 34.4653 66.6732C34.5737 66.6752 34.6814 66.6896 34.7865 66.716L35.0633 64.8307H35.624L35.0633 68.5734ZM34.7216 67.1743C34.5586 67.1297 34.3888 67.1152 34.2206 67.1316C34.0114 67.1679 33.8165 67.2621 33.658 67.4035C33.4995 67.545 33.3837 67.7281 33.3238 67.932C33.1899 68.2587 33.1115 68.6056 33.0918 68.9582C33.0619 69.4371 33.1969 69.6851 33.5031 69.6851C33.832 69.6851 34.1437 69.349 34.5046 68.6076L34.7216 67.1743Z" fill="black"/>
<path d="M39.1679 69.6885C39.1704 69.7476 39.1608 69.8067 39.1395 69.8619C39.1182 69.9172 39.0858 69.9674 39.0442 70.0095C39.0026 70.0516 38.9528 70.0847 38.8979 70.1066C38.8429 70.1286 38.7841 70.1389 38.725 70.137C38.6787 70.1372 38.633 70.1271 38.5911 70.1073C38.5493 70.0876 38.5123 70.0587 38.483 70.0229C38.4537 69.9871 38.4327 69.9451 38.4216 69.9002C38.4105 69.8552 38.4095 69.8083 38.4188 69.7629C38.4176 69.6505 38.4596 69.542 38.5362 69.4599C38.6128 69.3777 38.718 69.3282 38.83 69.3216C38.8774 69.3197 38.9247 69.3281 38.9685 69.3462C39.0123 69.3644 39.0517 69.3918 39.0838 69.4267C39.116 69.4616 39.1401 69.5032 39.1547 69.5484C39.1692 69.5936 39.1737 69.6414 39.1679 69.6885Z" fill="black"/>
<path d="M43.5779 67.6378C43.9294 66.987 44.2506 66.7027 44.6764 66.6728C44.8143 66.6657 44.9515 66.6969 45.0729 66.7629C45.1943 66.8289 45.2952 66.9272 45.3644 67.0469C45.4755 67.2929 45.5216 67.5634 45.4985 67.8324C45.4744 68.4596 45.2665 69.0659 44.9006 69.5756C44.7596 69.7739 44.568 69.9305 44.3459 70.0292C44.1237 70.1279 43.8791 70.165 43.6377 70.1366C43.5092 70.1177 43.3836 70.0825 43.264 70.0318L42.9727 71.9987H42.412L42.7536 69.7017C42.5685 69.574 42.4024 69.4205 42.2604 69.2459L42.3428 68.6845C42.4867 68.8842 42.6548 69.0652 42.8433 69.2233L43.2619 66.3427L43.7851 66.2529L43.5779 67.6378ZM43.3315 69.576C43.4669 69.6765 43.633 69.7267 43.8013 69.718C44.2049 69.6958 44.4961 69.4337 44.7058 68.9176C44.8667 68.5286 44.948 68.1113 44.945 67.6904C44.945 67.3317 44.7583 67.1072 44.5042 67.1517C44.3564 67.1929 44.2185 67.2639 44.099 67.3604C43.9795 67.4568 43.881 67.5767 43.8094 67.7126C43.6954 67.884 43.6001 68.0672 43.5254 68.2591L43.3315 69.576Z" fill="black"/>
<path d="M47.0762 70.0622H46.521L47.2987 64.8325H47.859L47.0762 70.0622Z" fill="black"/>
<path d="M51.1424 68.5734C51.127 68.6559 51.1125 68.7978 51.0899 68.9774C51.0301 69.5162 51.1198 69.7407 51.4038 69.7407H51.4465L51.3419 70.1075C51.2713 70.1276 51.1983 70.1377 51.1249 70.1375C50.7363 70.1375 50.5347 69.898 50.5347 69.4418C50.5347 69.3819 50.5423 69.2622 50.5496 69.1574C50.2079 69.8535 49.8624 70.1452 49.3914 70.1452C48.913 70.1452 48.6068 69.771 48.6068 69.2019C48.6048 68.6915 48.7198 68.1874 48.9429 67.7285C49.0628 67.4371 49.2612 67.1847 49.5159 66.9996C49.7706 66.8145 50.0717 66.7038 50.3856 66.68C50.7305 66.6599 51.0759 66.7083 51.4021 66.8224L51.1424 68.5734ZM50.7986 67.1743C50.6356 67.1297 50.4658 67.1152 50.2976 67.1316C50.0884 67.1679 49.8935 67.2621 49.735 67.4035C49.5765 67.545 49.4607 67.7281 49.4008 67.932C49.2666 68.2587 49.1883 68.6055 49.1689 68.9582C49.139 69.4371 49.2735 69.6851 49.5797 69.6851C49.9086 69.6851 50.2225 69.349 50.5812 68.6076L50.7986 67.1743Z" fill="black"/>
<path d="M53.3256 66.6938C53.469 66.8953 53.528 67.1449 53.49 67.3894C53.4828 67.4416 53.4747 67.5177 53.4678 67.5989C53.8338 66.9781 54.1627 66.7087 54.6111 66.6861C54.7194 66.6788 54.8278 66.6982 54.9269 66.7425C55.026 66.7869 55.1128 66.8548 55.1796 66.9405C55.2761 67.0941 55.3132 67.2779 55.2838 67.457C55.2765 67.5613 55.2616 67.6665 55.2466 67.7713L54.905 70.0605H54.3498L54.6863 67.8311C54.7017 67.7114 54.7162 67.5844 54.7162 67.5169C54.7162 67.2701 54.5744 67.1431 54.3574 67.1876C53.9991 67.2624 53.7168 67.5767 53.4179 68.2279L53.1411 70.061H52.5885L52.8947 68.0261C52.9424 67.737 52.96 67.4436 52.9472 67.1508C52.9401 67.0384 52.9095 66.9288 52.8576 66.8289L53.3256 66.6938Z" fill="black"/>
<path d="M59.0519 69.6885C59.0545 69.7475 59.0448 69.8064 59.0237 69.8615C59.0025 69.9166 58.9702 69.9668 58.9288 70.0089C58.8874 70.051 58.8378 70.0841 58.7831 70.1061C58.7284 70.1282 58.6697 70.1387 58.6107 70.137C58.5645 70.1372 58.5187 70.1271 58.4769 70.1073C58.435 70.0876 58.3981 70.0587 58.3687 70.0229C58.3394 69.9871 58.3184 69.9451 58.3073 69.9002C58.2962 69.8552 58.2953 69.8083 58.3045 69.7629C58.3033 69.6506 58.3453 69.5422 58.4218 69.46C58.4983 69.3779 58.6034 69.3283 58.7154 69.3216C58.7626 69.3199 58.8098 69.3284 58.8534 69.3466C58.8971 69.3649 58.9363 69.3924 58.9683 69.4273C59.0003 69.4621 59.0243 69.5036 59.0388 69.5487C59.0532 69.5938 59.0577 69.6415 59.0519 69.6885Z" fill="black"/>
<path d="M64.665 69.4115C64.5326 69.6375 64.3438 69.8252 64.1172 69.9563C63.8906 70.0874 63.6339 70.1573 63.3722 70.1593C62.7594 70.1593 62.3784 69.606 62.4228 68.7752C62.4899 67.6083 63.2074 66.6728 64.0372 66.6728C64.5377 66.6728 64.8521 66.9567 64.8145 67.3834C64.7773 67.5986 64.6895 67.8019 64.5581 67.9763C64.4268 68.1507 64.2558 68.2912 64.0594 68.3861C63.7248 68.5854 63.3688 68.746 62.9981 68.865C63.0203 69.3811 63.1924 69.6505 63.5285 69.6881C63.8424 69.718 64.1414 69.5461 64.5006 69.1194L64.665 69.4115ZM63.0135 68.5362C63.8578 68.1993 64.2614 67.8705 64.299 67.4737C64.3072 67.4266 64.3044 67.3783 64.2908 67.3325C64.2771 67.2867 64.253 67.2447 64.2204 67.2099C64.1877 67.175 64.1474 67.1483 64.1026 67.1317C64.0579 67.1151 64.0099 67.1093 63.9625 67.1145C63.6857 67.1145 63.4072 67.3467 63.2223 67.7358C63.1451 67.9025 63.0898 68.0786 63.0579 68.2595C63.0579 68.2595 63.0502 68.3044 63.028 68.4468L63.0135 68.5362Z" fill="black"/>
<path d="M66.5045 66.6938C66.648 66.8952 66.707 67.1449 66.6689 67.3894C66.6616 67.4416 66.654 67.5177 66.6467 67.5989C67.0131 66.9781 67.3415 66.7087 67.79 66.6861C67.8982 66.6788 68.0066 66.6982 68.1056 66.7425C68.2046 66.7869 68.2913 66.8548 68.358 66.9405C68.4545 67.0941 68.4916 67.2779 68.4622 67.457C68.4549 67.5613 68.44 67.6665 68.4251 67.7713L68.0834 70.0605H67.5282L67.8647 67.8311C67.8801 67.7114 67.8946 67.5844 67.8946 67.5169C67.8946 67.2701 67.7528 67.1431 67.5359 67.1876C67.1771 67.2624 66.8952 67.5767 66.5963 68.2279L66.3191 70.0622H65.7639L66.0701 68.0274C66.1176 67.7382 66.135 67.4449 66.1222 67.1521C66.1154 67.0397 66.085 66.93 66.033 66.8302L66.5045 66.6938Z" fill="black"/>
<path d="M70.1602 69.8005C70.0257 70.6984 69.936 70.9977 69.6968 71.3343C69.5662 71.5088 69.3953 71.649 69.1987 71.7428C69.0021 71.8366 68.7857 71.8813 68.568 71.873H68.3741V71.439C68.8072 71.4317 68.9866 71.3792 69.1514 71.2145C69.4242 70.7939 69.5813 70.3086 69.6071 69.8078L70.0556 66.772H70.6163L70.1602 69.8005ZM70.8627 65.4819C70.8672 65.5375 70.8608 65.5934 70.8436 65.6464C70.8265 65.6994 70.7991 65.7486 70.763 65.791C70.7269 65.8334 70.6828 65.8683 70.6333 65.8936C70.5837 65.9189 70.5296 65.9342 70.4741 65.9386C70.2648 65.9386 70.1529 65.8189 70.1529 65.5944C70.1491 65.538 70.1569 65.4814 70.1758 65.4281C70.1948 65.3749 70.2244 65.326 70.2629 65.2847C70.3014 65.2433 70.348 65.2103 70.3997 65.1877C70.4515 65.1651 70.5073 65.1533 70.5638 65.1531C70.6054 65.1542 70.6463 65.1637 70.6842 65.181C70.722 65.1984 70.7559 65.2232 70.7838 65.2541C70.8118 65.285 70.8332 65.3212 70.8468 65.3606C70.8603 65.3999 70.8657 65.4417 70.8627 65.4832V65.4819Z" fill="black"/>
<path d="M74.1214 67.1448C74.2603 67.4092 74.3224 67.7072 74.3007 68.0051C74.2835 68.5257 74.1398 69.0342 73.8822 69.4867C73.7619 69.6946 73.5883 69.8666 73.3795 69.9849C73.1706 70.1032 72.934 70.1635 72.694 70.1597C72.0534 70.1597 71.6849 69.6894 71.6849 68.8505C71.6806 68.1655 71.9433 67.5058 72.4173 67.0118C72.5413 66.894 72.6884 66.8033 72.8492 66.7453C73.0101 66.6874 73.1812 66.6636 73.3518 66.6753C73.51 66.6786 73.6646 66.7238 73.7997 66.8063C73.9349 66.8887 74.0459 67.0055 74.1214 67.1448ZM72.2533 68.8582C72.2533 69.414 72.4476 69.7112 72.7987 69.7112C72.9502 69.7011 73.0953 69.6459 73.2152 69.5525C73.3351 69.4592 73.4243 69.332 73.4713 69.1874C73.6381 68.8339 73.7255 68.4482 73.7276 68.0573C73.7276 67.4287 73.5482 67.1299 73.1668 67.1299C72.6637 67.1281 72.2533 67.9081 72.2533 68.8577V68.8582Z" fill="black"/>
<path d="M77.4407 66.6732L77.9267 66.8229L76.7535 69.4645C76.6335 69.7411 76.4319 70.1452 76.2453 70.4907C75.6619 71.5455 75.2587 71.8747 74.5335 71.8747C74.5036 71.8747 74.399 71.8675 74.3166 71.8598L74.2794 71.4185C74.3465 71.4185 74.4503 71.4258 74.4661 71.4258C74.6504 71.4493 74.8376 71.4186 75.0049 71.3375C75.1721 71.2565 75.3122 71.1285 75.4082 70.9691C75.6211 70.6633 75.8086 70.3405 75.9689 70.0041L76.0433 69.8544L75.3172 66.8237L75.8481 66.6741L76.4157 69.1656L77.4407 66.6732Z" fill="black"/>
</g>
<defs>
<clipPath id="clip0_1_17409">
<rect width="98.7429" height="72" fill="white"/>
</clipPath>
</defs>
</svg>
