<svg width="180" height="180" viewBox="0 0 180 180" fill="none" xmlns="http://www.w3.org/2000/svg">
<g filter="url(#filter0_d_1325_1167)">
<circle cx="82" cy="82" r="40" fill="#EFCE1E"/>
</g>
<path d="M87 91H77C73 91 72 90 72 86V78C72 74 73 73 77 73H87C91 73 92 74 92 78V86C92 90 91 91 87 91Z" stroke="#081429" stroke-width="1.5" stroke-linecap="round" stroke-linejoin="round"/>
<path d="M84 78H89" stroke="#081429" stroke-width="1.5" stroke-linecap="round" stroke-linejoin="round"/>
<path d="M85 82H89" stroke="#081429" stroke-width="1.5" stroke-linecap="round" stroke-linejoin="round"/>
<path d="M87 86H89" stroke="#081429" stroke-width="1.5" stroke-linecap="round" stroke-linejoin="round"/>
<path d="M78.5004 81.2899C79.5001 81.2899 80.3104 80.4796 80.3104 79.4799C80.3104 78.4803 79.5001 77.6699 78.5004 77.6699C77.5008 77.6699 76.6904 78.4803 76.6904 79.4799C76.6904 80.4796 77.5008 81.2899 78.5004 81.2899Z" stroke="#081429" stroke-width="1.5" stroke-linecap="round" stroke-linejoin="round"/>
<path d="M82 86.33C81.86 84.88 80.71 83.74 79.26 83.61C78.76 83.56 78.25 83.56 77.74 83.61C76.29 83.75 75.14 84.88 75 86.33" stroke="#081429" stroke-width="1.5" stroke-linecap="round" stroke-linejoin="round"/>
<defs>
<filter id="filter0_d_1325_1167" x="0" y="0" width="180" height="180" filterUnits="userSpaceOnUse" color-interpolation-filters="sRGB">
<feFlood flood-opacity="0" result="BackgroundImageFix"/>
<feColorMatrix in="SourceAlpha" type="matrix" values="0 0 0 0 0 0 0 0 0 0 0 0 0 0 0 0 0 0 127 0" result="hardAlpha"/>
<feOffset dx="8" dy="8"/>
<feGaussianBlur stdDeviation="25"/>
<feComposite in2="hardAlpha" operator="out"/>
<feColorMatrix type="matrix" values="0 0 0 0 0.0313726 0 0 0 0 0.0784314 0 0 0 0 0.160784 0 0 0 0.12 0"/>
<feBlend mode="normal" in2="BackgroundImageFix" result="effect1_dropShadow_1325_1167"/>
<feBlend mode="normal" in="SourceGraphic" in2="effect1_dropShadow_1325_1167" result="shape"/>
</filter>
</defs>
</svg>
