<svg width="103" height="119" viewBox="0 0 103 119" fill="none" xmlns="http://www.w3.org/2000/svg">
<path d="M101.407 48.5059C101.462 48.5536 101.513 48.6037 101.565 48.6547C101.513 48.6037 101.462 48.5536 101.407 48.5059Z" fill="#FF7400"/>
<path d="M99.4056 55.6787C99.339 55.691 99.2724 55.7001 99.205 55.7091C99.2724 55.7001 99.339 55.691 99.4056 55.6787Z" fill="#FF7400"/>
<path d="M99.7896 55.5908C99.7329 55.6064 99.6745 55.6212 99.6169 55.6344C99.6745 55.6196 99.7329 55.6056 99.7896 55.5908Z" fill="#FF7400"/>
<path d="M100.162 55.4668C100.113 55.4857 100.064 55.503 100.014 55.5203C100.064 55.503 100.113 55.4882 100.162 55.4668Z" fill="#FF7400"/>
<path d="M100.763 48.0391C100.827 48.0769 100.888 48.1172 100.949 48.1575C100.888 48.1172 100.827 48.0769 100.763 48.0391Z" fill="#FF7400"/>
<path d="M101.096 48.2568C101.156 48.3004 101.214 48.3473 101.271 48.3933C101.214 48.3473 101.157 48.3004 101.096 48.2568Z" fill="#FF7400"/>
<path d="M100.41 47.8535C100.472 47.8823 100.533 47.9144 100.594 47.9465C100.533 47.9144 100.472 47.8823 100.41 47.8535Z" fill="#FF7400"/>
<path d="M100.038 47.7031C100.097 47.7245 100.154 47.7475 100.212 47.7714C100.153 47.7484 100.096 47.7245 100.038 47.7031Z" fill="#FF7400"/>
<path d="M99.6449 47.5898C99.6992 47.603 99.7526 47.6194 99.8094 47.6351C99.7526 47.617 99.6992 47.6005 99.6449 47.5898Z" fill="#FF7400"/>
<path d="M102.767 52.2038C102.767 52.1915 102.767 52.1784 102.767 52.166C102.759 52.2203 102.749 52.2737 102.739 52.3305C102.75 52.2861 102.76 52.2458 102.767 52.2038Z" fill="#FF7400"/>
<path d="M102.427 53.3418C102.402 53.3977 102.372 53.4536 102.345 53.5063C102.372 53.4536 102.402 53.3977 102.427 53.3418Z" fill="#FF7400"/>
<path d="M102.244 53.6934C102.211 53.7493 102.175 53.8036 102.141 53.8578C102.176 53.8036 102.215 53.7493 102.244 53.6934Z" fill="#FF7400"/>
<path d="M102.692 52.5781C102.68 52.6308 102.663 52.6809 102.649 52.7327C102.663 52.6809 102.68 52.6266 102.692 52.5781Z" fill="#FF7400"/>
<path d="M100.522 55.3076C100.479 55.329 100.435 55.3496 100.391 55.3693C100.435 55.3496 100.479 55.329 100.522 55.3076Z" fill="#FF7400"/>
<path d="M102.027 54.0254C101.99 54.0772 101.95 54.1274 101.911 54.1775C101.95 54.1274 101.99 54.0772 102.027 54.0254Z" fill="#FF7400"/>
<path d="M102.577 52.9688C102.558 53.023 102.536 53.0765 102.515 53.1332C102.536 53.0765 102.558 53.0238 102.577 52.9688Z" fill="#FF7400"/>
<path d="M101.778 54.3379C101.739 54.3831 101.696 54.4267 101.655 54.4711C101.697 54.4267 101.739 54.3831 101.778 54.3379Z" fill="#FF7400"/>
<path d="M101.196 54.8828C101.156 54.9141 101.114 54.9437 101.072 54.9741C101.114 54.9437 101.155 54.9141 101.196 54.8828Z" fill="#FF7400"/>
<path d="M100.868 55.1123C100.827 55.1378 100.786 55.1616 100.744 55.1863C100.786 55.1616 100.827 55.1378 100.868 55.1123Z" fill="#FF7400"/>
<path d="M101.5 54.624C101.459 54.6619 101.418 54.6989 101.375 54.7359C101.418 54.6989 101.46 54.6619 101.5 54.624Z" fill="#FF7400"/>
<path d="M99.006 55.7305C98.9328 55.7362 98.8596 55.7395 98.7864 55.7412C98.8604 55.7395 98.9344 55.7362 99.006 55.7305Z" fill="#FF7400"/>
<path d="M101.953 49.0918C101.992 49.142 102.027 49.1946 102.063 49.2464C102.027 49.1946 101.992 49.142 101.953 49.0918Z" fill="#FF7400"/>
<path d="M102.536 50.1348C102.559 50.194 102.578 50.2557 102.598 50.3165C102.578 50.2557 102.559 50.194 102.536 50.1348Z" fill="#FF7400"/>
<path d="M102.805 51.7363C102.805 51.8062 102.796 51.8737 102.79 51.9428C102.796 51.8737 102.8 51.8071 102.805 51.7363Z" fill="#FF7400"/>
<path d="M102.377 49.7705C102.403 49.824 102.427 49.8791 102.452 49.935C102.428 49.8791 102.403 49.8248 102.377 49.7705Z" fill="#FF7400"/>
<path d="M102.797 51.3135C102.803 51.3957 102.803 51.478 102.805 51.5602C102.803 51.4804 102.803 51.3965 102.797 51.3135Z" fill="#FF7400"/>
<path d="M102.182 49.4219C102.213 49.4729 102.243 49.5255 102.272 49.5781C102.243 49.5255 102.213 49.4729 102.182 49.4219Z" fill="#FF7400"/>
<path d="M101.693 48.7871C101.74 48.8365 101.783 48.8882 101.827 48.9409C101.785 48.8882 101.741 48.8365 101.693 48.7871Z" fill="#FF7400"/>
<path d="M102.661 50.5156C102.68 50.5847 102.694 50.6538 102.709 50.7245C102.694 50.653 102.68 50.5839 102.661 50.5156Z" fill="#FF7400"/>
<path d="M102.748 50.9062C102.761 50.9844 102.77 51.0633 102.779 51.1431C102.77 51.0617 102.761 50.9844 102.748 50.9062Z" fill="#FF7400"/>
<path d="M4.93542 0.0292969C4.99957 0.0366977 5.06372 0.0441033 5.12787 0.0547934C5.06372 0.0441033 5.00039 0.0366977 4.93542 0.0292969Z" fill="#D4145A"/>
<path d="M5.70532 0.19043C5.76947 0.210989 5.83362 0.231552 5.89777 0.254579C5.83362 0.231552 5.77029 0.210989 5.70532 0.19043Z" fill="#D4145A"/>
<path d="M5.32361 0.0927734C5.38858 0.106754 5.45356 0.120722 5.51771 0.137169C5.45356 0.120722 5.38858 0.106754 5.32361 0.0927734Z" fill="#D4145A"/>
<path d="M4.14038 0.0143008C4.20453 0.00936656 4.26868 0.00442026 4.33283 0.00195312C4.26868 0.00442026 4.20124 0.00936656 4.14038 0.0143008Z" fill="#D4145A"/>
<path d="M4.53992 0.00195313C4.60406 0.00195313 4.66822 0.00194951 4.73236 0.00852871C4.66822 0.00441671 4.60406 0.00277552 4.53992 0.00195313Z" fill="#D4145A"/>
<path d="M2.94702 0.291636C3.01281 0.26532 3.07859 0.239001 3.14438 0.216797C3.07859 0.239824 3.01281 0.26532 2.94702 0.291636Z" fill="#D4145A"/>
<path d="M3.34009 0.16005C3.40506 0.141136 3.47081 0.122225 3.5366 0.107422C3.47081 0.122225 3.40506 0.141958 3.34009 0.16005Z" fill="#D4145A"/>
<path d="M3.73987 0.0654268C3.80401 0.053913 3.86895 0.0424038 3.93392 0.0341797C3.86813 0.0424038 3.80319 0.053913 3.73987 0.0654268Z" fill="#D4145A"/>
<path d="M7.68152 1.5332C7.72428 1.58419 7.76371 1.63601 7.80565 1.69029C7.76617 1.63601 7.72428 1.58419 7.68152 1.5332Z" fill="#D4145A"/>
<path d="M8.26609 2.42888C8.17892 2.2825 8.09009 2.12871 8.00292 1.98479C7.97825 1.94367 7.94944 1.90666 7.92065 1.86719C7.97164 1.94449 8.02348 2.02099 8.06953 2.10323C8.08762 2.12543 8.15342 2.23563 8.26609 2.42888Z" fill="#D4145A"/>
<path d="M7.40594 1.22559C7.452 1.27246 7.49887 1.31935 7.54327 1.36869C7.49887 1.32017 7.452 1.27246 7.40594 1.22559Z" fill="#D4145A"/>
<path d="M2.56525 0.468142C2.62939 0.434425 2.69436 0.400699 2.76015 0.371094C2.69436 0.400699 2.62939 0.434425 2.56525 0.468142Z" fill="#D4145A"/>
<path d="M6.77832 0.705078C6.83424 0.742907 6.891 0.780735 6.94281 0.821853C6.891 0.780735 6.83424 0.742907 6.77832 0.705078Z" fill="#D4145A"/>
<path d="M6.43549 0.5C6.49552 0.532895 6.55559 0.564976 6.61398 0.600338C6.55559 0.564976 6.49552 0.532895 6.43549 0.5Z" fill="#D4145A"/>
<path d="M6.07617 0.327148C6.1395 0.353464 6.20202 0.380608 6.2637 0.409391C6.20202 0.380608 6.1395 0.353464 6.07617 0.327148Z" fill="#D4145A"/>
<path d="M7.10657 0.949219C7.15838 0.991982 7.20936 1.03147 7.2587 1.07917C7.20607 1.03394 7.15509 0.991982 7.10657 0.949219Z" fill="#D4145A"/>
<path d="M1.55798 1.20232C1.60568 1.15462 1.65253 1.10773 1.70269 1.0625C1.65253 1.10773 1.60157 1.15544 1.55798 1.20232Z" fill="#D4145A"/>
<path d="M0.334229 4.07026C0.334229 4.00365 0.334225 3.93786 0.340804 3.87207C0.336692 3.93868 0.335051 4.00365 0.334229 4.07026Z" fill="#D4145A"/>
<path d="M0.493783 5.27775C0.473223 5.20785 0.453491 5.13713 0.437866 5.06641C0.453491 5.13631 0.474045 5.20702 0.493783 5.27775Z" fill="#D4145A"/>
<path d="M0.400184 4.8752C0.387849 4.80612 0.375501 4.73705 0.366455 4.66797C0.376323 4.73705 0.387027 4.80612 0.400184 4.8752Z" fill="#D4145A"/>
<path d="M0.42395 3.2849C0.437931 3.22075 0.451925 3.15497 0.468372 3.09082C0.451925 3.15168 0.437931 3.21664 0.42395 3.2849Z" fill="#D4145A"/>
<path d="M0.360657 3.67034C0.368058 3.60455 0.376268 3.53876 0.386959 3.47461C0.379557 3.54204 0.368058 3.60702 0.360657 3.67034Z" fill="#D4145A"/>
<path d="M2.31963 0.59963C2.27934 0.624301 2.24318 0.652241 2.20288 0.681847C2.26209 0.643195 2.3213 0.604544 2.38298 0.568359C2.3616 0.573294 2.34019 0.586472 2.31963 0.59963Z" fill="#D4145A"/>
<path d="M0.34655 4.47184C0.341616 4.4044 0.335873 4.33697 0.334229 4.26953C0.336695 4.33779 0.341616 4.4044 0.34655 4.47184Z" fill="#D4145A"/>
<path d="M0.524414 2.8967C0.544152 2.83255 0.564708 2.7684 0.587736 2.70508C0.564708 2.77251 0.545797 2.83584 0.524414 2.8967Z" fill="#D4145A"/>
<path d="M1.28149 1.50504C1.32426 1.4524 1.36374 1.4006 1.41391 1.34961C1.36785 1.39731 1.3259 1.44911 1.28149 1.50504Z" fill="#D4145A"/>
<path d="M1.86639 0.925789C1.91903 0.883848 1.97168 0.843545 2.02596 0.800781C1.97086 0.841078 1.91903 0.883848 1.86639 0.925789Z" fill="#D4145A"/>
<path d="M1.03906 1.82657C1.07689 1.76983 1.11555 1.7131 1.15667 1.66211C1.11555 1.7131 1.07689 1.76983 1.03906 1.82657Z" fill="#D4145A"/>
<path d="M0.831848 2.16953C0.864744 2.10867 0.897678 2.04945 0.93304 1.99023C0.897678 2.04945 0.864744 2.10867 0.831848 2.16953Z" fill="#D4145A"/>
<path d="M0.659912 2.52847C0.686229 2.46515 0.713373 2.40348 0.742157 2.3418C0.713373 2.40348 0.686229 2.46515 0.659912 2.52847Z" fill="#D4145A"/>
<path d="M102.779 51.1426C102.785 51.1985 102.793 51.2552 102.797 51.312C102.793 51.2544 102.785 51.1985 102.779 51.1426Z" fill="#29ABE2"/>
<path d="M102.649 52.7324C102.627 52.8147 102.604 52.892 102.577 52.9693C102.604 52.892 102.626 52.8122 102.649 52.7324Z" fill="#29ABE2"/>
<path d="M99.2041 55.7109C99.1383 55.7192 99.0725 55.7266 99.0067 55.7323C99.0733 55.7266 99.1383 55.7192 99.2041 55.7109Z" fill="#29ABE2"/>
<path d="M102.344 53.5078C102.311 53.5703 102.279 53.6328 102.244 53.6929C102.279 53.6328 102.312 53.5695 102.344 53.5078Z" fill="#29ABE2"/>
<path d="M102.742 52.3262C102.726 52.4084 102.712 52.4956 102.693 52.5778C102.712 52.4956 102.727 52.4109 102.742 52.3262Z" fill="#29ABE2"/>
<path d="M101.072 54.9756C101.005 55.0233 100.938 55.0693 100.868 55.1129C100.938 55.0718 101.005 55.0233 101.072 54.9756Z" fill="#29ABE2"/>
<path d="M102.516 53.1328C102.488 53.2044 102.46 53.2742 102.428 53.3433C102.459 53.2742 102.486 53.2044 102.516 53.1328Z" fill="#29ABE2"/>
<path d="M102.141 53.8574C102.105 53.9142 102.067 53.9709 102.028 54.0219C102.067 53.9742 102.106 53.9142 102.141 53.8574Z" fill="#29ABE2"/>
<path d="M102.809 51.699C102.809 51.653 102.809 51.6086 102.809 51.5625C102.809 51.6201 102.809 51.6776 102.809 51.736C102.806 51.727 102.808 51.7114 102.809 51.699Z" fill="#29ABE2"/>
<path d="M101.655 54.4707C101.605 54.5233 101.553 54.5751 101.5 54.6245C101.553 54.5784 101.605 54.5233 101.655 54.4707Z" fill="#29ABE2"/>
<path d="M101.375 54.7363C101.317 54.7873 101.257 54.8367 101.196 54.8844C101.258 54.8367 101.317 54.7873 101.375 54.7363Z" fill="#29ABE2"/>
<path d="M101.91 54.1777C101.868 54.232 101.828 54.2855 101.779 54.3373C101.825 54.2855 101.868 54.2279 101.91 54.1777Z" fill="#29ABE2"/>
<path d="M99.3959 47.5391C99.4781 47.5539 99.5603 47.5687 99.6426 47.5884C99.5628 47.5687 99.4789 47.5539 99.3959 47.5391Z" fill="#29ABE2"/>
<path d="M100.388 55.3711C100.314 55.4056 100.237 55.4394 100.16 55.469C100.24 55.4369 100.316 55.4032 100.388 55.3711Z" fill="#29ABE2"/>
<path d="M101.828 48.9404C101.871 48.9906 101.91 49.0408 101.954 49.0926C101.913 49.0408 101.871 48.9906 101.828 48.9404Z" fill="#29ABE2"/>
<path d="M102.77 52.1662C102.78 52.093 102.785 52.0174 102.792 51.9434C102.785 52.0182 102.781 52.0922 102.77 52.1662Z" fill="#29ABE2"/>
<path d="M100.948 48.1562C100.997 48.1891 101.047 48.2212 101.096 48.2558C101.047 48.2212 100.997 48.1891 100.948 48.1562Z" fill="#29ABE2"/>
<path d="M100.594 47.9473C100.651 47.9777 100.708 48.0065 100.763 48.0385C100.708 48.0065 100.651 47.9777 100.594 47.9473Z" fill="#29ABE2"/>
<path d="M102.598 50.3174C102.619 50.3824 102.642 50.4481 102.661 50.5147C102.642 50.4473 102.619 50.3824 102.598 50.3174Z" fill="#29ABE2"/>
<path d="M100.211 47.7715C100.278 47.7986 100.345 47.8241 100.41 47.8537C100.345 47.8241 100.282 47.7986 100.211 47.7715Z" fill="#29ABE2"/>
<path d="M100.014 55.5195C99.9403 55.545 99.8655 55.5689 99.7898 55.5903C99.8663 55.5689 99.9403 55.5434 100.014 55.5195Z" fill="#29ABE2"/>
<path d="M102.064 49.2461C102.104 49.3037 102.146 49.3612 102.182 49.4212C102.144 49.3629 102.104 49.3053 102.064 49.2461Z" fill="#29ABE2"/>
<path d="M99.8063 47.6318C99.8844 47.654 99.9617 47.6763 100.037 47.7018C99.9617 47.6754 99.8844 47.654 99.8063 47.6318Z" fill="#29ABE2"/>
<path d="M100.744 55.1855C100.671 55.2283 100.597 55.2678 100.523 55.3064C100.597 55.2686 100.671 55.2283 100.744 55.1855Z" fill="#29ABE2"/>
<path d="M102.71 50.7227C102.723 50.7835 102.738 50.8452 102.749 50.9069C102.738 50.8444 102.723 50.7835 102.71 50.7227Z" fill="#29ABE2"/>
<path d="M101.272 48.3936C101.318 48.4314 101.364 48.4668 101.407 48.5062C101.364 48.4668 101.318 48.4281 101.272 48.3936Z" fill="#29ABE2"/>
<path d="M98.5808 55.746H98.6729C98.7115 55.746 98.7494 55.7419 98.788 55.7402C98.6967 55.7402 98.6063 55.746 98.5142 55.7402L98.5808 55.746Z" fill="#29ABE2"/>
<path d="M102.451 49.9336C102.481 50.0002 102.51 50.0668 102.533 50.1351C102.51 50.0668 102.481 50.0002 102.451 49.9336Z" fill="#29ABE2"/>
<path d="M99.6168 55.6348C99.5469 55.6512 99.4762 55.6668 99.4047 55.6792C99.4762 55.6668 99.5461 55.6529 99.6168 55.6348Z" fill="#29ABE2"/>
<path d="M101.564 48.6543C101.608 48.6971 101.652 48.7365 101.694 48.7851C101.652 48.7398 101.608 48.6971 101.564 48.6543Z" fill="#29ABE2"/>
<path d="M102.272 49.5752C102.308 49.6393 102.344 49.7027 102.377 49.7676C102.344 49.7035 102.308 49.641 102.272 49.5752Z" fill="#29ABE2"/>
<path d="M0.334445 4.27016C0.334445 4.20355 0.334445 4.13693 0.334445 4.07031C0.333623 4.13693 0.332801 4.2019 0.334445 4.27016Z" fill="#29ABE2"/>
<path d="M0.587524 2.70942C0.609729 2.64856 0.635234 2.58933 0.659906 2.5293C0.635234 2.58851 0.609729 2.64856 0.587524 2.70942Z" fill="#29ABE2"/>
<path d="M0.366335 4.66839C0.358112 4.60342 0.352346 4.53762 0.347412 4.47266C0.353169 4.53845 0.358112 4.60342 0.366335 4.66839Z" fill="#29ABE2"/>
<path d="M0.932983 1.99066C0.966701 1.93474 1.00284 1.88045 1.03985 1.82617C1.00366 1.88127 0.966701 1.93556 0.932983 1.99066Z" fill="#29ABE2"/>
<path d="M0.468262 3.08872C0.484709 3.0254 0.504441 2.96289 0.524178 2.90039C0.504441 2.96289 0.484709 3.0254 0.468262 3.08872Z" fill="#29ABE2"/>
<path d="M0.386108 3.47696C0.396799 3.41117 0.409949 3.34704 0.423929 3.28125C0.409949 3.34622 0.396799 3.41117 0.386108 3.47696Z" fill="#29ABE2"/>
<path d="M0.34082 3.87285C0.344932 3.80624 0.353165 3.73962 0.359744 3.67383C0.352342 3.73962 0.344932 3.80624 0.34082 3.87285Z" fill="#29ABE2"/>
<path d="M0.74292 2.34179C0.770881 2.28422 0.80131 2.22667 0.831738 2.16992C0.80131 2.22667 0.767591 2.2834 0.74292 2.34179Z" fill="#29ABE2"/>
<path d="M0.437845 5.06413C0.423865 5.00163 0.41236 4.9375 0.400024 4.875C0.411537 4.93832 0.423042 5.00163 0.437845 5.06413Z" fill="#29ABE2"/>
<path d="M1.70264 1.05936C1.75527 1.01248 1.81115 0.967261 1.86707 0.922852C1.81115 0.967261 1.75527 1.01248 1.70264 1.05936Z" fill="#29ABE2"/>
<path d="M5.5177 0.136719C5.58102 0.153166 5.64267 0.172917 5.70518 0.191832C5.64267 0.172917 5.58185 0.153166 5.5177 0.136719Z" fill="#29ABE2"/>
<path d="M1.15674 1.65936C1.19621 1.60673 1.23901 1.55489 1.28177 1.50391C1.23901 1.55489 1.19621 1.60673 1.15674 1.65936Z" fill="#29ABE2"/>
<path d="M5.89697 0.255859C5.95701 0.278064 6.01703 0.30274 6.07541 0.327411C6.01703 0.30274 5.95701 0.278064 5.89697 0.255859Z" fill="#29ABE2"/>
<path d="M6.26367 0.410156C6.32124 0.438117 6.37879 0.468552 6.43554 0.499802C6.37879 0.468552 6.32124 0.438117 6.26367 0.410156Z" fill="#29ABE2"/>
<path d="M7.25623 1.0791C7.30721 1.12598 7.35742 1.1753 7.40676 1.22547C7.35742 1.1753 7.30804 1.12598 7.25623 1.0791Z" fill="#29ABE2"/>
<path d="M6.94543 0.822266C6.99889 0.862562 7.05148 0.904517 7.10329 0.948103C7.05148 0.905339 6.99971 0.858451 6.94543 0.822266Z" fill="#29ABE2"/>
<path d="M7.80573 1.69141C7.84767 1.74897 7.88794 1.80984 7.92659 1.86987C7.88712 1.80984 7.84767 1.7498 7.80573 1.69141Z" fill="#29ABE2"/>
<path d="M7.54346 1.36914C7.59116 1.42177 7.63636 1.47768 7.68159 1.5336C7.63636 1.47768 7.59116 1.42177 7.54346 1.36914Z" fill="#29ABE2"/>
<path d="M6.61328 0.600586C6.6692 0.634304 6.72431 0.670493 6.77777 0.7075C6.72431 0.670493 6.6692 0.634304 6.61328 0.600586Z" fill="#29ABE2"/>
<path d="M2.75952 0.371096C2.8212 0.343135 2.88452 0.318463 2.94619 0.292969C2.88369 0.31764 2.8212 0.342313 2.75952 0.371096Z" fill="#29ABE2"/>
<path d="M3.14429 0.217431C3.20843 0.195227 3.2742 0.176295 3.34 0.158203C3.2742 0.176295 3.20843 0.196872 3.14429 0.217431Z" fill="#29ABE2"/>
<path d="M2.44193 0.529612C2.42137 0.540303 2.40331 0.554294 2.38275 0.56663C2.44279 0.531267 2.50365 0.500001 2.56451 0.46875C2.52421 0.488488 2.48223 0.505762 2.44193 0.529612Z" fill="#29ABE2"/>
<path d="M2.026 0.798774C2.08357 0.757655 2.14362 0.71654 2.20283 0.678711C2.14362 0.718185 2.08357 0.756833 2.026 0.798774Z" fill="#29ABE2"/>
<path d="M5.12781 0.0537109C5.1936 0.0644016 5.25855 0.0783735 5.32352 0.0915313C5.25855 0.0783735 5.19689 0.0644016 5.12781 0.0537109Z" fill="#29ABE2"/>
<path d="M1.41394 1.34837C1.45999 1.2982 1.50855 1.24969 1.5579 1.20117C1.50773 1.25051 1.45999 1.29738 1.41394 1.34837Z" fill="#29ABE2"/>
<path d="M4.73303 0.00976562C4.80129 0.0138775 4.86871 0.0212874 4.93697 0.0286889C4.86707 0.0253994 4.79964 0.0138775 4.73303 0.00976562Z" fill="#29ABE2"/>
<path d="M4.33179 0.00095129C4.40169 0.00095129 4.46996 0.00095129 4.53904 0.00095129C4.46996 0.000127449 4.40169 -0.000696393 4.33179 0.00095129Z" fill="#29ABE2"/>
<path d="M3.53674 0.106711C3.60418 0.0910862 3.67164 0.0787416 3.73908 0.0664062C3.67493 0.0787416 3.60418 0.0910862 3.53674 0.106711Z" fill="#29ABE2"/>
<path d="M3.93304 0.0352025C4.00212 0.0261565 4.07122 0.020405 4.1403 0.0146484C4.07122 0.0220497 4.00212 0.0261565 3.93304 0.0352025Z" fill="#29ABE2"/>
<path d="M55.1815 74.282C60.3537 69.3076 60.5476 61.1168 55.6144 55.9874C50.6812 50.858 42.4891 50.7324 37.3168 55.7068C32.1445 60.6813 31.9507 68.8721 36.8839 74.0015C41.8171 79.1309 50.0092 79.2565 55.1815 74.282Z" fill="#FF1755"/>
<path d="M31.0144 54.9071C32.4734 49.0045 28.8314 43.027 22.8799 41.556C16.9283 40.085 10.921 43.6775 9.46205 49.58C8.00313 55.4826 11.6451 61.4601 17.5966 62.9311C23.5481 64.4021 29.5555 60.8097 31.0144 54.9071Z" fill="#610073"/>
<path d="M62.2471 51.8589C60.4641 52.5036 58.6327 53.2487 56.7758 54.1007C57.2005 54.5103 57.6009 54.9444 57.9748 55.4009C59.3842 57.1254 60.3884 59.1444 60.9132 61.3089C62.1741 60.7535 63.4626 60.2326 64.7784 59.7463C72.9208 56.8475 81.4959 55.3503 90.139 55.3186C81.582 54.6734 73.105 53.2228 64.8203 50.9863C63.9667 51.2602 63.1097 51.5464 62.2471 51.8589Z" fill="#FF7400"/>
<path d="M34.5231 74.5874C33.9785 73.918 33.4932 73.2026 33.0724 72.4492C30.7084 75.3839 28.5871 78.5061 26.7294 81.7849C26.7943 92.732 26.035 103.669 24.4579 114.502C26.7513 99.7114 31.576 87.6287 38.9319 78.2536C37.2393 77.3277 35.7421 76.0828 34.5231 74.5874Z" fill="#FF7400"/>
<path d="M20.4966 39.3936C21.1437 39.4088 21.7889 39.472 22.4267 39.5827C21.4316 35.0703 20.305 30.9066 19.0969 27.0579C8.09096 17.5585 2.4938 8.88326 1.16895 6.6875C7.48319 17.2008 11.6058 29.0077 14.2267 40.836C16.1612 39.8333 18.3183 39.337 20.4966 39.3936Z" fill="#D4145A"/>
<path d="M0.629484 5.67083C0.600701 5.59929 0.573557 5.5294 0.547241 5.45703C0.573557 5.52858 0.600701 5.59929 0.629484 5.67083Z" fill="#D4145A"/>
<path d="M0.8037 6.04707C0.767516 5.97799 0.732178 5.90975 0.700928 5.83984C0.732178 5.91139 0.767516 5.97963 0.8037 6.04707Z" fill="#D4145A"/>
<path d="M26.6414 75.6089C26.5295 71.497 26.305 67.5587 25.995 63.7773C24.1225 64.6961 22.0553 65.1476 19.9702 65.0931C19.22 65.0753 18.4727 64.9928 17.7366 64.8464C19.0053 81.0274 18.509 97.2983 16.2563 113.372V113.384C18.2399 100.485 21.9817 90.1231 26.7326 81.7825C26.7277 79.7836 26.6973 77.7257 26.6414 75.6089Z" fill="#D4145A"/>
<path d="M16.2523 113.388C16.2408 113.459 16.2358 113.529 16.2276 113.6C16.2194 113.671 16.2087 113.755 16.2037 113.831C16.2037 113.893 16.2037 113.955 16.2037 114.016C16.2037 114.093 16.2037 114.17 16.2037 114.247C16.2037 114.307 16.2136 114.368 16.2193 114.43C16.2259 114.505 16.2309 114.58 16.2424 114.654C16.2514 114.714 16.2646 114.775 16.2761 114.835C16.2876 114.895 16.3024 114.979 16.3189 115.05C16.3353 115.121 16.3534 115.169 16.3707 115.228C16.388 115.288 16.4101 115.367 16.4332 115.434C16.4562 115.501 16.4784 115.549 16.5022 115.608C16.5261 115.666 16.5541 115.74 16.5845 115.804C16.6149 115.868 16.6404 115.914 16.6667 115.969C16.693 116.023 16.7309 116.095 16.7671 116.156C16.8032 116.217 16.8329 116.26 16.8657 116.312C16.8986 116.363 16.9422 116.432 16.9842 116.489C17.0261 116.547 17.059 116.585 17.0976 116.632C17.1363 116.679 17.1856 116.746 17.2325 116.797C17.2794 116.848 17.3148 116.884 17.3575 116.928C17.4003 116.973 17.4571 117.033 17.5097 117.082C17.5623 117.131 17.6026 117.164 17.6487 117.202C17.6947 117.24 17.7564 117.297 17.8131 117.34C17.8699 117.384 17.9159 117.414 17.9686 117.451C18.0212 117.487 18.0821 117.533 18.1413 117.569C18.2005 117.605 18.2564 117.635 18.3139 117.667C18.3715 117.699 18.4324 117.735 18.494 117.765C18.5557 117.796 18.6207 117.822 18.684 117.848C18.7474 117.873 18.8057 117.903 18.8682 117.93C18.9307 117.957 19.0048 117.976 19.0738 117.998C19.1429 118.02 19.1989 118.04 19.2638 118.057C19.3288 118.075 19.4069 118.09 19.4793 118.105C19.5516 118.121 19.6059 118.134 19.6709 118.145C19.8913 118.181 20.1144 118.2 20.3378 118.201H20.3436H20.3896C20.4982 118.201 20.6067 118.196 20.7145 118.186C20.7737 118.18 20.8313 118.17 20.8897 118.162C20.948 118.154 21.0155 118.148 21.0771 118.136C21.1388 118.125 21.2088 118.107 21.2745 118.092C21.3272 118.08 21.3798 118.07 21.4316 118.056C21.4974 118.038 21.5607 118.015 21.6257 117.993C21.6759 117.977 21.7268 117.963 21.7753 117.945C21.8239 117.927 21.8963 117.895 21.9555 117.868C22.0147 117.842 22.0574 117.827 22.1068 117.804C22.1561 117.781 22.2186 117.747 22.2713 117.716C22.3239 117.686 22.3724 117.665 22.4209 117.634C22.4695 117.603 22.5246 117.568 22.5747 117.535C22.6249 117.502 22.6742 117.474 22.7219 117.44C22.7696 117.406 22.8149 117.368 22.8617 117.333C22.9086 117.298 22.9596 117.26 23.0056 117.221C23.0517 117.182 23.0879 117.145 23.1298 117.108C23.1718 117.07 23.2244 117.025 23.2696 116.978C23.3148 116.93 23.3444 116.895 23.3814 116.856C23.4185 116.816 23.4695 116.762 23.5114 116.713C23.5533 116.664 23.5797 116.625 23.6134 116.581C23.6471 116.538 23.6956 116.48 23.731 116.426C23.7664 116.372 23.7918 116.331 23.8223 116.284C23.8527 116.238 23.893 116.176 23.925 116.12C23.9571 116.064 23.9777 116.019 24.0073 115.968C24.0369 115.917 24.0682 115.853 24.0953 115.794C24.1224 115.735 24.1397 115.687 24.1619 115.63C24.1841 115.572 24.2129 115.51 24.2351 115.447C24.2573 115.385 24.2705 115.335 24.2878 115.283C24.305 115.23 24.328 115.156 24.3445 115.09C24.3609 115.024 24.3691 114.977 24.3815 114.92C24.3979 114.843 24.416 114.766 24.4283 114.687C24.4374 114.624 24.4497 114.562 24.4596 114.499C26.0367 103.666 26.7959 92.7294 26.731 81.7822C21.9785 90.1269 18.2359 100.489 16.2523 113.388Z" fill="#9B0B46"/>
<path d="M102.805 51.563C102.805 51.4807 102.805 51.3985 102.797 51.3163C102.797 51.2595 102.785 51.2028 102.779 51.1469C102.77 51.0646 102.762 50.9881 102.748 50.91C102.737 50.8483 102.722 50.7866 102.709 50.7258C102.696 50.6649 102.68 50.586 102.661 50.5169C102.642 50.4478 102.62 50.3853 102.598 50.3195C102.577 50.2537 102.559 50.1978 102.536 50.1378C102.514 50.0777 102.481 50.0029 102.454 49.9363C102.428 49.8697 102.407 49.8261 102.379 49.7718C102.352 49.7176 102.311 49.6435 102.274 49.5794C102.237 49.5153 102.216 49.4741 102.185 49.4231C102.153 49.3722 102.106 49.3064 102.066 49.248C102.026 49.1896 101.995 49.1435 101.956 49.0934C101.917 49.0432 101.874 48.9914 101.83 48.9412C101.786 48.8911 101.743 48.8376 101.697 48.7874C101.651 48.7373 101.61 48.6994 101.567 48.6567C101.523 48.6139 101.464 48.5555 101.41 48.5078C101.356 48.4601 101.32 48.433 101.274 48.3952C101.228 48.3573 101.159 48.3022 101.099 48.2586C101.039 48.2151 101.001 48.1912 100.951 48.1591C100.901 48.1271 100.829 48.0769 100.766 48.0407C100.703 48.0045 100.653 47.9799 100.596 47.9494C100.54 47.919 100.475 47.8845 100.413 47.8565C100.351 47.8285 100.282 47.8006 100.214 47.7743C100.147 47.748 100.099 47.7274 100.041 47.706C99.9649 47.6797 99.8868 47.6583 99.8095 47.6361C99.756 47.6205 99.7026 47.604 99.645 47.5909C99.5628 47.5711 99.4805 47.5563 99.3983 47.5415C99.1888 47.5025 98.9765 47.4797 98.7634 47.4733C95.8308 47.4091 92.9919 47.2504 90.2254 47.0234C81.6067 47.0568 73.0426 48.3938 64.8237 50.989C73.1084 53.2255 81.5855 54.676 90.1424 55.3213C92.8563 55.5326 95.6367 55.6815 98.4978 55.7456H98.5167C98.6088 55.7456 98.6993 55.7456 98.7906 55.7456C98.8638 55.7456 98.9377 55.7407 99.0101 55.7349C99.0825 55.7292 99.1417 55.7217 99.2075 55.7135C99.2733 55.7053 99.3415 55.6954 99.4081 55.6831C99.4748 55.6708 99.5496 55.6551 99.6203 55.6387C99.691 55.6222 99.7363 55.6107 99.793 55.5951C99.8687 55.5737 99.9435 55.5499 100.018 55.5244C100.067 55.5071 100.116 55.4899 100.166 55.4709C100.243 55.4413 100.319 55.4076 100.394 55.3731C100.439 55.3533 100.482 55.3328 100.526 55.3114C100.601 55.2736 100.674 55.2292 100.747 55.1905C100.789 55.1658 100.829 55.142 100.871 55.1165C100.941 55.0729 101.008 55.0268 101.075 54.9791C101.117 54.9495 101.157 54.9199 101.199 54.8879C101.261 54.8402 101.32 54.7908 101.379 54.7398C101.421 54.7036 101.461 54.6667 101.504 54.628C101.546 54.5893 101.608 54.5268 101.658 54.4742C101.708 54.4216 101.74 54.3862 101.782 54.341C101.823 54.2958 101.87 54.2357 101.913 54.1814C101.956 54.1272 101.995 54.0811 102.03 54.0293C102.064 53.9775 102.106 53.9175 102.143 53.8648C102.18 53.8122 102.214 53.7563 102.246 53.7003C102.278 53.6444 102.314 53.577 102.347 53.5153C102.379 53.4536 102.404 53.4051 102.429 53.3508C102.453 53.2966 102.489 53.2118 102.517 53.1403C102.538 53.0868 102.559 53.0334 102.578 52.9758C102.606 52.8985 102.629 52.8187 102.651 52.739C102.665 52.688 102.681 52.637 102.694 52.5844C102.713 52.5021 102.728 52.4199 102.743 52.3327C102.752 52.2784 102.763 52.2258 102.771 52.1682C102.782 52.0934 102.786 52.0202 102.792 51.9454C102.799 51.8705 102.805 51.8089 102.807 51.739C102.81 51.6691 102.805 51.6205 102.805 51.563Z" fill="#008815"/>
<path d="M53.0989 38.2695C52.8689 41.1237 51.5695 43.7857 49.4607 45.7228C54.4607 47.8099 59.5918 49.568 64.8211 50.986C73.0399 48.3909 81.604 47.0539 90.2228 47.0205C77.4682 46.0531 64.9428 43.1005 53.0989 38.2695Z" fill="#29ABE2"/>
<path d="M0.548156 5.45549C0.527596 5.39628 0.510344 5.33542 0.493896 5.27539C0.511166 5.33707 0.528419 5.39545 0.548156 5.45549Z" fill="#29ABE2"/>
<path d="M0.701068 5.84081C0.674752 5.78407 0.651721 5.72569 0.629517 5.66895C0.652543 5.72651 0.675575 5.78407 0.701068 5.84081Z" fill="#29ABE2"/>
<path d="M23.3938 30.582C25.532 32.2498 27.9169 33.9702 30.5411 35.6915C30.9892 32.8629 32.5014 30.3125 34.7681 28.5623C32.5971 27.1256 30.6044 25.6922 28.8001 24.299C15.8731 14.3178 9.43881 4.34481 8.27185 2.43359C12.8392 10.1875 16.4739 18.4541 19.1001 27.0614C20.4483 28.2248 21.8795 29.3984 23.3938 30.582Z" fill="#29ABE2"/>
<path d="M0.803955 6.0498C0.823692 6.08763 0.840146 6.12712 0.861528 6.16495C0.891133 6.21758 0.995595 6.40097 1.16912 6.6888C1.08688 6.55558 1.01286 6.41988 0.931448 6.28747C0.885395 6.21017 0.845074 6.12958 0.803955 6.0498Z" fill="#29ABE2"/>
<path d="M19.0986 27.0583C16.4724 18.451 12.8377 10.1844 8.27035 2.43049C8.15357 2.23888 8.08859 2.12621 8.07625 2.10154C8.0302 2.0193 7.97754 1.94283 7.92738 1.86553C7.8879 1.8055 7.84516 1.74463 7.80651 1.68706C7.76786 1.6295 7.72427 1.58097 7.68233 1.52998C7.64039 1.47899 7.59266 1.41815 7.54414 1.36552C7.49562 1.31289 7.45287 1.26929 7.40681 1.22242C7.36076 1.17554 7.30812 1.1229 7.25713 1.07603C7.20615 1.02915 7.15681 0.98804 7.10499 0.946099C7.05318 0.904157 7.00059 0.863873 6.94713 0.820287C6.89368 0.776701 6.8361 0.73805 6.78265 0.70351C6.72919 0.66897 6.67408 0.630314 6.61816 0.596597C6.56224 0.562879 6.49976 0.528331 6.43972 0.496259C6.37969 0.464186 6.3262 0.435395 6.26781 0.406612C6.20942 0.377829 6.14283 0.350685 6.08033 0.324369C6.01783 0.298053 5.96193 0.275046 5.90189 0.252842C5.84186 0.230638 5.77359 0.209253 5.70945 0.188694C5.6453 0.168134 5.58442 0.150028 5.52192 0.133581C5.45942 0.117133 5.39366 0.103165 5.32787 0.089184C5.26208 0.0752036 5.1979 0.0612313 5.13211 0.0513628C5.06632 0.0414942 5.00382 0.0340879 4.93967 0.0258641C4.87552 0.0176403 4.80399 0.0110528 4.73573 0.00694094C4.66747 0.00282903 4.60743 0.00118788 4.54329 0.000365503C4.47914 -0.000456878 4.40512 0.000365503 4.33604 0.000365503C4.26696 0.000365503 4.20779 0.00775388 4.14364 0.0126882C4.0795 0.0176225 4.00547 0.0242216 3.93639 0.0332678C3.86731 0.042314 3.80643 0.0530003 3.74229 0.0645136C3.67814 0.076027 3.60744 0.0891692 3.54001 0.104794C3.47257 0.12042 3.40841 0.138533 3.34345 0.157448C3.27848 0.176363 3.21271 0.194448 3.14774 0.216652C3.08277 0.238856 3.01612 0.265175 2.95033 0.291492C2.88454 0.317808 2.82533 0.340835 2.76365 0.369619C2.70198 0.398402 2.63372 0.432926 2.56875 0.466644C2.50378 0.500362 2.44703 0.52916 2.387 0.564523C2.32696 0.599885 2.26693 0.63936 2.2069 0.678012C2.14687 0.716663 2.08686 0.760246 2.03012 0.798076C1.97337 0.835906 1.92318 0.880321 1.87055 0.923084C1.81792 0.965848 1.76034 1.01271 1.70606 1.05959C1.65179 1.10646 1.60823 1.15171 1.56135 1.1994C1.51448 1.2471 1.46268 1.29643 1.41745 1.3466C1.37222 1.39676 1.3278 1.44939 1.28503 1.50202C1.24227 1.55466 1.20277 1.60482 1.16 1.65745C1.11724 1.71008 1.07781 1.7693 1.04245 1.82194C1.00708 1.87457 0.969226 1.9305 0.935508 1.98642C0.901791 2.04234 0.867262 2.10483 0.834367 2.16569C0.801472 2.22655 0.773509 2.27919 0.745548 2.33758C0.717587 2.39597 0.689622 2.46093 0.663305 2.52425C0.636989 2.58758 0.61313 2.64349 0.590925 2.70435C0.568721 2.76521 0.547343 2.83182 0.527605 2.89597C0.507868 2.96011 0.488137 3.02097 0.471689 3.08429C0.455242 3.14762 0.440451 3.2134 0.427293 3.27837C0.414134 3.34334 0.400137 3.40831 0.389446 3.4741C0.378755 3.53989 0.371368 3.60404 0.363144 3.66983C0.354921 3.73562 0.348333 3.80224 0.344221 3.86885C0.340109 3.93547 0.338468 4.00043 0.337646 4.06705C0.336823 4.13366 0.337646 4.20025 0.337646 4.26687C0.337646 4.33348 0.345034 4.40174 0.349968 4.46918C0.354903 4.53661 0.360668 4.59994 0.368892 4.66491C0.377115 4.72988 0.389464 4.80308 0.402622 4.87216C0.41578 4.94124 0.425641 4.99879 0.440443 5.06129C0.455246 5.12379 0.476622 5.20276 0.49636 5.27266C0.516097 5.34256 0.530907 5.39272 0.550645 5.45275C0.570382 5.51279 0.60246 5.59501 0.632888 5.66656C0.655914 5.72412 0.678921 5.7817 0.704414 5.83845C0.735665 5.90835 0.77185 5.97659 0.807212 6.04567C0.842574 6.11475 0.889455 6.20604 0.935508 6.28334C1.01775 6.41575 1.09261 6.55144 1.1732 6.68467C2.49559 8.88536 8.09189 17.5599 19.0986 27.0583Z" fill="#03005C"/>
<path d="M45.7879 46.241C50.6939 43.9981 52.8677 38.2356 50.6433 33.37C48.4189 28.5045 42.6385 26.3785 37.7325 28.6214C32.8265 30.8644 30.6527 36.6269 32.8771 41.4924C35.1015 46.3579 40.8819 48.4839 45.7879 46.241Z" fill="#FF7A17"/>
</svg>
