<svg width="16" height="16" viewBox="0 0 16 16" fill="none" xmlns="http://www.w3.org/2000/svg">
<path fill-rule="evenodd" clip-rule="evenodd" d="M1.87704 8.18207C2.14469 8.1141 2.41676 8.27596 2.48473 8.54361C2.94969 10.3744 2.94969 12.2923 2.48473 14.1231C2.41676 14.3907 2.14469 14.5526 1.87704 14.4846C1.6094 14.4167 1.44753 14.1446 1.5155 13.8769C1.93944 12.2077 1.93944 10.459 1.5155 8.78976C1.44753 8.52212 1.6094 8.25004 1.87704 8.18207Z" fill="#A49EA5"/>
<path fill-rule="evenodd" clip-rule="evenodd" d="M5.33325 10.8333C5.60939 10.8333 5.83325 11.0572 5.83325 11.3333V14C5.83325 14.2761 5.60939 14.5 5.33325 14.5C5.05711 14.5 4.83325 14.2761 4.83325 14V11.3333C4.83325 11.0572 5.05711 10.8333 5.33325 10.8333Z" fill="#A49EA5"/>
<path fill-rule="evenodd" clip-rule="evenodd" d="M1.83276 11.3333C1.83276 11.0572 2.05662 10.8333 2.33276 10.8333H5.33323C5.60937 10.8333 5.83323 11.0572 5.83323 11.3333C5.83323 11.6095 5.60937 11.8333 5.33323 11.8333H2.33276C2.05662 11.8333 1.83276 11.6095 1.83276 11.3333Z" fill="#A49EA5"/>
<path fill-rule="evenodd" clip-rule="evenodd" d="M14.1232 8.18207C14.3908 8.25004 14.5527 8.52212 14.4847 8.78976C14.0608 10.459 14.0608 12.2077 14.4847 13.8769C14.5527 14.1446 14.3908 14.4167 14.1232 14.4846C13.8555 14.5526 13.5834 14.3907 13.5155 14.1231C13.0505 12.2923 13.0505 10.3744 13.5155 8.54361C13.5834 8.27596 13.8555 8.1141 14.1232 8.18207Z" fill="#A49EA5"/>
<path fill-rule="evenodd" clip-rule="evenodd" d="M10.6667 10.8333C10.9429 10.8333 11.1667 11.0572 11.1667 11.3333V14C11.1667 14.2761 10.9429 14.5 10.6667 14.5C10.3906 14.5 10.1667 14.2761 10.1667 14V11.3333C10.1667 11.0572 10.3906 10.8333 10.6667 10.8333Z" fill="#A49EA5"/>
<path fill-rule="evenodd" clip-rule="evenodd" d="M10.1667 11.3333C10.1667 11.0572 10.3906 10.8333 10.6667 10.8333H13.6672C13.9433 10.8333 14.1672 11.0572 14.1672 11.3333C14.1672 11.6095 13.9433 11.8333 13.6672 11.8333H10.6667C10.3906 11.8333 10.1667 11.6095 10.1667 11.3333Z" fill="#A49EA5"/>
<path fill-rule="evenodd" clip-rule="evenodd" d="M8 4.83331C8.27614 4.83331 8.5 5.05717 8.5 5.33331V14C8.5 14.2761 8.27614 14.5 8 14.5C7.72386 14.5 7.5 14.2761 7.5 14V5.33331C7.5 5.05717 7.72386 4.83331 8 4.83331Z" fill="#A49EA5"/>
<path fill-rule="evenodd" clip-rule="evenodd" d="M4.16675 9.33331C4.16675 9.05717 4.39061 8.83331 4.66675 8.83331H11.3334C11.6096 8.83331 11.8334 9.05717 11.8334 9.33331C11.8334 9.60946 11.6096 9.83331 11.3334 9.83331H4.66675C4.39061 9.83331 4.16675 9.60946 4.16675 9.33331Z" fill="#A49EA5"/>
<path fill-rule="evenodd" clip-rule="evenodd" d="M1.19935 3.52808C5.02118 -0.0649433 10.9787 -0.0649433 14.8005 3.52808L14.804 3.53135L14.8039 3.53136C15.0366 3.75429 15.1676 4.06283 15.1666 4.385C15.1666 4.38544 15.1666 4.38588 15.1666 4.38632L14.6666 4.38413H15.1666V4.385V4.66664C15.1666 5.31097 14.6443 5.83331 13.9999 5.83331H1.99992C1.35559 5.83331 0.833252 5.31097 0.833252 4.66664V4.38507C0.833253 4.38549 0.833255 4.38591 0.833257 4.38632L1.33325 4.38413H0.833252V4.38507M1.88659 4.25452C1.8523 4.288 1.83304 4.33396 1.83325 4.38193L1.83326 4.38413L1.83325 4.66664C1.83325 4.75869 1.90787 4.83331 1.99992 4.83331H13.9999C14.092 4.83331 14.1666 4.75869 14.1666 4.66664V4.38413L14.1666 4.38193C14.1668 4.33397 14.1475 4.28802 14.1133 4.25455C10.6771 1.02624 5.32282 1.02624 1.88659 4.25452Z" fill="#A49EA5"/>
</svg>
