<svg width="784" height="937" viewBox="0 0 784 937" fill="none" xmlns="http://www.w3.org/2000/svg">
<path d="M1 936C1 936 1 853.956 72.833 853.956C144.666 853.956 673.21 853.956 714.024 853.956C754.838 853.956 783 801.928 783 751.401C783 703.732 742.594 663.354 714.024 663.354C685.454 663.354 103.444 663.354 72.833 663.354C42.2222 663.354 1 622.832 1 564.302C1 513.704 42.2222 469.251 72.833 469.251C103.444 469.251 681.781 469.251 714.024 469.251C746.267 469.251 783 431.73 783 370.198C783 323.089 746.675 284.152 714.024 284.152C681.373 284.152 106.709 284.152 72.833 284.152C38.9572 284.152 1.00027 234.625 1 185.099C0.999697 130.057 39.7732 75.0408 72.833 75.0401C105.893 75.0394 645.048 75.0401 714.024 75.0401C783 75.0401 783 1 783 1" stroke="#081429" stroke-opacity="0.1" stroke-width="2" stroke-linecap="round"/>
</svg>
