<svg width="37" height="24" viewBox="0 0 37 24" fill="none" xmlns="http://www.w3.org/2000/svg">
<path d="M0 14.3611C0 20.3643 3.28889 24 8.30444 24C12.7444 24 15.7044 21.2098 15.7044 17.2359C15.7044 13.7693 13.0733 10.9791 9.45555 10.9791C8.88 10.9791 8.22222 11.0636 7.56444 11.2327C8.55111 7.34336 12.2511 5.39867 17.1022 6.07508V0.156481C7.97556 -1.1118 0 5.48322 0 14.3611ZM19.8978 14.3611C19.8978 20.3643 23.1867 24 28.2022 24C32.7244 24 35.6022 21.2098 35.6022 17.2359C35.6022 13.7693 32.9711 10.9791 29.3533 10.9791C28.7778 10.9791 28.12 11.0636 27.4622 11.2327C28.4489 7.34336 32.1489 5.39867 37 6.07508V0.156481C27.8733 -1.1118 19.8978 5.48322 19.8978 14.3611Z" fill="#F0D338"/>
</svg>
