<svg width="180" height="180" viewBox="0 0 180 180" fill="none" xmlns="http://www.w3.org/2000/svg">
<g filter="url(#filter0_d_1325_727)">
<circle cx="82" cy="82" r="40" fill="#EFCE1E"/>
</g>
<path d="M91 77V87C91 90 89.5 92 86 92H78C74.5 92 73 90 73 87V77C73 74 74.5 72 78 72H86C89.5 72 91 74 91 77Z" stroke="#081429" stroke-width="1.5" stroke-miterlimit="10" stroke-linecap="round" stroke-linejoin="round"/>
<path d="M85.5 72V79.86C85.5 80.3 84.98 80.52 84.66 80.23L82.34 78.09C82.15 77.91 81.85 77.91 81.66 78.09L79.34 80.23C79.02 80.52 78.5 80.3 78.5 79.86V72H85.5Z" stroke="#081429" stroke-width="1.5" stroke-miterlimit="10" stroke-linecap="round" stroke-linejoin="round"/>
<path d="M83.25 84H87.5" stroke="#081429" stroke-width="1.5" stroke-miterlimit="10" stroke-linecap="round" stroke-linejoin="round"/>
<path d="M79 88H87.5" stroke="#081429" stroke-width="1.5" stroke-miterlimit="10" stroke-linecap="round" stroke-linejoin="round"/>
<defs>
<filter id="filter0_d_1325_727" x="0" y="0" width="180" height="180" filterUnits="userSpaceOnUse" color-interpolation-filters="sRGB">
<feFlood flood-opacity="0" result="BackgroundImageFix"/>
<feColorMatrix in="SourceAlpha" type="matrix" values="0 0 0 0 0 0 0 0 0 0 0 0 0 0 0 0 0 0 127 0" result="hardAlpha"/>
<feOffset dx="8" dy="8"/>
<feGaussianBlur stdDeviation="25"/>
<feComposite in2="hardAlpha" operator="out"/>
<feColorMatrix type="matrix" values="0 0 0 0 0.0313726 0 0 0 0 0.0784314 0 0 0 0 0.160784 0 0 0 0.12 0"/>
<feBlend mode="normal" in2="BackgroundImageFix" result="effect1_dropShadow_1325_727"/>
<feBlend mode="normal" in="SourceGraphic" in2="effect1_dropShadow_1325_727" result="shape"/>
</filter>
</defs>
</svg>
