<svg width="80" height="50" viewBox="0 0 80 50" fill="none" xmlns="http://www.w3.org/2000/svg">
<path d="M37.9506 7.17268C37.5806 7.27508 37.2172 7.39977 36.8622 7.54603C36.294 7.87638 35.8553 8.39042 35.6183 9.00349C35.3814 9.61656 35.3604 10.2921 35.5587 10.9187C35.7522 11.5499 36.1682 12.0895 36.7294 12.4374C37.1624 12.6915 37.6633 12.8059 38.1638 12.7652C38.6642 12.7244 39.14 12.5304 39.5262 12.2096C40.874 11.2478 41.1018 9.85564 40.6272 8.28003C40.4815 7.73208 40.2149 7.22372 39.847 6.7923C39.4791 6.36087 39.0192 6.01734 38.5011 5.78691C37.2545 5.24022 35.8885 5.02236 34.5336 5.15413C31.4647 5.40724 29.2879 7.11574 27.5731 9.51395C26.5764 10.8797 25.8406 12.4178 25.4027 14.0509C25.099 15.2089 24.7383 16.3479 24.4219 17.5059C24.0549 18.8157 23.7132 20.1382 23.3525 21.4544C23.0699 22.4963 22.7788 23.551 22.4793 24.6182C22.0575 26.0441 21.6715 27.4699 21.3213 28.8958C20.9923 30.1613 20.6886 31.4269 20.2962 32.6924C19.9039 33.958 19.5622 35.3564 19.1826 36.6789C18.8598 37.7926 18.5498 38.9189 18.2967 40.0452C18.1195 40.7729 17.9044 41.4879 17.7082 42.2093C17.512 42.9307 17.2779 43.7976 17.0754 44.5949C16.9299 45.1201 16.7907 45.1834 16.2592 44.9556C15.3353 44.5337 14.4283 44.0907 13.5382 43.6267C12.2569 42.9204 11.0187 42.1386 9.83018 41.2854C7.95864 39.9848 6.25792 38.4542 4.768 36.7295C3.46397 35.2503 2.38123 33.59 1.55352 31.8002C1.1899 30.9793 0.885391 30.1334 0.642327 29.2691C0.164218 27.6086 -0.0493238 25.8832 0.00955378 24.1563C0.0535465 23.3329 0.161429 22.5141 0.332255 21.7075C0.58834 20.3662 1.01358 19.0628 1.5978 17.8286C2.35284 16.2345 3.31218 14.7456 4.45161 13.3992C5.74161 11.858 7.1997 10.4657 8.79876 9.24816C10.8575 7.67217 13.0734 6.31296 15.4112 5.1921C16.6135 4.61628 17.8411 4.11638 19.0687 3.61017C20.6316 2.97739 22.2325 2.53444 23.8651 2.05353C24.6181 1.82573 25.3964 1.66754 26.162 1.49669C26.9277 1.32584 27.5225 1.24362 28.1933 1.06011C28.44 0.996836 28.7121 0.996808 28.9716 0.952514C30.7256 0.629905 32.4957 0.401806 34.2742 0.269147C36.3921 0.0698085 38.519 -0.018928 40.6462 0.00335471C42.1459 0.0539765 43.6456 0.193208 45.1516 0.262813C46.3517 0.341533 47.547 0.480904 48.7331 0.680426C49.8467 0.844947 50.9541 1.02215 52.0551 1.25627C53.1561 1.4904 54.2508 1.73083 55.3329 2.02824C57.0983 2.51547 58.8448 3.07231 60.5469 3.7304C61.8694 4.24294 63.1603 4.84409 64.4385 5.48319C66.4867 6.5036 68.4337 7.71547 70.2536 9.10263C72.3287 10.6335 74.1593 12.4704 75.6828 14.5508C76.5579 15.746 77.2985 17.0341 77.8912 18.3917C78.6955 20.1884 79.1549 22.1203 79.2454 24.0867C79.3045 25.3583 79.2153 26.6324 78.9796 27.8833C78.6264 29.6079 78.0209 31.271 77.1825 32.8189C75.9335 35.0935 74.3171 37.1461 72.3988 38.8936C71.0447 40.1081 69.5976 41.2146 68.0706 42.203C66.6592 43.1373 65.1784 43.9624 63.6412 44.6708C61.9529 45.4691 60.2205 46.1705 58.4524 46.7716C57.2438 47.1766 56.0289 47.5372 54.8077 47.8916C54.061 48.1067 53.2827 48.2649 52.5107 48.4231C51.3907 48.6446 50.2707 48.8851 49.1444 49.0559C48.018 49.2268 46.8664 49.328 45.74 49.4862C44.2973 49.695 42.8483 49.6381 41.4055 49.7266C40.089 49.8216 38.7673 49.8216 37.4507 49.7266C37.2821 49.717 37.1131 49.717 36.9445 49.7266C35.5271 49.8089 34.135 49.5052 32.7239 49.4546C32.1462 49.4029 31.5717 49.3205 31.0028 49.2078C30.2055 49.0939 29.4018 48.98 28.6109 48.8281C27.6237 48.6383 26.6366 48.4295 25.6558 48.1954C24.675 47.9612 23.7132 47.6259 22.7198 47.4423C22.6248 47.4423 22.5363 47.3917 22.4477 47.3664C21.663 47.1196 21.7516 46.8539 21.9161 46.297C22.1186 45.6643 22.2831 44.9619 22.4603 44.2911C22.859 42.8484 23.2007 41.3994 23.6373 39.963C23.8208 39.3302 23.96 38.7354 24.1182 38.1216C24.4726 36.7674 24.8269 35.407 25.2002 34.0529C25.5736 32.6987 25.8899 31.4522 26.238 30.155C26.586 28.8578 26.9087 27.7125 27.2378 26.4786C27.4656 25.618 27.6997 24.7511 27.9275 23.8842C28.1236 23.1502 28.2755 22.3972 28.5096 21.6695C28.6995 21.0747 28.7438 21.0367 29.3765 21.0367C30.1106 21.0367 30.8446 21.0367 31.5786 21.0367C31.9646 21.0367 32.0152 21.1 31.9646 21.467C31.9239 21.7646 31.8604 22.0587 31.7747 22.3466C31.4394 23.4159 31.142 24.5043 30.8699 25.5864C30.5029 26.9974 30.1802 28.4212 29.7625 29.8133C29.5284 30.5916 29.3829 31.3825 29.1297 32.1482C28.9779 32.6418 29.0728 32.781 29.5917 32.781H33.5528C34.0337 32.781 34.059 32.743 34.1856 32.2748C34.3122 31.8065 34.3754 31.4711 34.4893 31.0788C34.888 29.693 35.236 28.2883 35.603 26.8962L36.2864 24.3018C36.6408 22.9414 37.0014 21.5872 37.3368 20.2268C37.3811 20.037 37.495 19.8914 37.5456 19.7142C37.5963 19.5371 37.5456 19.3725 37.3115 19.3789H29.8764C29.2436 19.3789 29.193 19.3093 29.3765 18.6955C29.7309 17.5122 30.0093 16.3099 30.332 15.114C30.6168 14.0129 30.9648 12.9246 31.2432 11.8235C31.4647 11.0136 31.6355 10.1847 31.876 9.38105C32.0521 8.65846 32.4052 7.99098 32.9033 7.4387C33.4015 6.88643 34.0291 6.46667 34.7298 6.21719C35.1903 6.09684 35.674 6.09684 36.1345 6.21719C36.4906 6.22476 36.84 6.31503 37.1552 6.48086C37.4704 6.64668 37.7427 6.88353 37.9506 7.17268Z" fill="#3681C3"/>
</svg>
